<?xml version="1.0" encoding="UTF-8"?><svg id="Ebene_2" xmlns="http://www.w3.org/2000/svg" viewBox="0 0 379.45 128.19"><defs><style>.cls-1{fill:#e3ddcf;}.cls-2{fill:#643c9f;}</style></defs><g id="Ebene_1-2"><g><rect id="Rechteck_28" class="cls-2" x="0" y="0" width="379.45" height="128.19" rx="51.28" ry="51.28"/><g><path class="cls-1" d="M102.73,60.87c-1.6,0-3.13-.25-4.59-.74-1.46-.49-2.61-1.12-3.45-1.91l1.11-2.34c.8,.7,1.82,1.28,3.06,1.74,1.24,.46,2.53,.69,3.87,.69,1.22,0,2.21-.14,2.97-.42,.76-.28,1.32-.66,1.68-1.15s.54-1.04,.54-1.67c0-.72-.24-1.3-.71-1.74-.47-.44-1.08-.79-1.83-1.07-.75-.27-1.57-.5-2.47-.7-.9-.2-1.81-.44-2.72-.71-.91-.27-1.74-.62-2.49-1.04s-1.36-.99-1.81-1.7c-.46-.71-.69-1.62-.69-2.75s.28-2.07,.85-2.98c.57-.91,1.45-1.64,2.64-2.19,1.19-.55,2.7-.83,4.54-.83,1.22,0,2.43,.16,3.63,.48,1.2,.32,2.24,.78,3.12,1.38l-.99,2.4c-.9-.6-1.85-1.03-2.85-1.3-1-.27-1.97-.41-2.91-.41-1.18,0-2.15,.15-2.91,.45-.76,.3-1.32,.7-1.67,1.2-.35,.5-.52,1.06-.52,1.68,0,.74,.23,1.33,.7,1.77,.47,.44,1.08,.79,1.83,1.05s1.58,.5,2.48,.71,1.8,.45,2.71,.71,1.74,.6,2.49,1.02,1.35,.98,1.81,1.68c.46,.7,.69,1.6,.69,2.7s-.29,2.05-.87,2.96c-.58,.91-1.48,1.64-2.68,2.19-1.21,.55-2.74,.83-4.58,.83Z"/><path class="cls-1" d="M118.69,60.63l-6.96-15.9h3l6.18,14.4h-1.44l6.3-14.4h2.82l-6.96,15.9h-2.94Z"/><path class="cls-1" d="M137.91,60.81c-1.7,0-3.19-.35-4.48-1.05s-2.29-1.66-3-2.88c-.71-1.22-1.07-2.62-1.07-4.2s.35-2.98,1.04-4.2c.69-1.22,1.64-2.17,2.85-2.86,1.21-.69,2.57-1.04,4.1-1.04s2.9,.34,4.08,1.02c1.18,.68,2.1,1.64,2.78,2.87,.67,1.23,1,2.67,1,4.3,0,.12,0,.26-.02,.42-.01,.16-.03,.31-.04,.45h-13.53v-2.07h12.03l-1.17,.72c.02-1.02-.19-1.93-.63-2.73-.44-.8-1.05-1.42-1.82-1.88-.77-.45-1.67-.67-2.68-.67s-1.89,.23-2.67,.67c-.78,.45-1.39,1.08-1.83,1.89-.44,.81-.66,1.74-.66,2.77v.48c0,1.06,.24,2,.73,2.83,.49,.83,1.17,1.47,2.06,1.93,.88,.46,1.89,.69,3.03,.69,.94,0,1.79-.16,2.56-.48,.77-.32,1.44-.8,2.03-1.44l1.59,1.86c-.72,.84-1.62,1.48-2.69,1.92-1.07,.44-2.27,.66-3.58,.66Z"/><path class="cls-1" d="M157.68,44.58c1.3,0,2.44,.25,3.43,.75,.99,.5,1.77,1.26,2.33,2.28,.56,1.02,.84,2.31,.84,3.87v9.15h-2.88v-8.82c0-1.54-.38-2.7-1.12-3.48s-1.81-1.17-3.17-1.17c-1.02,0-1.91,.2-2.67,.6-.76,.4-1.35,.99-1.75,1.77-.41,.78-.62,1.75-.62,2.91v8.19h-2.88v-15.9h2.76v4.29l-.45-1.14c.52-1.04,1.32-1.85,2.4-2.43s2.34-.87,3.78-.87Z"/><path class="cls-1" d="M178.11,60.63v-21h9.42c2.42,0,4.28,.49,5.58,1.46,1.3,.97,1.95,2.29,1.95,3.97,0,1.14-.25,2.1-.77,2.88-.51,.78-1.2,1.38-2.06,1.8s-1.79,.63-2.79,.63l.54-.9c1.2,0,2.26,.21,3.18,.63s1.65,1.04,2.19,1.85c.54,.81,.81,1.81,.81,3.01,0,1.8-.67,3.2-2.02,4.18-1.35,.99-3.36,1.49-6.02,1.49h-10.02Zm3-2.43h6.9c1.66,0,2.93-.28,3.81-.84,.88-.56,1.32-1.44,1.32-2.64s-.44-2.11-1.32-2.67c-.88-.56-2.15-.84-3.81-.84h-7.17v-2.43h6.42c1.52,0,2.7-.28,3.54-.84,.84-.56,1.26-1.4,1.26-2.52s-.42-1.96-1.26-2.52c-.84-.56-2.02-.84-3.54-.84h-6.15v16.14Z"/><path class="cls-1" d="M207.09,60.81c-1.36,0-2.56-.25-3.58-.75-1.03-.5-1.83-1.26-2.4-2.29-.57-1.03-.85-2.33-.85-3.88v-9.15h2.88v8.82c0,1.56,.38,2.73,1.12,3.51,.75,.78,1.8,1.17,3.17,1.17,1,0,1.87-.2,2.61-.61,.74-.41,1.31-1.01,1.71-1.8,.4-.79,.6-1.74,.6-2.86v-8.22h2.88v15.9h-2.73v-4.29l.45,1.14c-.52,1.06-1.3,1.88-2.34,2.46-1.04,.58-2.21,.87-3.51,.87Z"/><path class="cls-1" d="M227.64,60.81c-1.62,0-3.07-.35-4.33-1.05-1.27-.7-2.27-1.66-2.99-2.88-.72-1.22-1.08-2.62-1.08-4.2s.36-2.98,1.08-4.2c.72-1.22,1.71-2.17,2.99-2.86,1.27-.69,2.71-1.04,4.33-1.04,1.44,0,2.72,.29,3.85,.85,1.13,.57,2,1.42,2.62,2.54l-2.19,1.41c-.52-.78-1.16-1.35-1.91-1.72s-1.56-.56-2.42-.56c-1.04,0-1.97,.23-2.79,.69-.82,.46-1.47,1.11-1.95,1.93-.48,.83-.72,1.82-.72,2.96s.24,2.13,.72,2.97c.48,.84,1.13,1.49,1.95,1.95,.82,.46,1.75,.69,2.79,.69,.86,0,1.67-.18,2.42-.55s1.38-.95,1.91-1.73l2.19,1.38c-.62,1.1-1.5,1.95-2.62,2.54s-2.41,.88-3.85,.88Z"/><path class="cls-1" d="M246.12,44.58c1.3,0,2.45,.25,3.44,.75,.99,.5,1.76,1.26,2.33,2.28,.56,1.02,.84,2.31,.84,3.87v9.15h-2.88v-8.82c0-1.54-.38-2.7-1.12-3.48s-1.81-1.17-3.17-1.17c-1.02,0-1.91,.2-2.67,.6-.76,.4-1.35,.99-1.76,1.77-.41,.78-.61,1.75-.61,2.91v8.19h-2.88v-22.26h2.88v10.65l-.57-1.14c.52-1.04,1.32-1.85,2.4-2.43,1.08-.58,2.34-.87,3.78-.87Z"/><path class="cls-1" d="M265.14,60.81c-1.7,0-3.19-.35-4.48-1.05s-2.29-1.66-3-2.88-1.07-2.62-1.07-4.2,.35-2.98,1.04-4.2c.69-1.22,1.64-2.17,2.85-2.86,1.21-.69,2.58-1.04,4.1-1.04s2.9,.34,4.08,1.02c1.18,.68,2.1,1.64,2.77,2.87,.67,1.23,1,2.67,1,4.3,0,.12,0,.26-.01,.42-.01,.16-.03,.31-.04,.45h-13.53v-2.07h12.03l-1.17,.72c.02-1.02-.19-1.93-.63-2.73-.44-.8-1.05-1.42-1.82-1.88-.77-.45-1.67-.67-2.68-.67s-1.89,.23-2.67,.67c-.78,.45-1.39,1.08-1.83,1.89-.44,.81-.66,1.74-.66,2.77v.48c0,1.06,.24,2,.74,2.83,.49,.83,1.17,1.47,2.05,1.93,.88,.46,1.89,.69,3.03,.69,.94,0,1.79-.16,2.56-.48,.77-.32,1.45-.8,2.03-1.44l1.59,1.86c-.72,.84-1.62,1.48-2.69,1.92-1.07,.44-2.26,.66-3.58,.66Z"/><path class="cls-1" d="M276.43,60.63v-15.9h2.76v4.32l-.27-1.08c.44-1.1,1.18-1.94,2.22-2.52,1.04-.58,2.32-.87,3.84-.87v2.79c-.12-.02-.24-.03-.35-.03h-.31c-1.54,0-2.76,.46-3.66,1.38s-1.35,2.25-1.35,3.99v7.92h-2.88Z"/><path class="cls-1" d="M143.61,89.43v-16.8h6.84c1.79,0,3.36,.36,4.72,1.07,1.35,.71,2.4,1.7,3.16,2.96,.75,1.26,1.13,2.72,1.13,4.37s-.38,3.1-1.13,4.37c-.75,1.26-1.8,2.25-3.16,2.96-1.35,.71-2.92,1.07-4.72,1.07h-6.84Zm1.78-1.54h4.97c1.49,0,2.78-.29,3.88-.88,1.1-.58,1.95-1.39,2.56-2.42,.61-1.03,.91-2.22,.91-3.56s-.3-2.55-.91-3.58c-.61-1.02-1.46-1.83-2.56-2.41-1.1-.58-2.39-.88-3.88-.88h-4.97v13.73Z"/><path class="cls-1" d="M163.94,74.04c-.35,0-.65-.12-.89-.36-.24-.24-.36-.53-.36-.86s.12-.62,.36-.85c.24-.23,.54-.35,.89-.35s.65,.11,.89,.34c.24,.22,.36,.5,.36,.84s-.12,.65-.35,.89c-.23,.24-.53,.36-.9,.36Zm-.86,15.38v-12.6h1.7v12.6h-1.7Z"/><path class="cls-1" d="M169.53,89.43v-12.6h1.63v3.43l-.17-.6c.35-.96,.94-1.69,1.78-2.2,.83-.5,1.86-.76,3.1-.76v1.66c-.06,0-.13,0-.19-.01-.06,0-.13-.01-.19-.01-1.33,0-2.37,.4-3.12,1.21-.75,.81-1.13,1.96-1.13,3.44v6.43h-1.7Z"/><path class="cls-1" d="M184.19,89.55c-1.31,0-2.46-.28-3.46-.83-.99-.55-1.77-1.31-2.33-2.28-.56-.97-.84-2.08-.84-3.32s.27-2.35,.8-3.31c.54-.96,1.27-1.72,2.21-2.27,.94-.55,1.99-.83,3.16-.83s2.24,.27,3.16,.8c.92,.54,1.64,1.29,2.17,2.26,.53,.97,.79,2.08,.79,3.35,0,.08,0,.16-.01,.25,0,.09-.01,.18-.01,.28h-10.97v-1.27h10.06l-.67,.5c0-.91-.2-1.72-.59-2.44-.39-.71-.92-1.27-1.6-1.67-.67-.4-1.45-.6-2.33-.6s-1.64,.2-2.33,.6c-.69,.4-1.22,.96-1.61,1.68-.38,.72-.58,1.54-.58,2.47v.26c0,.96,.21,1.8,.64,2.53,.42,.73,1.02,1.3,1.78,1.7s1.63,.61,2.6,.61c.77,0,1.48-.14,2.15-.41s1.24-.69,1.72-1.25l.96,1.1c-.56,.67-1.26,1.18-2.1,1.54-.84,.35-1.76,.53-2.77,.53Z"/><path class="cls-1" d="M198.57,89.55c-1.25,0-2.36-.28-3.35-.83-.98-.55-1.76-1.31-2.32-2.28-.56-.97-.84-2.08-.84-3.32s.28-2.38,.84-3.34,1.33-1.71,2.32-2.26c.98-.54,2.1-.82,3.35-.82,1.07,0,2.04,.21,2.9,.62,.86,.42,1.54,1.04,2.04,1.87l-1.27,.86c-.43-.64-.97-1.11-1.61-1.42-.64-.3-1.34-.46-2.09-.46-.9,0-1.7,.2-2.42,.61-.72,.41-1.29,.98-1.7,1.72-.42,.74-.62,1.6-.62,2.59s.21,1.86,.62,2.59c.42,.74,.98,1.31,1.7,1.72,.72,.41,1.53,.61,2.42,.61,.75,0,1.45-.15,2.09-.46,.64-.3,1.18-.77,1.61-1.39l1.27,.86c-.5,.82-1.18,1.44-2.04,1.86-.86,.42-1.83,.64-2.9,.64Z"/><path class="cls-1" d="M205.02,78.24v-1.42h7.8v1.42h-7.8Zm5.95,11.3c-1.18,0-2.1-.32-2.74-.96-.64-.64-.96-1.54-.96-2.71v-11.83h1.7v11.74c0,.74,.19,1.3,.56,1.7,.38,.4,.92,.6,1.62,.6,.75,0,1.38-.22,1.87-.65l.6,1.22c-.34,.3-.74,.53-1.21,.67-.47,.14-.96,.22-1.45,.22Z"/><path class="cls-1" d="M221.42,89.55c-1.23,0-2.33-.28-3.29-.83s-1.72-1.32-2.28-2.29c-.56-.98-.84-2.08-.84-3.31s.28-2.38,.84-3.34,1.32-1.71,2.28-2.26c.96-.54,2.06-.82,3.29-.82s2.35,.28,3.32,.83c.97,.55,1.73,1.3,2.28,2.26s.83,2.06,.83,3.32-.28,2.36-.83,3.32c-.55,.97-1.32,1.73-2.29,2.28-.98,.55-2.08,.83-3.31,.83Zm0-1.51c.91,0,1.72-.2,2.42-.61,.7-.41,1.26-.98,1.67-1.73,.41-.74,.61-1.6,.61-2.58s-.2-1.86-.61-2.59c-.41-.74-.96-1.31-1.67-1.72-.7-.41-1.5-.61-2.4-.61s-1.7,.2-2.4,.61c-.7,.41-1.26,.98-1.68,1.72-.42,.74-.62,1.6-.62,2.59s.21,1.84,.62,2.58c.42,.74,.97,1.32,1.67,1.73s1.49,.61,2.39,.61Z"/><path class="cls-1" d="M231.33,89.43v-12.6h1.63v3.43l-.17-.6c.35-.96,.95-1.69,1.78-2.2,.83-.5,1.86-.76,3.1-.76v1.66c-.06,0-.13,0-.19-.01-.06,0-.13-.01-.19-.01-1.33,0-2.37,.4-3.12,1.21s-1.13,1.96-1.13,3.44v6.43h-1.7Z"/></g></g></g></svg>