<?xml version="1.0" encoding="UTF-8"?><svg id="Ebene_2" xmlns="http://www.w3.org/2000/svg" viewBox="0 0 379.45 128.19"><defs><style>.cls-1{fill:#e3ddcf;}.cls-2{fill:#643c9f;}</style></defs><g id="Ebene_1-2"><g><rect id="Rechteck_28" class="cls-2" x="0" width="379.45" height="128.19" rx="51.28" ry="51.28"/><g><path class="cls-1" d="M70.01,60.63v-18.39h-7.2v-2.61h17.37v2.61h-7.2v18.39h-2.97Z"/><path class="cls-1" d="M86.84,60.81c-1.18,0-2.21-.2-3.1-.6-.89-.4-1.58-.96-2.05-1.67-.48-.71-.72-1.51-.72-2.42s.21-1.64,.62-2.34,1.08-1.26,2.01-1.68c.93-.42,2.19-.63,3.77-.63h5.04v2.07h-4.92c-1.44,0-2.41,.24-2.91,.72-.5,.48-.75,1.06-.75,1.74,0,.78,.31,1.41,.93,1.88,.62,.47,1.48,.71,2.58,.71s2.02-.24,2.83-.72c.81-.48,1.39-1.18,1.75-2.1l.57,1.98c-.38,.94-1.05,1.68-2.01,2.24-.96,.55-2.17,.82-3.63,.82Zm5.22-.18v-3.36l-.15-.63v-5.73c0-1.22-.36-2.17-1.07-2.83s-1.77-1-3.19-1c-.94,0-1.86,.15-2.76,.46-.9,.31-1.66,.72-2.28,1.25l-1.2-2.16c.82-.66,1.8-1.17,2.96-1.52,1.15-.35,2.35-.52,3.62-.52,2.18,0,3.86,.53,5.04,1.59,1.18,1.06,1.77,2.68,1.77,4.86v9.6h-2.73Z"/><path class="cls-1" d="M100.13,60.63v-22.26h2.88v10.59l-.3,3.69,.18,3.69v4.29h-2.76Zm8.43,.18c-1.36,0-2.59-.3-3.68-.92-1.09-.61-1.95-1.51-2.58-2.71-.63-1.2-.94-2.7-.94-4.5s.32-3.3,.97-4.5c.65-1.2,1.52-2.1,2.61-2.7,1.09-.6,2.29-.9,3.62-.9,1.56,0,2.94,.34,4.14,1.02,1.2,.68,2.15,1.62,2.85,2.83,.7,1.21,1.05,2.62,1.05,4.25s-.35,3.04-1.05,4.26c-.7,1.22-1.65,2.17-2.85,2.85s-2.58,1.02-4.14,1.02Zm-.24-2.52c1.02,0,1.93-.23,2.75-.69,.81-.46,1.45-1.11,1.92-1.96,.47-.85,.71-1.83,.71-2.96s-.24-2.12-.71-2.96c-.47-.83-1.11-1.47-1.92-1.93-.81-.46-1.73-.69-2.75-.69s-1.91,.23-2.71,.69c-.81,.46-1.45,1.11-1.92,1.93-.47,.83-.71,1.82-.71,2.96s.23,2.11,.71,2.96c.47,.85,1.11,1.5,1.92,1.96,.81,.46,1.71,.69,2.71,.69Z"/><path class="cls-1" d="M127.67,60.81c-1.7,0-3.19-.35-4.48-1.05s-2.29-1.66-3-2.88c-.71-1.22-1.07-2.62-1.07-4.2s.34-2.98,1.04-4.2c.69-1.22,1.64-2.17,2.85-2.86,1.21-.69,2.58-1.04,4.1-1.04s2.9,.34,4.08,1.02c1.18,.68,2.11,1.64,2.78,2.87,.67,1.23,1,2.67,1,4.3,0,.12,0,.26-.01,.42-.01,.16-.03,.31-.04,.45h-13.53v-2.07h12.03l-1.17,.72c.02-1.02-.19-1.93-.63-2.73-.44-.8-1.05-1.42-1.82-1.88-.77-.45-1.67-.67-2.68-.67s-1.89,.23-2.67,.67c-.78,.45-1.39,1.08-1.83,1.89-.44,.81-.66,1.74-.66,2.77v.48c0,1.06,.24,2,.73,2.83s1.17,1.47,2.06,1.93c.88,.46,1.89,.69,3.03,.69,.94,0,1.79-.16,2.57-.48,.77-.32,1.44-.8,2.03-1.44l1.59,1.86c-.72,.84-1.62,1.48-2.69,1.92-1.07,.44-2.26,.66-3.58,.66Z"/><path class="cls-1" d="M143.15,60.81c-1.18,0-2.21-.2-3.1-.6-.89-.4-1.58-.96-2.05-1.67-.48-.71-.72-1.51-.72-2.42s.21-1.64,.62-2.34,1.08-1.26,2.01-1.68c.93-.42,2.19-.63,3.77-.63h5.04v2.07h-4.92c-1.44,0-2.41,.24-2.91,.72-.5,.48-.75,1.06-.75,1.74,0,.78,.31,1.41,.93,1.88,.62,.47,1.48,.71,2.58,.71s2.02-.24,2.83-.72c.81-.48,1.39-1.18,1.75-2.1l.57,1.98c-.38,.94-1.05,1.68-2.01,2.24-.96,.55-2.17,.82-3.63,.82Zm5.22-.18v-3.36l-.15-.63v-5.73c0-1.22-.36-2.17-1.07-2.83s-1.77-1-3.19-1c-.94,0-1.86,.15-2.76,.46-.9,.31-1.66,.72-2.28,1.25l-1.2-2.16c.82-.66,1.8-1.17,2.96-1.52,1.15-.35,2.35-.52,3.62-.52,2.18,0,3.86,.53,5.04,1.59,1.18,1.06,1.77,2.68,1.77,4.86v9.6h-2.73Z"/><path class="cls-1" d="M171.05,60.87c-1.6,0-3.13-.25-4.59-.74-1.46-.49-2.61-1.12-3.45-1.91l1.11-2.34c.8,.7,1.82,1.28,3.06,1.74,1.24,.46,2.53,.69,3.87,.69,1.22,0,2.21-.14,2.97-.42,.76-.28,1.32-.66,1.68-1.15,.36-.49,.54-1.04,.54-1.67,0-.72-.24-1.3-.71-1.74-.47-.44-1.08-.79-1.83-1.07-.75-.27-1.57-.5-2.47-.7s-1.8-.44-2.71-.71c-.91-.27-1.74-.62-2.49-1.04s-1.36-.99-1.81-1.7c-.46-.71-.69-1.62-.69-2.75s.29-2.07,.86-2.98c.57-.91,1.45-1.64,2.64-2.19,1.19-.55,2.7-.83,4.54-.83,1.22,0,2.43,.16,3.63,.48s2.24,.78,3.12,1.38l-.99,2.4c-.9-.6-1.85-1.03-2.85-1.3-1-.27-1.97-.41-2.91-.41-1.18,0-2.15,.15-2.91,.45s-1.32,.7-1.67,1.2-.52,1.06-.52,1.68c0,.74,.23,1.33,.7,1.77,.47,.44,1.08,.79,1.83,1.05s1.58,.5,2.48,.71c.9,.21,1.8,.45,2.71,.71s1.74,.6,2.49,1.02,1.35,.98,1.81,1.68,.69,1.6,.69,2.7-.29,2.05-.87,2.96c-.58,.91-1.48,1.64-2.68,2.19-1.21,.55-2.74,.83-4.58,.83Z"/><path class="cls-1" d="M190.07,60.81c-1.62,0-3.07-.35-4.33-1.05-1.27-.7-2.27-1.66-2.99-2.88s-1.08-2.62-1.08-4.2,.36-2.98,1.08-4.2c.72-1.22,1.71-2.17,2.99-2.86,1.27-.69,2.71-1.04,4.33-1.04,1.44,0,2.72,.29,3.85,.85,1.13,.57,2,1.42,2.62,2.54l-2.19,1.41c-.52-.78-1.16-1.35-1.91-1.72s-1.56-.56-2.42-.56c-1.04,0-1.97,.23-2.79,.69-.82,.46-1.47,1.11-1.95,1.93-.48,.83-.72,1.82-.72,2.96s.24,2.13,.72,2.97c.48,.84,1.13,1.49,1.95,1.95,.82,.46,1.75,.69,2.79,.69,.86,0,1.67-.18,2.42-.55s1.38-.95,1.91-1.73l2.19,1.38c-.62,1.1-1.5,1.95-2.62,2.54s-2.42,.88-3.85,.88Z"/><path class="cls-1" d="M208.55,44.58c1.3,0,2.44,.25,3.43,.75s1.76,1.26,2.33,2.28c.56,1.02,.84,2.31,.84,3.87v9.15h-2.88v-8.82c0-1.54-.38-2.7-1.12-3.48s-1.81-1.17-3.17-1.17c-1.02,0-1.91,.2-2.67,.6-.76,.4-1.35,.99-1.75,1.77-.41,.78-.62,1.75-.62,2.91v8.19h-2.88v-22.26h2.88v10.65l-.57-1.14c.52-1.04,1.32-1.85,2.4-2.43s2.34-.87,3.78-.87Z"/><path class="cls-1" d="M223.55,60.63l-5.91-15.9h2.73l5.25,14.4h-1.29l5.46-14.4h2.43l5.34,14.4h-1.26l5.37-14.4h2.58l-5.94,15.9h-2.76l-5.01-13.14h.84l-5.07,13.14h-2.76Z"/><path class="cls-1" d="M253.79,60.81c-1.7,0-3.19-.35-4.48-1.05s-2.29-1.66-3-2.88-1.07-2.62-1.07-4.2,.35-2.98,1.04-4.2c.69-1.22,1.64-2.17,2.85-2.86,1.21-.69,2.58-1.04,4.1-1.04s2.9,.34,4.08,1.02c1.18,.68,2.1,1.64,2.77,2.87,.67,1.23,1,2.67,1,4.3,0,.12,0,.26-.01,.42-.01,.16-.03,.31-.04,.45h-13.53v-2.07h12.03l-1.17,.72c.02-1.02-.19-1.93-.63-2.73-.44-.8-1.05-1.42-1.82-1.88-.77-.45-1.67-.67-2.68-.67s-1.89,.23-2.67,.67c-.78,.45-1.39,1.08-1.83,1.89-.44,.81-.66,1.74-.66,2.77v.48c0,1.06,.24,2,.74,2.83,.49,.83,1.17,1.47,2.05,1.93,.88,.46,1.89,.69,3.03,.69,.94,0,1.79-.16,2.56-.48,.77-.32,1.45-.8,2.03-1.44l1.59,1.86c-.72,.84-1.62,1.48-2.69,1.92-1.07,.44-2.26,.66-3.58,.66Z"/><path class="cls-1" d="M266.51,41.67c-.56,0-1.03-.18-1.39-.54-.37-.36-.56-.8-.56-1.32s.18-.99,.56-1.35c.37-.36,.83-.54,1.39-.54s1.02,.17,1.4,.53c.37,.35,.55,.79,.55,1.3s-.18,1-.54,1.37-.83,.55-1.41,.55Zm-1.44,18.96v-15.9h2.88v15.9h-2.88Z"/><path class="cls-1" d="M271.91,60.63v-1.86l10.2-12.66,.57,.99h-10.59v-2.37h12.9v1.89l-10.2,12.63-.66-.99h11.1v2.37h-13.32Z"/><path class="cls-1" d="M295.91,60.81c-1.7,0-3.19-.35-4.48-1.05s-2.29-1.66-3-2.88-1.07-2.62-1.07-4.2,.35-2.98,1.04-4.2c.69-1.22,1.64-2.17,2.85-2.86,1.21-.69,2.58-1.04,4.1-1.04s2.9,.34,4.08,1.02c1.18,.68,2.1,1.64,2.77,2.87,.67,1.23,1,2.67,1,4.3,0,.12,0,.26-.01,.42-.01,.16-.03,.31-.04,.45h-13.53v-2.07h12.03l-1.17,.72c.02-1.02-.19-1.93-.63-2.73-.44-.8-1.05-1.42-1.82-1.88-.77-.45-1.67-.67-2.68-.67s-1.89,.23-2.67,.67c-.78,.45-1.39,1.08-1.83,1.89-.44,.81-.66,1.74-.66,2.77v.48c0,1.06,.24,2,.74,2.83,.49,.83,1.17,1.47,2.05,1.93,.88,.46,1.89,.69,3.03,.69,.94,0,1.79-.16,2.56-.48,.77-.32,1.45-.8,2.03-1.44l1.59,1.86c-.72,.84-1.62,1.48-2.69,1.92-1.07,.44-2.26,.66-3.58,.66Z"/><path class="cls-1" d="M307.19,60.63v-15.9h2.76v4.32l-.27-1.08c.44-1.1,1.18-1.94,2.22-2.52,1.04-.58,2.32-.87,3.84-.87v2.79c-.12-.02-.24-.03-.35-.03h-.31c-1.54,0-2.76,.46-3.66,1.38s-1.35,2.25-1.35,3.99v7.92h-2.88Z"/><path class="cls-1" d="M139.95,89.43v-16.8h1.78v15.26h9.41v1.54h-11.18Z"/><path class="cls-1" d="M158.67,89.55c-1.23,0-2.33-.28-3.29-.83s-1.72-1.32-2.28-2.29c-.56-.98-.84-2.08-.84-3.31s.28-2.38,.84-3.34c.56-.96,1.32-1.71,2.28-2.26,.96-.54,2.06-.82,3.29-.82s2.36,.28,3.32,.83c.97,.55,1.73,1.3,2.28,2.26,.55,.95,.83,2.06,.83,3.32s-.28,2.36-.83,3.32c-.55,.97-1.32,1.73-2.29,2.28-.98,.55-2.08,.83-3.31,.83Zm0-1.51c.91,0,1.72-.2,2.42-.61s1.26-.98,1.67-1.73c.41-.74,.61-1.6,.61-2.58s-.2-1.86-.61-2.59c-.41-.74-.96-1.31-1.67-1.72s-1.5-.61-2.4-.61-1.7,.2-2.4,.61-1.26,.98-1.68,1.72c-.42,.74-.62,1.6-.62,2.59s.21,1.84,.62,2.58c.42,.74,.97,1.32,1.67,1.73,.7,.41,1.49,.61,2.39,.61Z"/><path class="cls-1" d="M173.65,88.95c-1.2,0-2.28-.26-3.24-.78s-1.72-1.24-2.27-2.17-.83-1.99-.83-3.19,.28-2.26,.83-3.18,1.31-1.64,2.27-2.15c.96-.51,2.04-.77,3.24-.77,1.12,0,2.13,.23,3.02,.7,.9,.46,1.61,1.15,2.14,2.06s.79,2.02,.79,3.34-.26,2.42-.79,3.34-1.24,1.61-2.14,2.09c-.9,.48-1.9,.72-3.02,.72Zm.31,5.26c-1.15,0-2.26-.17-3.31-.5-1.06-.34-1.91-.82-2.57-1.44l.86-1.3c.59,.53,1.32,.95,2.2,1.26,.87,.31,1.8,.47,2.77,.47,1.6,0,2.78-.37,3.53-1.12,.75-.74,1.13-1.9,1.13-3.47v-3.14l.24-2.16-.17-2.16v-3.82h1.63v11.06c0,2.18-.53,3.77-1.6,4.79-1.06,1.02-2.64,1.52-4.72,1.52Zm-.14-6.77c.93,0,1.75-.2,2.47-.59,.72-.39,1.29-.94,1.7-1.63,.42-.7,.62-1.5,.62-2.41s-.21-1.71-.62-2.4c-.42-.69-.98-1.23-1.7-1.62-.72-.39-1.54-.59-2.47-.59s-1.73,.2-2.46,.59c-.73,.39-1.3,.93-1.7,1.62-.41,.69-.61,1.49-.61,2.4s.2,1.72,.61,2.41c.41,.7,.98,1.24,1.7,1.63,.73,.39,1.55,.59,2.46,.59Z"/><path class="cls-1" d="M185.89,74.04c-.35,0-.65-.12-.89-.36-.24-.24-.36-.53-.36-.86s.12-.62,.36-.85c.24-.23,.54-.35,.89-.35s.65,.11,.89,.34c.24,.22,.36,.5,.36,.84s-.12,.65-.35,.89c-.23,.24-.53,.36-.9,.36Zm-.86,15.38v-12.6h1.7v12.6h-1.7Z"/><path class="cls-1" d="M194.86,89.55c-1.04,0-2.02-.15-2.95-.44-.93-.3-1.66-.67-2.18-1.12l.77-1.34c.51,.38,1.17,.72,1.97,1,.8,.28,1.64,.42,2.52,.42,1.2,0,2.06-.19,2.59-.56,.53-.38,.79-.88,.79-1.5,0-.46-.15-.83-.44-1.09-.3-.26-.68-.46-1.16-.6s-1.02-.25-1.61-.35c-.59-.1-1.18-.21-1.76-.34s-1.12-.32-1.6-.56c-.48-.25-.87-.59-1.16-1.02-.3-.43-.44-1.01-.44-1.73s.19-1.3,.58-1.85,.95-.97,1.69-1.28c.74-.31,1.65-.47,2.72-.47,.82,0,1.63,.11,2.45,.32,.82,.22,1.49,.5,2.02,.85l-.74,1.37c-.56-.38-1.16-.66-1.8-.83s-1.28-.25-1.92-.25c-1.14,0-1.97,.2-2.51,.59-.54,.39-.8,.89-.8,1.5,0,.48,.15,.86,.44,1.13,.3,.27,.69,.48,1.18,.64,.49,.15,1.02,.28,1.61,.37,.58,.1,1.17,.21,1.75,.35s1.12,.32,1.61,.55c.49,.23,.88,.56,1.18,.98,.3,.42,.44,.98,.44,1.67,0,.74-.2,1.37-.61,1.91-.41,.54-1,.95-1.78,1.25-.78,.3-1.72,.44-2.82,.44Z"/><path class="cls-1" d="M201.22,78.24v-1.42h7.8v1.42h-7.8Zm5.95,11.3c-1.18,0-2.1-.32-2.74-.96s-.96-1.54-.96-2.71v-11.83h1.7v11.74c0,.74,.19,1.3,.56,1.7,.38,.4,.92,.6,1.62,.6,.75,0,1.38-.22,1.87-.65l.6,1.22c-.34,.3-.74,.53-1.21,.67-.47,.14-.96,.22-1.45,.22Z"/><path class="cls-1" d="M213.8,74.04c-.35,0-.65-.12-.89-.36s-.36-.53-.36-.86,.12-.62,.36-.85c.24-.23,.54-.35,.89-.35s.65,.11,.89,.34c.24,.22,.36,.5,.36,.84s-.12,.65-.35,.89c-.23,.24-.53,.36-.9,.36Zm-.86,15.38v-12.6h1.7v12.6h-1.7Z"/><path class="cls-1" d="M224.62,89.55c-1.25,0-2.36-.28-3.35-.83s-1.76-1.31-2.32-2.28c-.56-.97-.84-2.08-.84-3.32s.28-2.38,.84-3.34c.56-.96,1.33-1.71,2.32-2.26,.98-.54,2.1-.82,3.35-.82,1.07,0,2.04,.21,2.9,.62s1.54,1.04,2.04,1.87l-1.27,.86c-.43-.64-.97-1.11-1.61-1.42-.64-.3-1.34-.46-2.09-.46-.9,0-1.7,.2-2.42,.61-.72,.41-1.29,.98-1.7,1.72-.42,.74-.62,1.6-.62,2.59s.21,1.86,.62,2.59c.42,.74,.98,1.31,1.7,1.72,.72,.41,1.53,.61,2.42,.61,.75,0,1.45-.15,2.09-.46,.64-.3,1.18-.77,1.61-1.39l1.27,.86c-.5,.82-1.18,1.44-2.04,1.86s-1.83,.64-2.9,.64Z"/><path class="cls-1" d="M236.28,89.55c-1.04,0-2.02-.15-2.95-.44-.93-.3-1.66-.67-2.18-1.12l.77-1.34c.51,.38,1.17,.72,1.97,1,.8,.28,1.64,.42,2.52,.42,1.2,0,2.06-.19,2.59-.56,.53-.38,.79-.88,.79-1.5,0-.46-.15-.83-.44-1.09-.3-.26-.68-.46-1.16-.6-.48-.14-1.02-.25-1.61-.35-.59-.1-1.18-.21-1.76-.34s-1.12-.32-1.6-.56c-.48-.25-.87-.59-1.16-1.02-.3-.43-.44-1.01-.44-1.73s.19-1.3,.58-1.85,.95-.97,1.69-1.28c.74-.31,1.65-.47,2.72-.47,.82,0,1.63,.11,2.45,.32,.82,.22,1.49,.5,2.02,.85l-.74,1.37c-.56-.38-1.16-.66-1.8-.83-.64-.17-1.28-.25-1.92-.25-1.14,0-1.97,.2-2.51,.59-.54,.39-.8,.89-.8,1.5,0,.48,.15,.86,.44,1.13,.3,.27,.69,.48,1.18,.64,.49,.15,1.02,.28,1.61,.37,.58,.1,1.17,.21,1.75,.35,.58,.14,1.12,.32,1.61,.55,.49,.23,.88,.56,1.18,.98,.3,.42,.44,.98,.44,1.67,0,.74-.2,1.37-.61,1.91-.41,.54-1,.95-1.78,1.25-.78,.3-1.72,.44-2.82,.44Z"/></g></g></g></svg>