<?xml version="1.0" encoding="UTF-8"?><svg id="Ebene_2" xmlns="http://www.w3.org/2000/svg" viewBox="0 0 379.45 128.19"><defs><style>.cls-1{fill:#e3ddcf;}.cls-2{fill:#643c9f;}</style></defs><g id="Ebene_1-2"><g><rect id="Rechteck_28" class="cls-2" width="379.45" height="128.19" rx="51.28" ry="51.28"/><g><path class="cls-1" d="M107.36,60.87c-1.24,0-2.4-.26-3.48-.78-1.08-.52-1.96-1.27-2.64-2.25l1.74-2.04c.58,.8,1.23,1.42,1.96,1.84,.73,.43,1.54,.65,2.42,.65,2.4,0,3.6-1.42,3.6-4.26v-11.79h-7.59v-2.61h10.56v14.25c0,2.34-.55,4.09-1.67,5.25s-2.75,1.74-4.91,1.74Z"/><path class="cls-1" d="M126.44,60.81c-1.58,0-3-.35-4.25-1.05s-2.24-1.67-2.96-2.89c-.72-1.23-1.08-2.62-1.08-4.19s.36-2.97,1.08-4.18,1.7-2.17,2.94-2.87,2.66-1.05,4.26-1.05,2.99,.34,4.25,1.04c1.25,.69,2.23,1.64,2.94,2.86,.71,1.22,1.07,2.62,1.07,4.2s-.36,2.98-1.07,4.2-1.69,2.18-2.94,2.88c-1.25,.7-2.67,1.05-4.25,1.05Zm0-2.52c1.02,0,1.93-.23,2.75-.69,.81-.46,1.44-1.11,1.9-1.96,.46-.85,.69-1.83,.69-2.96s-.23-2.12-.69-2.96c-.46-.83-1.09-1.47-1.9-1.93-.81-.46-1.73-.69-2.75-.69s-1.93,.23-2.73,.69-1.44,1.11-1.92,1.93c-.48,.83-.72,1.82-.72,2.96s.24,2.11,.72,2.96c.48,.85,1.12,1.5,1.92,1.96,.8,.46,1.71,.69,2.73,.69Z"/><path class="cls-1" d="M145.76,60.81c-1.7,0-3.19-.35-4.48-1.05s-2.29-1.66-3-2.88c-.71-1.22-1.07-2.62-1.07-4.2s.34-2.98,1.04-4.2c.69-1.22,1.64-2.17,2.85-2.86,1.21-.69,2.58-1.04,4.1-1.04s2.9,.34,4.08,1.02c1.18,.68,2.11,1.64,2.78,2.87,.67,1.23,1,2.67,1,4.3,0,.12,0,.26-.01,.42-.01,.16-.03,.31-.04,.45h-13.53v-2.07h12.03l-1.17,.72c.02-1.02-.19-1.93-.63-2.73-.44-.8-1.05-1.42-1.82-1.88-.77-.45-1.67-.67-2.68-.67s-1.89,.23-2.67,.67c-.78,.45-1.39,1.08-1.83,1.89-.44,.81-.66,1.74-.66,2.77v.48c0,1.06,.24,2,.73,2.83s1.17,1.47,2.06,1.93c.88,.46,1.89,.69,3.03,.69,.94,0,1.79-.16,2.57-.48,.77-.32,1.44-.8,2.03-1.44l1.59,1.86c-.72,.84-1.62,1.48-2.69,1.92-1.07,.44-2.26,.66-3.58,.66Z"/><path class="cls-1" d="M157.04,60.63v-22.26h2.88v22.26h-2.88Z"/><path class="cls-1" d="M176.9,60.63h-3v-21h14.82v2.61h-11.82v18.39Zm-.3-11.07h10.83v2.58h-10.83v-2.58Z"/><path class="cls-1" d="M192.53,60.63v-22.26h2.88v22.26h-2.88Z"/><path class="cls-1" d="M207.59,60.81c-1.36,0-2.56-.25-3.58-.75-1.03-.5-1.83-1.26-2.4-2.29-.57-1.03-.85-2.33-.85-3.88v-9.15h2.88v8.82c0,1.56,.38,2.73,1.12,3.51,.75,.78,1.8,1.17,3.17,1.17,1,0,1.87-.2,2.61-.61s1.31-1.01,1.71-1.8c.4-.79,.6-1.74,.6-2.86v-8.22h2.88v15.9h-2.73v-4.29l.45,1.14c-.52,1.06-1.3,1.88-2.34,2.46-1.04,.58-2.21,.87-3.51,.87Zm-2.13-18.9c-.42,0-.78-.15-1.08-.44-.3-.29-.45-.65-.45-1.09s.15-.83,.45-1.12,.66-.43,1.08-.43,.78,.14,1.08,.43c.3,.29,.45,.67,.45,1.12s-.15,.81-.45,1.09c-.3,.29-.66,.44-1.08,.44Zm5.58,0c-.42,0-.78-.15-1.08-.44-.3-.29-.45-.65-.45-1.09s.15-.83,.45-1.12,.66-.43,1.08-.43,.78,.14,1.08,.43c.3,.29,.45,.67,.45,1.12s-.15,.81-.45,1.09c-.3,.29-.66,.44-1.08,.44Z"/><path class="cls-1" d="M229.7,44.58c1.3,0,2.45,.25,3.44,.75s1.77,1.26,2.33,2.28c.56,1.02,.84,2.31,.84,3.87v9.15h-2.88v-8.82c0-1.54-.38-2.7-1.12-3.48s-1.8-1.17-3.17-1.17c-1.02,0-1.91,.2-2.67,.6-.76,.4-1.34,.99-1.75,1.77-.41,.78-.62,1.75-.62,2.91v8.19h-2.88v-22.26h2.88v10.65l-.57-1.14c.52-1.04,1.32-1.85,2.4-2.43s2.34-.87,3.78-.87Z"/><path class="cls-1" d="M241.64,60.63v-22.26h2.88v22.26h-2.88Z"/><path class="cls-1" d="M257.09,60.81c-1.7,0-3.19-.35-4.48-1.05s-2.29-1.66-3-2.88-1.07-2.62-1.07-4.2,.35-2.98,1.04-4.2c.69-1.22,1.64-2.17,2.85-2.86,1.21-.69,2.58-1.04,4.1-1.04s2.9,.34,4.08,1.02c1.18,.68,2.1,1.64,2.77,2.87,.67,1.23,1,2.67,1,4.3,0,.12,0,.26-.01,.42-.01,.16-.03,.31-.04,.45h-13.53v-2.07h12.03l-1.17,.72c.02-1.02-.19-1.93-.63-2.73-.44-.8-1.05-1.42-1.82-1.88-.77-.45-1.67-.67-2.68-.67s-1.89,.23-2.67,.67c-.78,.45-1.39,1.08-1.83,1.89-.44,.81-.66,1.74-.66,2.77v.48c0,1.06,.24,2,.74,2.83,.49,.83,1.17,1.47,2.05,1.93,.88,.46,1.89,.69,3.03,.69,.94,0,1.79-.16,2.56-.48,.77-.32,1.45-.8,2.03-1.44l1.59,1.86c-.72,.84-1.62,1.48-2.69,1.92-1.07,.44-2.26,.66-3.58,.66Z"/><path class="cls-1" d="M268.37,60.63v-15.9h2.76v4.32l-.27-1.08c.44-1.1,1.18-1.94,2.22-2.52,1.04-.58,2.32-.87,3.84-.87v2.79c-.12-.02-.24-.03-.35-.03h-.31c-1.54,0-2.76,.46-3.66,1.38s-1.35,2.25-1.35,3.99v7.92h-2.88Z"/><path class="cls-1" d="M125.18,89.43v-16.8h6.29c1.42,0,2.65,.23,3.67,.68,1.02,.46,1.81,1.11,2.36,1.97,.55,.86,.83,1.89,.83,3.11s-.28,2.2-.83,3.06c-.55,.86-1.34,1.52-2.36,1.98-1.02,.46-2.25,.7-3.67,.7h-5.3l.79-.84v6.14h-1.78Zm1.78-6l-.79-.86h5.26c1.68,0,2.96-.36,3.83-1.09,.87-.73,1.31-1.76,1.31-3.08s-.44-2.38-1.31-3.12c-.87-.74-2.15-1.1-3.83-1.1h-5.26l.79-.84v10.1Z"/><path class="cls-1" d="M141.5,89.43v-12.6h1.63v3.43l-.17-.6c.35-.96,.94-1.69,1.78-2.2s1.86-.76,3.1-.76v1.66c-.06,0-.13,0-.19-.01-.06,0-.13-.01-.19-.01-1.33,0-2.37,.4-3.12,1.21s-1.13,1.96-1.13,3.44v6.43h-1.7Z"/><path class="cls-1" d="M155.95,89.55c-1.23,0-2.33-.28-3.29-.83s-1.72-1.32-2.28-2.29c-.56-.98-.84-2.08-.84-3.31s.28-2.38,.84-3.34c.56-.96,1.32-1.71,2.28-2.26,.96-.54,2.06-.82,3.29-.82s2.36,.28,3.32,.83c.97,.55,1.73,1.3,2.28,2.26s.83,2.06,.83,3.32-.28,2.36-.83,3.32c-.55,.97-1.32,1.73-2.29,2.28-.98,.55-2.08,.83-3.31,.83Zm0-1.51c.91,0,1.72-.2,2.42-.61,.7-.41,1.26-.98,1.67-1.73,.41-.74,.61-1.6,.61-2.58s-.2-1.86-.61-2.59c-.41-.74-.96-1.31-1.67-1.72-.7-.41-1.5-.61-2.4-.61s-1.7,.2-2.4,.61c-.71,.41-1.26,.98-1.68,1.72-.42,.74-.62,1.6-.62,2.59s.21,1.84,.62,2.58c.42,.74,.97,1.32,1.67,1.73,.7,.41,1.49,.61,2.39,.61Z"/><path class="cls-1" d="M170.87,89.55c-1.2,0-2.28-.27-3.23-.82s-1.7-1.3-2.24-2.27-.82-2.08-.82-3.35,.27-2.4,.82-3.36,1.29-1.71,2.24-2.24,2.03-.8,3.23-.8c1.1,0,2.09,.25,2.96,.74s1.57,1.22,2.09,2.17c.52,.95,.78,2.12,.78,3.49s-.26,2.52-.77,3.48-1.2,1.69-2.08,2.2-1.87,.76-2.99,.76Zm.12-1.51c.9,0,1.7-.2,2.41-.61s1.27-.98,1.68-1.73c.41-.74,.61-1.6,.61-2.58s-.2-1.86-.61-2.59c-.41-.74-.97-1.31-1.68-1.72s-1.52-.61-2.41-.61-1.67,.2-2.38,.61c-.71,.41-1.26,.98-1.68,1.72-.42,.74-.62,1.6-.62,2.59s.21,1.84,.62,2.58c.42,.74,.98,1.32,1.68,1.73,.7,.41,1.5,.61,2.38,.61Zm4.75,1.39v-3.79l.17-2.54-.24-2.54v-8.93h1.7v17.81h-1.63Z"/><path class="cls-1" d="M187.34,89.55c-1.07,0-2.01-.2-2.81-.6-.8-.4-1.42-1-1.86-1.8-.44-.8-.66-1.8-.66-3v-7.32h1.7v7.13c0,1.34,.33,2.36,1,3.04,.66,.68,1.6,1.02,2.8,1.02,.88,0,1.64-.18,2.29-.54,.65-.36,1.14-.88,1.49-1.57,.34-.69,.52-1.51,.52-2.47v-6.6h1.7v12.6h-1.63v-3.46l.26,.62c-.4,.93-1.02,1.65-1.86,2.17-.84,.52-1.82,.78-2.94,.78Z"/><path class="cls-1" d="M203.49,89.55c-1.25,0-2.36-.28-3.35-.83-.98-.55-1.76-1.31-2.32-2.28-.56-.97-.84-2.08-.84-3.32s.28-2.38,.84-3.34c.56-.96,1.33-1.71,2.32-2.26,.98-.54,2.1-.82,3.35-.82,1.07,0,2.04,.21,2.9,.62,.86,.42,1.54,1.04,2.04,1.87l-1.27,.86c-.43-.64-.97-1.11-1.61-1.42-.64-.3-1.34-.46-2.09-.46-.9,0-1.7,.2-2.42,.61s-1.29,.98-1.7,1.72c-.42,.74-.62,1.6-.62,2.59s.21,1.86,.62,2.59,.98,1.31,1.7,1.72,1.53,.61,2.42,.61c.75,0,1.45-.15,2.09-.46s1.18-.77,1.61-1.39l1.27,.86c-.5,.82-1.18,1.44-2.04,1.86-.86,.42-1.83,.64-2.9,.64Z"/><path class="cls-1" d="M209.94,78.24v-1.42h7.8v1.42h-7.8Zm5.95,11.3c-1.18,0-2.1-.32-2.74-.96s-.96-1.54-.96-2.71v-11.83h1.7v11.74c0,.74,.19,1.3,.56,1.7,.38,.4,.92,.6,1.62,.6,.75,0,1.38-.22,1.87-.65l.6,1.22c-.34,.3-.74,.53-1.21,.67-.47,.14-.96,.22-1.45,.22Z"/><path class="cls-1" d="M222.52,74.04c-.35,0-.65-.12-.89-.36s-.36-.53-.36-.86,.12-.62,.36-.85c.24-.23,.54-.35,.89-.35s.65,.11,.89,.34c.24,.22,.36,.5,.36,.84s-.12,.65-.35,.89c-.23,.24-.53,.36-.9,.36Zm-.86,15.38v-12.6h1.7v12.6h-1.7Z"/><path class="cls-1" d="M233.25,89.55c-1.23,0-2.33-.28-3.29-.83-.96-.55-1.72-1.32-2.28-2.29-.56-.98-.84-2.08-.84-3.31s.28-2.38,.84-3.34c.56-.96,1.32-1.71,2.28-2.26,.96-.54,2.05-.82,3.29-.82s2.36,.28,3.32,.83c.97,.55,1.73,1.3,2.28,2.26,.55,.95,.83,2.06,.83,3.32s-.28,2.36-.83,3.32c-.55,.97-1.32,1.73-2.29,2.28s-2.08,.83-3.31,.83Zm0-1.51c.91,0,1.72-.2,2.42-.61,.71-.41,1.26-.98,1.67-1.73,.41-.74,.61-1.6,.61-2.58s-.21-1.86-.61-2.59c-.41-.74-.96-1.31-1.67-1.72-.7-.41-1.5-.61-2.4-.61s-1.7,.2-2.4,.61c-.71,.41-1.26,.98-1.68,1.72-.42,.74-.62,1.6-.62,2.59s.21,1.84,.62,2.58c.42,.74,.97,1.32,1.67,1.73,.7,.41,1.49,.61,2.39,.61Z"/><path class="cls-1" d="M249.59,76.71c1.02,0,1.92,.2,2.7,.59s1.38,.99,1.82,1.79c.44,.8,.66,1.81,.66,3.02v7.32h-1.7v-7.15c0-1.33-.33-2.33-1-3.01-.66-.68-1.6-1.02-2.8-1.02-.9,0-1.68,.18-2.34,.54-.66,.36-1.18,.88-1.54,1.56-.36,.68-.54,1.5-.54,2.46v6.62h-1.7v-12.6h1.63v3.46l-.26-.65c.4-.91,1.04-1.63,1.92-2.15,.88-.52,1.93-.78,3.14-.78Z"/></g></g></g></svg>