<?xml version="1.0" encoding="UTF-8"?><svg id="Ebene_2" xmlns="http://www.w3.org/2000/svg" viewBox="0 0 379.45 128.19"><defs><style>.cls-1{fill:#e3ddcf;}.cls-2{fill:#643c9f;}</style></defs><g id="Ebene_1-2"><g><rect id="Rechteck_28" class="cls-2" width="379.45" height="128.19" rx="51.28" ry="51.28"/><g><path class="cls-1" d="M64,60.63v-21h2.46l9.42,15.87h-1.32l9.3-15.87h2.46l.03,21h-2.88l-.03-16.47h.69l-8.28,13.92h-1.38l-8.34-13.92h.75v16.47h-2.88Z"/><path class="cls-1" d="M96.88,60.81c-1.18,0-2.22-.2-3.1-.6-.89-.4-1.57-.96-2.05-1.67s-.72-1.51-.72-2.42,.21-1.64,.62-2.34c.41-.7,1.08-1.26,2.01-1.68,.93-.42,2.19-.63,3.77-.63h5.04v2.07h-4.92c-1.44,0-2.41,.24-2.91,.72-.5,.48-.75,1.06-.75,1.74,0,.78,.31,1.41,.93,1.88,.62,.47,1.48,.71,2.58,.71s2.02-.24,2.83-.72c.81-.48,1.4-1.18,1.76-2.1l.57,1.98c-.38,.94-1.05,1.68-2.01,2.24-.96,.55-2.17,.82-3.63,.82Zm5.22-.18v-3.36l-.15-.63v-5.73c0-1.22-.36-2.17-1.07-2.83s-1.77-1-3.19-1c-.94,0-1.86,.15-2.76,.46-.9,.31-1.66,.72-2.28,1.25l-1.2-2.16c.82-.66,1.8-1.17,2.95-1.52,1.15-.35,2.35-.52,3.62-.52,2.18,0,3.86,.53,5.04,1.59,1.18,1.06,1.77,2.68,1.77,4.86v9.6h-2.73Z"/><path class="cls-1" d="M118.66,44.58c1.3,0,2.44,.25,3.43,.75,.99,.5,1.77,1.26,2.33,2.28,.56,1.02,.84,2.31,.84,3.87v9.15h-2.88v-8.82c0-1.54-.38-2.7-1.12-3.48s-1.81-1.17-3.17-1.17c-1.02,0-1.91,.2-2.67,.6-.76,.4-1.35,.99-1.75,1.77-.41,.78-.62,1.75-.62,2.91v8.19h-2.88v-15.9h2.76v4.29l-.45-1.14c.52-1.04,1.32-1.85,2.4-2.43s2.34-.87,3.78-.87Z"/><path class="cls-1" d="M137.29,60.81c-1.36,0-2.56-.25-3.58-.75-1.03-.5-1.83-1.26-2.4-2.29-.57-1.03-.85-2.33-.85-3.88v-9.15h2.88v8.82c0,1.56,.38,2.73,1.12,3.51,.75,.78,1.8,1.17,3.17,1.17,1,0,1.87-.2,2.61-.61,.74-.41,1.31-1.01,1.71-1.8,.4-.79,.6-1.74,.6-2.86v-8.22h2.88v15.9h-2.73v-4.29l.45,1.14c-.52,1.06-1.3,1.88-2.34,2.46-1.04,.58-2.21,.87-3.51,.87Z"/><path class="cls-1" d="M157.99,60.81c-1.7,0-3.19-.35-4.48-1.05s-2.29-1.66-3-2.88c-.71-1.22-1.07-2.62-1.07-4.2s.35-2.98,1.04-4.2c.69-1.22,1.64-2.17,2.85-2.86,1.21-.69,2.57-1.04,4.1-1.04s2.9,.34,4.08,1.02c1.18,.68,2.1,1.64,2.78,2.87,.67,1.23,1,2.67,1,4.3,0,.12,0,.26-.02,.42-.01,.16-.03,.31-.04,.45h-13.53v-2.07h12.03l-1.17,.72c.02-1.02-.19-1.93-.63-2.73-.44-.8-1.05-1.42-1.82-1.88-.77-.45-1.67-.67-2.68-.67s-1.89,.23-2.67,.67c-.78,.45-1.39,1.08-1.83,1.89-.44,.81-.66,1.74-.66,2.77v.48c0,1.06,.24,2,.73,2.83,.49,.83,1.17,1.47,2.06,1.93,.88,.46,1.89,.69,3.03,.69,.94,0,1.79-.16,2.56-.48,.77-.32,1.44-.8,2.03-1.44l1.59,1.86c-.72,.84-1.62,1.48-2.69,1.92-1.07,.44-2.27,.66-3.58,.66Z"/><path class="cls-1" d="M169.27,60.63v-22.26h2.88v22.26h-2.88Z"/><path class="cls-1" d="M182.29,60.81c-1.18,0-2.22-.2-3.1-.6-.89-.4-1.57-.96-2.05-1.67s-.72-1.51-.72-2.42,.21-1.64,.62-2.34c.41-.7,1.08-1.26,2.01-1.68,.93-.42,2.19-.63,3.77-.63h5.04v2.07h-4.92c-1.44,0-2.41,.24-2.91,.72-.5,.48-.75,1.06-.75,1.74,0,.78,.31,1.41,.93,1.88,.62,.47,1.48,.71,2.58,.71s2.02-.24,2.83-.72c.81-.48,1.4-1.18,1.76-2.1l.57,1.98c-.38,.94-1.05,1.68-2.01,2.24-.96,.55-2.17,.82-3.63,.82Zm5.22-.18v-3.36l-.15-.63v-5.73c0-1.22-.36-2.17-1.07-2.83s-1.77-1-3.19-1c-.94,0-1.86,.15-2.76,.46-.9,.31-1.66,.72-2.28,1.25l-1.2-2.16c.82-.66,1.8-1.17,2.95-1.52,1.15-.35,2.35-.52,3.62-.52,2.18,0,3.86,.53,5.04,1.59,1.18,1.06,1.77,2.68,1.77,4.86v9.6h-2.73Z"/><path class="cls-1" d="M208.89,60.63l-7.02-21h3.09l6.45,19.38h-1.56l6.69-19.38h2.76l6.54,19.38h-1.5l6.54-19.38h2.85l-7.02,21h-3.15l-6.12-17.97h.81l-6.15,17.97h-3.21Z"/><path class="cls-1" d="M240.43,60.81c-1.18,0-2.21-.2-3.1-.6-.89-.4-1.58-.96-2.06-1.67-.48-.71-.72-1.51-.72-2.42s.21-1.64,.62-2.34c.41-.7,1.08-1.26,2.01-1.68,.93-.42,2.18-.63,3.76-.63h5.04v2.07h-4.92c-1.44,0-2.41,.24-2.91,.72-.5,.48-.75,1.06-.75,1.74,0,.78,.31,1.41,.93,1.88,.62,.47,1.48,.71,2.58,.71s2.02-.24,2.83-.72c.81-.48,1.39-1.18,1.75-2.1l.57,1.98c-.38,.94-1.05,1.68-2.01,2.24-.96,.55-2.17,.82-3.63,.82Zm5.22-.18v-3.36l-.15-.63v-5.73c0-1.22-.36-2.17-1.07-2.83s-1.78-1-3.19-1c-.94,0-1.86,.15-2.76,.46-.9,.31-1.66,.72-2.28,1.25l-1.2-2.16c.82-.66,1.8-1.17,2.96-1.52,1.15-.35,2.35-.52,3.61-.52,2.18,0,3.86,.53,5.04,1.59,1.18,1.06,1.77,2.68,1.77,4.86v9.6h-2.73Z"/><path class="cls-1" d="M253.72,60.63v-22.26h2.88v22.26h-2.88Z"/><path class="cls-1" d="M268.65,60.81c-1.54,0-2.92-.34-4.12-1.02s-2.17-1.63-2.87-2.85c-.7-1.22-1.05-2.64-1.05-4.26s.35-3.03,1.05-4.25c.7-1.21,1.66-2.15,2.87-2.83,1.21-.68,2.58-1.02,4.12-1.02,1.34,0,2.55,.3,3.63,.9,1.08,.6,1.95,1.5,2.6,2.7,.65,1.2,.97,2.7,.97,4.5s-.32,3.3-.95,4.5-1.48,2.11-2.56,2.71c-1.08,.61-2.31,.92-3.69,.92Zm.24-2.52c1,0,1.91-.23,2.71-.69,.81-.46,1.45-1.11,1.92-1.96,.47-.85,.71-1.83,.71-2.96s-.24-2.12-.71-2.96c-.47-.83-1.11-1.47-1.92-1.93-.81-.46-1.71-.69-2.71-.69s-1.93,.23-2.73,.69-1.44,1.11-1.92,1.93c-.48,.83-.72,1.82-.72,2.96s.24,2.11,.72,2.96c.48,.85,1.12,1.5,1.92,1.96,.8,.46,1.71,.69,2.73,.69Zm5.43,2.34v-4.29l.18-3.69-.3-3.69v-10.59h2.88v22.26h-2.76Z"/><path class="cls-1" d="M289.62,60.81c-1.7,0-3.19-.35-4.48-1.05s-2.29-1.66-3-2.88-1.07-2.62-1.07-4.2,.35-2.98,1.04-4.2c.69-1.22,1.64-2.17,2.85-2.86,1.21-.69,2.58-1.04,4.1-1.04s2.9,.34,4.08,1.02c1.18,.68,2.1,1.64,2.77,2.87,.67,1.23,1,2.67,1,4.3,0,.12,0,.26-.01,.42-.01,.16-.03,.31-.04,.45h-13.53v-2.07h12.03l-1.17,.72c.02-1.02-.19-1.93-.63-2.73-.44-.8-1.05-1.42-1.82-1.88-.77-.45-1.67-.67-2.68-.67s-1.89,.23-2.67,.67c-.78,.45-1.39,1.08-1.83,1.89-.44,.81-.66,1.74-.66,2.77v.48c0,1.06,.24,2,.74,2.83,.49,.83,1.17,1.47,2.05,1.93,.88,.46,1.89,.69,3.03,.69,.94,0,1.79-.16,2.56-.48,.77-.32,1.45-.8,2.03-1.44l1.59,1.86c-.72,.84-1.62,1.48-2.69,1.92-1.07,.44-2.26,.66-3.58,.66Z"/><path class="cls-1" d="M309.39,44.58c1.3,0,2.45,.25,3.44,.75,.99,.5,1.76,1.26,2.33,2.28,.56,1.02,.84,2.31,.84,3.87v9.15h-2.88v-8.82c0-1.54-.38-2.7-1.12-3.48s-1.81-1.17-3.17-1.17c-1.02,0-1.91,.2-2.67,.6-.76,.4-1.35,.99-1.76,1.77-.41,.78-.61,1.75-.61,2.91v8.19h-2.88v-15.9h2.76v4.29l-.45-1.14c.52-1.04,1.32-1.85,2.4-2.43,1.08-.58,2.34-.87,3.78-.87Z"/><path class="cls-1" d="M130.57,89.43v-16.8h1.46l7.68,13.1h-.77l7.61-13.1h1.46v16.8h-1.7v-14.14h.41l-7.01,12h-.84l-7.06-12h.46v14.14h-1.7Z"/><path class="cls-1" d="M156.68,89.55c-.94,0-1.76-.16-2.46-.47-.7-.31-1.23-.74-1.6-1.3-.37-.55-.55-1.19-.55-1.91,0-.66,.16-1.25,.47-1.79s.82-.97,1.54-1.3c.71-.33,1.67-.49,2.87-.49h4.34v1.27h-4.3c-1.22,0-2.06,.22-2.53,.65-.47,.43-.71,.97-.71,1.61,0,.72,.28,1.3,.84,1.73s1.34,.65,2.35,.65,1.79-.22,2.48-.66c.7-.44,1.2-1.08,1.52-1.91l.38,1.18c-.32,.83-.88,1.5-1.67,1.99s-1.79,.74-2.99,.74Zm4.34-.12v-2.78l-.07-.46v-4.66c0-1.07-.3-1.9-.9-2.47-.6-.58-1.49-.86-2.68-.86-.82,0-1.59,.14-2.33,.41-.74,.27-1.36,.63-1.87,1.08l-.77-1.27c.64-.54,1.41-.96,2.3-1.26,.9-.3,1.84-.44,2.83-.44,1.63,0,2.89,.4,3.78,1.21,.89,.81,1.33,2.04,1.33,3.68v7.82h-1.63Z"/><path class="cls-1" d="M167.29,89.43v-12.6h1.63v3.43l-.17-.6c.35-.96,.94-1.69,1.78-2.2,.83-.5,1.86-.76,3.1-.76v1.66c-.06,0-.13,0-.19-.01-.06,0-.13-.01-.19-.01-1.33,0-2.37,.4-3.12,1.21-.75,.81-1.13,1.96-1.13,3.44v6.43h-1.7Z"/><path class="cls-1" d="M176.72,89.43v-17.81h1.7v17.81h-1.7Zm1.34-3.26l.05-2.18,7.85-7.15h2.09l-5.54,5.3-.96,.82-3.48,3.22Zm8.42,3.26l-5.26-6.55,1.1-1.32,6.24,7.87h-2.09Z"/><path class="cls-1" d="M195.99,89.55c-1.31,0-2.46-.28-3.46-.83-.99-.55-1.77-1.31-2.33-2.28-.56-.97-.84-2.08-.84-3.32s.27-2.35,.8-3.31c.54-.96,1.27-1.72,2.21-2.27,.94-.55,1.99-.83,3.16-.83s2.24,.27,3.16,.8c.92,.54,1.64,1.29,2.17,2.26,.53,.97,.79,2.08,.79,3.35,0,.08,0,.16-.01,.25,0,.09-.01,.18-.01,.28h-10.97v-1.27h10.06l-.67,.5c0-.91-.2-1.72-.59-2.44-.39-.71-.92-1.27-1.6-1.67-.67-.4-1.45-.6-2.33-.6s-1.64,.2-2.33,.6c-.69,.4-1.22,.96-1.61,1.68-.38,.72-.58,1.54-.58,2.47v.26c0,.96,.21,1.8,.64,2.53,.42,.73,1.02,1.3,1.78,1.7s1.63,.61,2.6,.61c.77,0,1.48-.14,2.15-.41s1.24-.69,1.72-1.25l.96,1.1c-.56,.67-1.26,1.18-2.1,1.54-.84,.35-1.76,.53-2.77,.53Z"/><path class="cls-1" d="M203.16,78.24v-1.42h7.8v1.42h-7.8Zm5.95,11.3c-1.18,0-2.1-.32-2.74-.96-.64-.64-.96-1.54-.96-2.71v-11.83h1.7v11.74c0,.74,.19,1.3,.56,1.7,.38,.4,.92,.6,1.62,.6,.75,0,1.38-.22,1.87-.65l.6,1.22c-.34,.3-.74,.53-1.21,.67-.47,.14-.96,.22-1.45,.22Z"/><path class="cls-1" d="M215.74,74.04c-.35,0-.65-.12-.89-.36-.24-.24-.36-.53-.36-.86s.12-.62,.36-.85c.24-.23,.54-.35,.89-.35s.65,.11,.89,.34c.24,.22,.36,.5,.36,.84s-.12,.65-.35,.89c-.23,.24-.53,.36-.9,.36Zm-.86,15.38v-12.6h1.7v12.6h-1.7Z"/><path class="cls-1" d="M227.76,76.71c1.02,0,1.92,.2,2.7,.59,.78,.39,1.38,.99,1.82,1.79,.44,.8,.66,1.81,.66,3.02v7.32h-1.7v-7.15c0-1.33-.33-2.33-1-3.01-.66-.68-1.6-1.02-2.8-1.02-.9,0-1.68,.18-2.34,.54-.66,.36-1.18,.88-1.54,1.56-.36,.68-.54,1.5-.54,2.46v6.62h-1.7v-12.6h1.63v3.46l-.26-.65c.4-.91,1.04-1.63,1.92-2.15,.88-.52,1.93-.78,3.14-.78Z"/><path class="cls-1" d="M242.62,88.94c-1.2,0-2.28-.26-3.24-.78s-1.72-1.24-2.27-2.17c-.55-.93-.83-1.99-.83-3.19s.28-2.26,.83-3.18c.55-.92,1.31-1.64,2.27-2.15,.96-.51,2.04-.77,3.24-.77,1.12,0,2.13,.23,3.02,.7,.9,.46,1.61,1.15,2.14,2.06,.53,.91,.79,2.02,.79,3.34s-.26,2.42-.79,3.34c-.53,.91-1.24,1.61-2.14,2.09-.9,.48-1.9,.72-3.02,.72Zm.31,5.26c-1.15,0-2.26-.17-3.31-.5-1.06-.34-1.91-.82-2.57-1.44l.86-1.3c.59,.53,1.32,.95,2.2,1.26,.87,.31,1.8,.47,2.77,.47,1.6,0,2.78-.37,3.53-1.12,.75-.74,1.13-1.9,1.13-3.47v-3.14l.24-2.16-.17-2.16v-3.82h1.63v11.06c0,2.18-.53,3.77-1.6,4.79-1.06,1.02-2.64,1.52-4.72,1.52Zm-.14-6.77c.93,0,1.75-.2,2.47-.59,.72-.39,1.29-.94,1.7-1.63s.62-1.5,.62-2.41-.21-1.71-.62-2.4c-.42-.69-.98-1.23-1.7-1.62-.72-.39-1.54-.59-2.47-.59s-1.73,.2-2.46,.59c-.73,.39-1.3,.93-1.7,1.62-.41,.69-.61,1.49-.61,2.4s.2,1.72,.61,2.41c.41,.7,.98,1.24,1.7,1.63,.73,.39,1.55,.59,2.46,.59Z"/></g></g></g></svg>