<?xml version="1.0" encoding="utf-8"?>
<!-- Generator: Adobe Illustrator 26.3.1, SVG Export Plug-In . SVG Version: 6.00 Build 0)  -->
<svg version="1.1" id="Ebene_1" xmlns="http://www.w3.org/2000/svg" xmlns:xlink="http://www.w3.org/1999/xlink" x="0px" y="0px"
	 viewBox="0 0 443.1 272.4" style="enable-background:new 0 0 443.1 272.4;" xml:space="preserve">
<style type="text/css">
	.st0{fill:#C1BCB2;}
	.st1{fill:#2C8C57;}
	.st2{fill:#D1CABA;}
</style>
<g id="Strings_Back">
	<path class="st0" d="M293.2,22.5C271.2,9.2,245,5.9,219.8,8.2c-14.4,1.3-27.8,2.5-41.7,7.7c-20.8,7.8-42.6,22-54.1,41.8
		c9.6,0.8,19.9,1,29.4,2.9h1.2c4.3-9,9.6-16,19.1-21.8c13.7-8.5,30.3-15.8,46.2-16.7c25.7-1.6,53.4,9.8,68.8,32.3
		c11.6,16.8,14.9,40.6,18.3,60.5c1.5,8.4,2.7,16.9,3.7,25.4c11.2,1.7,22.4,3.1,33.7,4C342.9,97.3,335.9,48.2,293.2,22.5L293.2,22.5z
		"/>
</g>
<g id="Base">
	<path class="st1" d="M220.5,61c-12.9,0.1-25.9-0.2-38.8-1c-23.2-1.4-46.5-2.6-69.6-4.4c-27.3-2.2-52.9-3.3-75.2,15.2
		C17.8,86.5,4.8,110.3,2,134.9c-4.6,39.4-3.9,94.4,32.3,119.7c19.9,13.9,43.4,12.2,66.4,13.1c21.6,0.8,43.2,1.5,64.7,2.1
		c47.3,1.3,94.7,2.2,142,1.7c22-0.2,43.9-0.8,65.8-2.4c25.7-1.9,48.1-18.3,57.4-42.3c8-20.5,14.8-47.8,11.6-76.9
		c-0.1-1-0.2-2-0.3-3.1c-1.7-24.6-8.2-51.2-24.1-70.7c-14-17.1-34.7-22.2-55.9-22c-23.8,0.3-47.9,3-71.7,4.2
		C267.1,59.6,243.8,60.9,220.5,61L220.5,61z"/>
</g>
<g id="Strings">
	<path class="st2" d="M135.4,270.5c0.5,0,1-0.2,1.3-0.6s0.3-0.9,0.3-1.3c1.2-64-6.1-129.1,8.3-191.5c2.9-12.4,6.7-24.9,14.4-35
		c10.5-13.7,27.2-21.5,44.2-24.2c12.3-2,24.8-1.5,37,0.1c5.5,0.7,10.9,1.2,15.9,3.4c4.6,2,9.1,3.7,13.4,6.3
		c7.1,4.4,13.3,10.1,18.1,17c11.6,16.8,14.9,40.6,18.3,60.5c9.4,54,9.5,109.6,2.5,163.8c-0.2,1.8,1.2,3.4,3,3.4l29.5-0.4
		c1.6,0,2.9-1.3,2.9-2.9c0.9-31.9,0.9-63.8,0.2-95.6c-0.4-17-0.3-33.9-1.2-50.9c-1-17.2-3-34.6-8-51.2s-12.4-31.2-24-43.3
		c-7.1-7.4-15.4-13.6-24.6-18c-10-4.8-20.5-7-31.4-8.2c-23.7-2.6-48.6-3.1-71.8,3.3c-4.2,1.2-8.5,2.5-12.6,4.2
		c-9.4,3.7-18.9,8.5-26.9,14.8c-7.4,5.8-13.5,13.8-18.2,22c-2.5,4.4-4.7,9-6.5,13.7c-6.5,16.8-8.9,34.8-11,52.7
		c-5.9,50.2-9.8,100.7-7.2,151.2c0.1,1.8,0.3,3.7,1.6,4.8c1.1,0.9,2.6,1,4,1l27.9,0.9C134.9,270.6,135.2,270.6,135.4,270.5
		L135.4,270.5z"/>
</g>
</svg>
