<?xml version="1.0" encoding="utf-8"?>
<!-- Generator: Adobe Illustrator 26.3.1, SVG Export Plug-In . SVG Version: 6.00 Build 0)  -->
<svg version="1.1" id="Ebene_1" xmlns="http://www.w3.org/2000/svg" xmlns:xlink="http://www.w3.org/1999/xlink" x="0px" y="0px"
	 viewBox="0 0 71.5 71.5" style="enable-background:new 0 0 71.5 71.5;" xml:space="preserve">
<style type="text/css">
	.st0{enable-background:new    ;}
	.st1{fill:#E3DDCF;}
</style>
<g class="st0">
	<path class="st1" d="M8,70l6-1.5v-64L8,3V1.5h9c3.9,0,7,1.3,9.3,3.8c0.9,1,1.6,2.2,2.2,3.7c0.9-1.7,2-3.2,3.3-4.5
		c3-3,6.7-4.5,11.2-4.5c3.9,0,7.4,1,10.5,3s5.5,5,7.3,9s2.7,8.8,2.7,14.5c0,8.5-2,15.1-6,19.7s-9.3,6.8-16,6.8c-3.2,0-6-0.7-8.4-2
		c-1-0.5-2-1.1-3.1-2v19.5l6,1.5v1.5H8V70z M44.1,45c1.6-3.3,2.4-9.5,2.4-18.5c0-8.6-0.7-14.6-2.1-18c-1.4-3.4-3.2-5-5.4-5
		c-2.5,0-4.8,1.3-6.8,4c-0.9,1.1-1.6,2.5-2.2,4V46c0.9,0.9,1.7,1.6,2.2,2c1.8,1.3,3.6,2,5.3,2C40.4,50,42.6,48.3,44.1,45z"/>
</g>
</svg>
