<?xml version="1.0" encoding="utf-8"?>
<!-- Generator: Adobe Illustrator 26.3.1, SVG Export Plug-In . SVG Version: 6.00 Build 0)  -->
<svg version="1.1" id="Ebene_1" xmlns="http://www.w3.org/2000/svg" xmlns:xlink="http://www.w3.org/1999/xlink" x="0px" y="0px"
	 viewBox="0 0 336.1 122.8" style="enable-background:new 0 0 336.1 122.8;" xml:space="preserve">
<style type="text/css">
	.st0{enable-background:new    ;}
	.st1{fill:#E3DDCF;}
</style>
<g>
	<g class="st0">
		<path class="st1" d="M0,88.5L6,87V23l-6-1.5V20h9c3.9,0,7,1.3,9.3,3.8c0.9,1,1.6,2.2,2.2,3.7c0.9-1.7,2-3.2,3.3-4.5
			c3-3,6.7-4.5,11.2-4.5c3.9,0,7.4,1,10.5,3s5.5,5,7.3,9s2.7,8.8,2.7,14.5c0,8.5-2,15.1-6,19.7s-9.3,6.8-16,6.8c-3.2,0-6-0.7-8.4-2
			c-1-0.5-2-1.1-3.1-2V87l6,1.5V90H0V88.5z M36.1,63.5c1.6-3.3,2.4-9.5,2.4-18.5c0-8.6-0.7-14.6-2.1-18c-1.4-3.4-3.2-5-5.4-5
			c-2.5,0-4.8,1.3-6.8,4c-0.9,1.1-1.6,2.5-2.2,4v34.5c0.9,0.9,1.7,1.6,2.2,2c1.8,1.3,3.6,2,5.3,2C32.4,68.5,34.6,66.8,36.1,63.5z"/>
	</g>
	<g class="st0">
		<path class="st1" d="M66.5,67.7c-3.2-2.5-4.8-5.8-4.8-9.7c0-2.6,0.6-5.2,1.7-7.7c0.5-1.2,1.1-2.3,1.8-3.3c2.7-0.7,5.7-1.3,8.9-1.8
			c7.2-1.2,13.6-1.9,19.1-2.2v-3c0-7.4-0.9-12.5-2.7-15.3c-1.8-2.8-4.6-4.2-8.3-4.2c-1.4,0-2.6,0.2-3.6,0.5l-1.4,0.5v15l-1.3,0.3
			c-1.1,0.1-2,0.2-2.7,0.2c-2.3,0-4.1-0.7-5.5-2c-1.4-1.4-2-3.2-2-5.5c0-3.1,1.5-5.7,4.6-7.8s7.7-3.2,13.9-3.2
			c5.2,0,9.7,0.9,13.5,2.8c3.8,1.8,6.6,4.4,8.6,7.6s3,7,3,11.2v27l6,1.5V70h-9c-4,0-7.1-1.2-9.3-3.7c-0.9-1-1.7-2.3-2.2-3.8
			c-0.9,1.7-2,3.2-3.3,4.5c-3,3-6.7,4.5-11.2,4.5C74.2,71.5,69.7,70.2,66.5,67.7z M90.9,64c0.7-1,1.5-2.3,2.3-4V45.5
			c-3.1,0-6,0.2-8.8,0.5c-2.1,0.3-3.5,0.4-4.2,0.5c-0.3,0.7-0.7,1.7-1,3c-0.7,2.5-1,5-1,7.5c0,3.7,0.6,6.5,1.7,8.3s2.6,2.7,4.3,2.7
			C86.6,68,88.9,66.7,90.9,64z"/>
	</g>
	<g class="st0">
		<path class="st1" d="M125,64.5c-4.7-4.7-7.1-11.2-7.1-19.5s2.4-14.8,7.1-19.5s11.4-7,19.9-7c6.1,0,10.8,1.1,13.9,3.2
			c3.1,2.1,4.6,4.7,4.6,7.8c0,2.3-0.7,4.1-2,5.5c-1.4,1.4-3.2,2-5.5,2c-0.9,0-1.9-0.1-2.8-0.2l-1.2-0.3v-15l-1.4-0.5
			c-1-0.3-2.2-0.5-3.6-0.5c-3.8,0-6.8,1.8-8.9,5.4c-2.1,3.6-3.1,10-3.1,19.1c0,8.9,1,15.1,3.1,18.7s5.1,5.3,8.9,5.3
			c2.6,0,5-0.6,7.2-1.8c2.2-1.2,4-2.9,5.3-4.9s2-4.1,2-6.2h2.5c0,2.7-0.8,5.2-2.4,7.6c-1.6,2.4-3.8,4.3-6.7,5.8
			c-2.9,1.4-6.2,2.2-9.9,2.2C136.3,71.5,129.7,69.2,125,64.5z"/>
	</g>
	<g class="st0">
		<path class="st1" d="M167.3,68.5l6-1.5V3l-6-1.5V0h13c6,0,9,3,9,9v35l18.5-19.5l-7.5-3V20h19v1.5l-8,3l-11.5,12L219.3,67l5,1.5V70
			h-13c-3.2,0-5.8-0.7-7.8-2.1s-3.9-3.5-5.7-6.4L189.3,48v19l6,1.5V70h-28V68.5z"/>
	</g>
	<g class="st0">
		<path class="st1" d="M240.3,68.8c-1.6-0.9-2.9-1.8-3.9-2.8c-1.1,1.5-2.2,2.6-3.5,3.4c-0.6,0.4-1.3,0.8-2,1.1h-2.5v-17h4
			c0.9,2.8,2.1,5.4,3.8,7.8c3.5,5.1,7.9,7.7,13.2,7.7c2.8,0,4.9-0.7,6.4-2c1.4-1.4,2.1-3.4,2.1-6c0-2.2-1-4-3-5.5s-5-3.4-9.2-5.5
			c-3.6-1.8-6.5-3.4-8.8-4.9c-2.2-1.4-4.1-3.2-5.7-5.4c-1.6-2.2-2.4-4.7-2.4-7.7c0-4,1.7-7.2,5.2-9.8c3.4-2.5,8.7-3.8,15.8-3.8
			c3.5,0,6.8,0.9,9.8,2.8c1.5,0.9,2.7,1.8,3.8,2.7c0.9-1.2,2-2.3,3.5-3.4c1.1-0.7,1.8-1,2-1.1h2.5v17h-4c-1-2.9-2.2-5.4-3.7-7.7
			c-3.3-5.2-7.3-7.8-11.9-7.8c-1.8,0-3.3,0.7-4.6,2s-1.9,3-1.9,5c0,2.5,1.1,4.7,3.2,6.3c2.1,1.7,5.4,3.7,9.7,5.9
			c3.5,1.8,6.3,3.4,8.5,4.8c2.1,1.4,3.9,3,5.4,5s2.2,4.3,2.2,7c0,9.7-7.7,14.5-23,14.5C247.3,71.5,243.6,70.6,240.3,68.8z"/>
	</g>
	<g class="st0">
		<path class="st1" d="M286.1,89.1c-1.7-1.6-2.5-3.8-2.5-6.6c0-2.5,0.7-4.5,2-5.9c1.4-1.4,3.2-2.1,5.5-2.1c0.5,0,1.1,0,1.6,0.2
			c0.5,0.1,0.9,0.1,1.1,0.1l1.3,0.2v13.5c1.9-0.3,3.6-1.4,5.1-3.2c1.5-1.8,3.1-4.9,4.9-9.3l2-5l-26-48l-5-1.5V20h12.5
			c3.5,0,6.2,0.7,8.2,2.2c2,1.4,3.8,3.5,5.2,6.3l12.5,23.1L325,24.5l-7.5-3V20H336v1.5l-8,3L308,76c-2.1,5.5-4.4,9.4-6.8,11.8
			s-5.1,3.7-8.2,3.7C290.1,91.5,287.7,90.7,286.1,89.1z"/>
	</g>
	<path class="st1" d="M5.1,122.7v-13.4H0v-0.6h10.9v0.6H5.8v13.4H5.1z"/>
	<path class="st1" d="M14,122.7h-0.7v-14H14V122.7z M23.9,115.9h-10v-0.6H24L23.9,115.9L23.9,115.9z M23.8,108.7h0.7v14h-0.7V108.7z
		"/>
	<path class="st1" d="M29.6,122.1h8.8v0.6h-9.5v-14h9.2v0.6h-8.5C29.6,109.3,29.6,122.1,29.6,122.1z M29.5,115.3h7.7v0.6h-7.7V115.3
		z"/>
	<path class="st1" d="M47.3,122.7v-14H53c1.2-0.1,2.4,0.2,3.5,0.9c0.9,0.6,1.3,1.6,1.3,2.7c0.1,1.4-0.8,2.6-2.1,3.1
		c-0.7,0.3-1.5,0.4-2.2,0.4l0.3-0.3c0.9,0,1.8,0.1,2.6,0.4c0.6,0.2,1.2,0.7,1.6,1.2c0.4,0.6,0.6,1.3,0.5,2c0.1,1.1-0.4,2.1-1.3,2.7
		c-1.1,0.7-2.5,1.1-3.8,1L47.3,122.7z M48,122.1h5.4c1.1,0.1,2.3-0.2,3.3-0.8c1.3-1,1.5-2.9,0.5-4.2c-0.1-0.2-0.3-0.4-0.5-0.5
		c-1-0.6-2.1-0.8-3.3-0.8h-5.6v-0.6h5.1c1.1,0.1,2.1-0.2,3-0.8c1.2-1,1.4-2.8,0.4-4.1c-0.1-0.2-0.3-0.3-0.4-0.4
		c-0.9-0.6-1.9-0.8-3-0.8h-5L48,122.1z"/>
	<path class="st1" d="M59.7,122.7l6.5-14h0.7l6.5,14h-0.7l-6.3-13.5h0.3l-6.2,13.5H59.7z M62,118.6l0.3-0.6h8.6l0.3,0.6H62z"/>
	<path class="st1" d="M81.2,122.8c-1,0-2-0.2-2.9-0.5s-1.7-0.8-2.3-1.5c-0.7-0.6-1.2-1.4-1.5-2.2c-0.7-1.8-0.7-3.8,0-5.6
		c0.4-0.8,0.9-1.6,1.5-2.2c0.7-0.6,1.5-1.1,2.4-1.5s1.9-0.5,2.9-0.5c0.9,0,1.9,0.1,2.7,0.5c0.8,0.3,1.6,0.8,2.2,1.4l-0.4,0.5
		c-0.6-0.6-1.3-1-2.1-1.3s-1.6-0.4-2.4-0.4c-0.9,0-1.8,0.2-2.6,0.5c-0.8,0.3-1.5,0.8-2.1,1.4s-1.1,1.2-1.4,2c-0.7,1.6-0.7,3.5,0,5.1
		c0.3,0.8,0.8,1.4,1.4,2s1.3,1.1,2.1,1.4c0.8,0.3,1.7,0.5,2.6,0.5c0.8,0,1.6-0.1,2.4-0.4s1.5-0.7,2.1-1.3l0.4,0.5
		c-0.6,0.6-1.4,1.1-2.2,1.4C83.1,122.6,82.2,122.8,81.2,122.8z M85.5,121v-5.1h0.6v5.2L85.5,121z"/>
	<path class="st1" d="M96.6,122.7h-0.7v-14h9.2v0.6h-8.5V122.7z M96.5,115.7h7.7v0.6h-7.7V115.7z"/>
	<path class="st1" d="M114,122.8c-1,0-1.9-0.2-2.9-0.5c-0.9-0.3-1.6-0.8-2.3-1.5c-0.7-0.6-1.2-1.4-1.5-2.2c-0.7-1.8-0.7-3.8,0-5.6
		c0.4-0.8,0.9-1.6,1.5-2.2c0.7-0.6,1.4-1.1,2.3-1.5c1.8-0.7,3.9-0.7,5.7,0c0.9,0.3,1.6,0.8,2.3,1.5c0.6,0.6,1.2,1.4,1.5,2.2
		c0.7,1.8,0.7,3.8,0,5.6c-0.4,0.8-0.9,1.6-1.5,2.2c-0.7,0.6-1.4,1.2-2.3,1.5C115.9,122.6,114.9,122.8,114,122.8z M114,122.2
		c0.9,0,1.8-0.2,2.6-0.5s1.5-0.8,2.1-1.4s1.1-1.3,1.4-2.1c0.7-1.7,0.7-3.5,0-5.1c-0.3-0.8-0.8-1.5-1.4-2.1s-1.3-1.1-2.1-1.4
		c-1.7-0.6-3.5-0.6-5.2,0c-0.8,0.3-1.5,0.8-2.1,1.4s-1.1,1.3-1.4,2.1c-0.6,1.6-0.6,3.5,0,5.1c0.3,0.8,0.8,1.5,1.4,2.1
		s1.3,1.1,2.1,1.4C112.2,122.1,113.1,122.2,114,122.2L114,122.2z"/>
	<path class="st1" d="M124.5,122.7v-14h4.9c1,0,2.1,0.2,3,0.6c0.8,0.3,1.4,0.9,1.9,1.6c0.9,1.5,0.9,3.5,0,5
		c-0.5,0.7-1.1,1.3-1.9,1.6c-0.9,0.4-2,0.6-3,0.6h-4.5l0.3-0.3v5L124.5,122.7z M125.2,117.7l-0.3-0.3h4.5c1.3,0.1,2.6-0.3,3.6-1.1
		c1.7-1.6,1.7-4.2,0.1-5.9l-0.1-0.1c-1-0.7-2.3-1.1-3.6-1h-4.5l0.3-0.3V117.7z M134.4,122.7l-3.6-5.1h0.8l3.7,5.1H134.4z"/>
	<path class="st1" d="M144.6,122.1h8.8v0.6h-9.5v-14h9.2v0.6h-8.5V122.1z M144.5,115.3h7.7v0.6h-7.7V115.3z"/>
	<path class="st1" d="M161.4,122.7l-6.3-14h0.8l6.1,13.5h-0.4l6.1-13.5h0.7l-6.3,14H161.4z"/>
	<path class="st1" d="M171.4,122.1h8.8v0.6h-9.5v-14h9.2v0.6h-8.5V122.1z M171.3,115.3h7.7v0.6h-7.7V115.3z"/>
	<path class="st1" d="M183.2,122.7v-14h4.9c1,0,2.1,0.2,3,0.6c0.8,0.3,1.4,0.9,1.9,1.6c0.9,1.5,0.9,3.5,0,5
		c-0.5,0.7-1.1,1.3-1.9,1.6c-0.9,0.4-2,0.6-3,0.6h-4.5l0.3-0.3v5L183.2,122.7z M183.9,117.7l-0.3-0.3h4.5c1.3,0.1,2.6-0.3,3.6-1.1
		c1.7-1.6,1.7-4.2,0.1-5.9l-0.1-0.1c-1-0.7-2.3-1.1-3.6-1h-4.5l0.3-0.3V117.7z M193,122.7l-3.6-5.1h0.8l3.7,5.1H193z"/>
	<path class="st1" d="M200.3,122.7v-5l0.2,0.5l-5.8-9.5h0.7l5.4,8.8h-0.4l5.5-8.8h0.7l-5.8,9.5l0.2-0.5v5H200.3z"/>
	<path class="st1" d="M214.2,122.8c-1,0-1.9-0.2-2.9-0.5c-0.9-0.3-1.6-0.8-2.3-1.5c-0.7-0.6-1.2-1.4-1.5-2.2c-0.7-1.8-0.7-3.8,0-5.6
		c0.3-0.8,0.9-1.6,1.5-2.2c0.7-0.6,1.4-1.2,2.3-1.5c1.8-0.7,3.9-0.7,5.7,0c0.9,0.3,1.6,0.8,2.3,1.5c2.8,2.8,2.8,7.3,0,10.1
		c-0.7,0.6-1.4,1.2-2.3,1.5C216.1,122.6,215.1,122.8,214.2,122.8z M214.2,122.2c0.9,0,1.8-0.2,2.6-0.5s1.5-0.8,2.1-1.4
		s1.1-1.3,1.4-2.1c0.7-1.7,0.7-3.5,0-5.1c-0.3-0.8-0.8-1.5-1.4-2.1s-1.3-1.1-2.1-1.4c-1.7-0.6-3.5-0.6-5.2,0
		c-0.8,0.3-1.5,0.8-2.1,1.4s-1.1,1.3-1.4,2.1c-0.6,1.6-0.6,3.5,0,5.1c0.3,0.8,0.8,1.5,1.4,2.1s1.3,1.1,2.1,1.4
		C212.4,122,213.3,122.2,214.2,122.2L214.2,122.2z"/>
	<path class="st1" d="M224.7,122.7v-14h0.6l10.3,13.2h-0.3v-13.2h0.7v14h-0.6l-10.3-13.2h0.3v13.2H224.7z"/>
	<path class="st1" d="M241,122.1h8.8v0.6h-9.5v-14h9.2v0.6H241V122.1z M240.9,115.3h7.7v0.6h-7.7V115.3z"/>
</g>
</svg>
