<?xml version="1.0" encoding="UTF-8"?><svg id="Ebene_2" xmlns="http://www.w3.org/2000/svg" viewBox="0 0 283.46 283.46"><defs><style>.cls-1{isolation:isolate;}.cls-2{fill:#e3ddcf;}.cls-3{fill:#643c9f;}</style></defs><g id="Ebene_1-2"><g><path id="Rechteck_18" class="cls-3" d="M85.04,0h113.39c46.94,0,85.04,38.04,85.04,85.04v113.39c0,46.94-38.04,85.04-85.04,85.04H85.04C38.1,283.46,0,245.42,0,198.43V85.04C0,38.1,38.04,0,85.04,0Z"/><g><path class="cls-2" d="M141.69,46.32h.05c16.15,0,31.27,6.24,42.58,17.56,11.22,11.27,17.42,26.34,17.42,42.44s-6.24,31.27-17.56,42.49c-11.22,11.17-26.29,17.42-42.39,17.51-16.2-.14-31.31-6.38-42.58-17.7-11.27-11.27-17.46-26.29-17.42-42.35,0-16.1,6.24-31.27,17.51-42.49,11.31-11.31,26.34-17.46,42.39-17.46m-8.54,29.72c-.05,.42-.05,.89-.09,1.31-1.13,.33-2.21,.8-3.15,1.22l-.28,.09c-6.2,2.63-11.92,10.14-10.75,18.17,.42,3.1,1.46,5.63,3.05,7.84,2.49,3.38,5.82,5.16,8.4,6.29,3.1,1.41,6.24,2.3,9.34,3.15,1.17,.33,2.44,.66,3.62,.99,1.78,.56,3.71,1.22,5.4,2.21,.14,.05,.19,.14,.23,.19-.09,.09-.23,.23-.42,.33-1.78,.85-3.57,1.22-5.59,1.22-1.27,0-2.63-.19-4.08-.52-1.6-.38-3.24-.89-4.79-1.36-1.6-.47-3.19-.94-4.84-1.36h0c-.7-.19-1.41-.28-2.16-.28-4.23,0-7.7,3.15-8.17,7.46h0c-.47,4.08,1.83,7.84,5.68,9.2,1.17,.47,2.3,.75,3.43,1.03,.47,.14,.89,.23,1.27,.33,1.27,.33,2.58,.75,3.8,1.08v1.6c.05,1.6,.33,4.04,2.21,6.01,1.69,1.78,3.8,2.77,6.15,2.77,.85,0,1.64-.14,2.49-.33,3.47-.94,5.73-3.57,6.24-7.23h0c.09-.75,.14-1.41,.19-2.11,1.13-.28,2.35-.52,3.57-.94,7.79-2.54,13.1-10.42,12.39-18.36-.52-5.54-3.19-10-7.93-13.19-3.94-2.63-8.17-3.94-12.35-5.21-.94-.33-1.92-.61-2.86-.94h-.09c-.61-.19-1.17-.33-1.69-.42-.56-.14-1.13-.28-1.5-.42-1.03-.47-2.07-.94-3-1.41,.05,0,.05-.05,.05-.05h0c1.88-.89,3.8-1.31,5.82-1.31,1.22,0,2.54,.19,3.8,.47,.47,.14,.99,.28,1.5,.38,1.6,.42,3.29,.89,5.07,1.13h0c.38,.05,.8,.09,1.22,.09,3.43,0,6.38-2.21,7.75-5.73h0c1.22-3.29,.05-7.37-2.72-9.72-1.6-1.31-3.33-1.69-4.6-2.02-.28-.05-.52-.09-.75-.19-1.27-.33-2.58-.61-3.8-.89-.05-.85-.09-1.69-.28-2.58-.8-3.8-4.23-6.62-8.36-6.62-1.6,0-3.19,.47-4.6,1.31-2.35,1.6-3.66,3.99-3.8,7.32m8.54-33.05c-34.98,0-63.15,27.98-63.19,63.24-.05,35.02,27.93,63.1,63.24,63.38,34.98-.23,63.24-27.98,63.24-63.29,.05-34.98-27.93-63.24-63.24-63.29t-.05-.05h0Zm1.22,79.44c2.35,0,4.74-.47,7-1.55,1.17-.56,2.58-1.92,2.3-3.66-.19-1.17-.85-1.97-1.78-2.58-1.92-1.17-4.04-1.92-6.15-2.63-4.23-1.27-8.54-2.21-12.58-4.04-2.77-1.27-5.31-2.82-7.14-5.31-1.41-1.92-2.11-4.04-2.44-6.34-.94-6.43,3.8-12.58,8.78-14.69,1.69-.75,3.43-1.5,5.4-1.74,0-1.27-.05-2.49,.09-3.66,.05-1.92,.61-3.57,2.35-4.69,.89-.56,1.88-.85,2.86-.85,2.39,0,4.65,1.6,5.21,4.18,.28,1.27,.19,2.63,.23,3.94,0,.52,.19,.75,.7,.85,1.88,.33,3.71,.66,5.54,1.13,1.41,.33,2.86,.47,4.08,1.55,1.69,1.41,2.49,4.04,1.74,6.06-.85,2.21-2.58,3.62-4.65,3.62-.23,0-.47-.05-.75-.05-2.11-.33-4.18-.94-6.24-1.5-1.55-.38-3.1-.61-4.65-.61-2.49,0-4.88,.52-7.28,1.64-.99,.47-1.69,1.22-2.21,2.21-.66,1.13-.56,2.21,.56,2.86,1.55,.94,3.1,1.69,4.74,2.39,1.08,.47,2.3,.61,3.47,.94,4.88,1.6,10,2.82,14.37,5.73,3.8,2.54,6.06,6.1,6.48,10.75,.61,6.62-4.08,12.96-10.14,14.93-1.69,.56-3.43,.89-5.16,1.27-.47,.09-.61,.28-.61,.75,0,1.27,.05,2.54-.14,3.76-.33,2.3-1.64,3.9-3.9,4.51-.52,.19-1.03,.23-1.55,.23-1.41,0-2.72-.61-3.8-1.74-.99-1.03-1.27-2.39-1.31-3.8v-3.99c-2.11-.61-4.13-1.13-6.2-1.74-1.5-.42-3-.75-4.46-1.31-2.39-.89-3.9-3.1-3.57-5.82,.33-2.68,2.3-4.6,4.88-4.6,.42,0,.89,.05,1.36,.19,3.24,.85,6.43,1.88,9.72,2.72,1.6,.47,3.24,.7,4.84,.7h0Z"/><path class="cls-2" d="M141.74,170.08c-17.2-.14-33.26-6.81-45.21-18.8-11.95-11.98-18.52-27.98-18.5-45.05,.02-17.15,6.64-33.2,18.64-45.17,11.97-11.95,27.96-18.54,45.03-18.54,.09,0,.16,.02,.23,.05,17.1,.07,33.09,6.7,45.03,18.68,11.95,12,18.52,28,18.5,45.07,0,17.14-6.62,33.17-18.64,45.13-11.96,11.9-27.96,18.51-45.06,18.63Zm-.47-126.62c-34.35,.23-62.25,28.3-62.3,62.77-.05,35,27.53,62.63,62.77,62.91,35.19-.24,62.77-27.83,62.77-62.82,.02-16.82-6.45-32.59-18.23-44.41-11.8-11.85-27.62-18.38-44.54-18.41h-.47v-.05Zm.42,0h0v0Zm.09,123.33c-16.37-.14-31.6-6.48-42.92-17.84-11.37-11.37-17.6-26.52-17.55-42.68,0-16.28,6.27-31.49,17.65-42.82,11.35-11.35,26.52-17.6,42.73-17.6h.05c16.26,0,31.5,6.28,42.91,17.7,11.32,11.37,17.56,26.56,17.56,42.77s-6.29,31.5-17.7,42.82c-11.33,11.29-26.51,17.55-42.72,17.65Zm-.1-120c-15.95,0-30.89,6.15-42.06,17.33-11.2,11.16-17.37,26.13-17.37,42.16-.05,15.91,6.09,30.83,17.28,42.02,11.14,11.19,26.14,17.42,42.25,17.56,15.96-.09,30.9-6.26,42.06-17.38,11.23-11.14,17.42-26.11,17.42-42.16s-6.14-30.92-17.28-42.11c-11.23-11.23-26.24-17.42-42.25-17.42h-.05Zm-.28,98.69c-2.44,0-4.68-1.01-6.49-2.92-2.22-2.33-2.31-5.33-2.34-6.32v-1.25c-.45-.12-.91-.26-1.37-.39-.69-.2-1.4-.41-2.08-.59l-.27-.07c-.31-.08-.65-.16-1.01-.27-1.1-.28-2.26-.57-3.47-1.05-4-1.42-6.47-5.4-5.97-9.69,.5-4.57,4.13-7.88,8.64-7.88,.78,0,1.53,.1,2.28,.3,1.65,.42,3.28,.9,4.85,1.36l.6,.18c1.37,.42,2.79,.85,4.17,1.17,1.5,.34,2.8,.5,3.98,.5,1.89,0,3.54-.34,5.16-1.07-1.6-.87-3.37-1.46-4.93-1.95-.57-.16-1.18-.32-1.79-.49-.61-.16-1.22-.33-1.81-.49-3.21-.87-6.34-1.78-9.41-3.17-2.43-1.06-5.97-2.88-8.59-6.44-1.69-2.34-2.72-4.97-3.14-8.06-1.2-8.24,4.66-15.96,11.03-18.66l.29-.1c.85-.38,1.84-.81,2.88-1.14,0-.11,.01-.21,.02-.32,.01-.23,.02-.46,.05-.67,.15-3.39,1.5-5.97,4.01-7.68,1.53-.92,3.2-1.4,4.86-1.4,4.26,0,7.97,2.94,8.82,6.99,.17,.8,.23,1.56,.27,2.3l.66,.15c.92,.21,1.88,.42,2.81,.67l.06,.02c.18,.07,.38,.11,.65,.16l.31,.08c1.24,.32,2.95,.75,4.51,2.04,2.94,2.49,4.14,6.8,2.86,10.24-1.44,3.72-4.58,6.03-8.19,6.03-.44,0-.87-.05-1.28-.1-1.68-.22-3.24-.64-4.76-1.04l-.38-.1c-.56-.1-1.13-.27-1.52-.38-1.34-.3-2.58-.45-3.67-.45-1.67,0-3.25,.3-4.78,.9,.69,.33,1.4,.65,2.11,.97,.32,.12,.88,.26,1.42,.39,.49,.09,1.05,.23,1.65,.41h.1l.08,.03c.47,.16,.94,.31,1.42,.47,.49,.15,.97,.31,1.44,.47,3.91,1.19,8.36,2.54,12.45,5.26,4.87,3.28,7.61,7.83,8.14,13.54,.72,8.15-4.74,16.25-12.72,18.85-.91,.31-1.81,.52-2.68,.73-.2,.05-.39,.09-.59,.14-.04,.59-.09,1.16-.17,1.8-.54,3.86-2.95,6.64-6.59,7.62-.81,.18-1.68,.34-2.61,.34Zm-14.37-29.48c-4.02,0-7.26,2.96-7.7,7.05-.44,3.85,1.77,7.43,5.37,8.71,1.16,.46,2.29,.75,3.38,1.02,.37,.11,.69,.19,.99,.26l.28,.07c.7,.18,1.42,.39,2.12,.6,.57,.17,1.14,.34,1.69,.48l.35,.09v1.96c.05,1.54,.31,3.83,2.08,5.69,1.63,1.72,3.63,2.62,5.81,2.62,.84,0,1.64-.15,2.39-.32,3.24-.88,5.39-3.37,5.88-6.84,.09-.73,.14-1.37,.18-2.08l.02-.34,.33-.08c.3-.08,.62-.15,.93-.22,.85-.2,1.73-.4,2.6-.7,7.58-2.46,12.77-10.15,12.08-17.87-.5-5.41-3.1-9.73-7.73-12.84-3.97-2.65-8.36-3.98-12.22-5.15-.48-.17-.96-.32-1.44-.47-.46-.15-.92-.29-1.37-.45l-.15-.02c-.59-.18-1.14-.32-1.64-.41-.6-.15-1.18-.29-1.58-.44-1.05-.48-2.1-.95-3.05-1.43l-1.78-.89h1.83c1.93-.92,3.9-1.36,6.02-1.36,1.16,0,2.47,.16,3.9,.48,.39,.12,.94,.27,1.48,.37l.41,.11c1.48,.39,3.02,.8,4.63,1.01,.37,.05,.77,.09,1.16,.09,3.21,0,6.01-2.08,7.31-5.43,1.14-3.08,.06-6.95-2.59-9.19-1.4-1.15-2.92-1.54-4.14-1.85l-.27-.07c-.22-.04-.5-.09-.78-.19-.91-.24-1.84-.45-2.75-.65-.34-.08-.68-.15-1.01-.23l-.34-.08-.02-.35c-.05-.86-.09-1.66-.27-2.51-.76-3.62-4.08-6.25-7.9-6.25-1.49,0-3,.43-4.36,1.25-2.27,1.54-3.44,3.82-3.58,6.94v.03c-.03,.2-.04,.42-.05,.63-.01,.23-.02,.46-.05,.68l-.03,.31-.3,.09c-1.11,.32-2.17,.79-3.08,1.2l-.04,.02-.28,.09c-6.01,2.55-11.58,9.86-10.44,17.66,.4,2.93,1.37,5.43,2.97,7.63,2.48,3.37,5.87,5.12,8.21,6.14,3.01,1.37,6.11,2.26,9.28,3.12,.59,.16,1.2,.33,1.81,.49,.61,.16,1.22,.33,1.81,.49,1.73,.55,3.71,1.21,5.47,2.23,.2,.08,.31,.21,.36,.28l.33,.33-.33,.33c-.11,.11-.29,.29-.54,.42-1.83,.87-3.67,1.27-5.8,1.27-1.25,0-2.62-.17-4.19-.53-1.41-.33-2.84-.77-4.23-1.19l-.59-.18c-1.56-.46-3.18-.93-4.82-1.36-.68-.18-1.34-.27-2.04-.27Zm14.41,26.29c-1.53,0-2.96-.65-4.14-1.88-1.21-1.27-1.41-2.96-1.44-4.11v-3.65c-.85-.24-1.68-.47-2.51-.7-1.09-.3-2.23-.61-3.35-.94-.41-.11-.82-.22-1.23-.33-1.08-.28-2.19-.58-3.27-1-2.69-1-4.21-3.48-3.86-6.32,.36-2.95,2.56-5.01,5.35-5.01,.53,0,1.04,.07,1.5,.21,1.56,.41,3.14,.87,4.68,1.31,1.64,.48,3.33,.97,5.02,1.4,1.56,.46,3.14,.69,4.72,.69,2.43,0,4.71-.51,6.79-1.5,.82-.39,2.3-1.56,2.04-3.16-.15-.94-.65-1.66-1.58-2.26-1.88-1.15-4.02-1.9-6.04-2.58-1.11-.33-2.27-.65-3.38-.96-3.07-.85-6.25-1.74-9.24-3.09-2.32-1.06-5.25-2.64-7.32-5.45-1.35-1.85-2.15-3.93-2.53-6.55-.98-6.69,3.84-12.98,9.06-15.19,1.42-.63,3.17-1.41,5.11-1.71,0-.12,0-.23,0-.35,0-1.03-.02-2,.1-2.96,.06-2.32,.87-3.94,2.56-5.03,.96-.6,2.03-.92,3.12-.92,2.75,0,5.09,1.87,5.67,4.55,.22,.97,.22,1.98,.23,2.96,0,.36,0,.71,.02,1.07,0,.31,.03,.35,.32,.4,1.98,.35,3.77,.67,5.57,1.13,.22,.05,.45,.1,.69,.15,1.22,.26,2.48,.52,3.59,1.5,1.87,1.56,2.68,4.39,1.87,6.57-.93,2.42-2.88,3.92-5.09,3.92-.13,0-.25-.01-.39-.02-.11-.01-.23-.02-.36-.02h-.07c-1.85-.29-3.68-.8-5.44-1.28l-.85-.23c-1.65-.4-3.13-.59-4.52-.59-2.48,0-4.79,.52-7.08,1.6-.84,.4-1.5,1.06-1.99,2-.59,1-.45,1.75,.38,2.24,1.38,.84,2.87,1.59,4.69,2.37,.66,.29,1.37,.44,2.13,.61,.42,.09,.86,.19,1.29,.31,.94,.31,1.87,.59,2.8,.88,3.98,1.23,8.1,2.51,11.7,4.91,4.01,2.67,6.26,6.41,6.69,11.1,.6,6.54-3.99,13.31-10.46,15.42-1.44,.48-2.93,.8-4.38,1.1l-.83,.18c-.18,.04-.21,.07-.21,.07h0s-.03,.04-.03,.22v.63c0,1.05,.02,2.14-.15,3.2-.36,2.54-1.83,4.24-4.24,4.89-.46,.17-.99,.25-1.67,.25Zm-14.46-23c-2.3,0-4.11,1.72-4.42,4.19-.29,2.39,.99,4.48,3.27,5.32,1.04,.4,2.08,.68,3.18,.97,.41,.11,.83,.22,1.25,.34,1.12,.33,2.25,.64,3.34,.94,.94,.26,1.89,.52,2.86,.8l.34,.1v4.34c.05,1.6,.42,2.68,1.18,3.48,1,1.04,2.2,1.59,3.46,1.59,.57,0,1-.06,1.39-.21,2.06-.56,3.29-1.98,3.59-4.13,.15-.99,.15-1.99,.14-3.05v-.64c0-.7,.3-1.07,.98-1.21l.83-.18c1.42-.3,2.88-.61,4.28-1.08,6.07-1.98,10.39-8.32,9.82-14.44-.4-4.4-2.51-7.9-6.27-10.4-3.48-2.32-7.54-3.58-11.46-4.79-.94-.29-1.87-.58-2.79-.88-.39-.11-.81-.2-1.22-.29-.77-.17-1.56-.34-2.3-.66-1.86-.8-3.39-1.57-4.8-2.42-1.27-.74-1.55-2.08-.73-3.5,.58-1.11,1.37-1.9,2.41-2.39,2.42-1.14,4.86-1.69,7.48-1.69,1.47,0,3.03,.2,4.76,.62l.87,.24c1.73,.48,3.52,.97,5.3,1.25,.15,0,.29,.01,.42,.03,.1,0,.2,.02,.3,.02,1.84,0,3.42-1.24,4.21-3.31,.67-1.79-.03-4.22-1.6-5.53-.93-.83-2.02-1.05-3.17-1.3-.24-.05-.48-.1-.72-.16-1.78-.46-3.55-.78-5.51-1.12-.74-.13-1.09-.56-1.09-1.31-.01-.35-.02-.71-.02-1.08,0-.93-.01-1.89-.21-2.76-.49-2.24-2.44-3.81-4.75-3.81-.91,0-1.81,.27-2.61,.77-1.42,.92-2.08,2.25-2.13,4.31-.11,.95-.1,1.89-.1,2.89,0,.25,0,.51,0,.76v.42l-.41,.05c-1.96,.23-3.72,1.01-5.26,1.7-4.79,2.04-9.4,8.04-8.51,14.2,.35,2.47,1.1,4.41,2.36,6.13,1.94,2.64,4.74,4.14,6.95,5.16,2.92,1.33,6.07,2.2,9.11,3.04,1.12,.31,2.28,.63,3.42,.97,2.09,.7,4.28,1.47,6.26,2.68,1.16,.75,1.81,1.7,2,2.91,.3,1.88-1.07,3.44-2.56,4.16-2.21,1.06-4.63,1.6-7.2,1.6-1.67,0-3.34-.24-4.97-.72-1.69-.43-3.39-.93-5.04-1.41-1.53-.44-3.11-.9-4.67-1.31-.39-.12-.8-.17-1.24-.17Z"/></g><g class="cls-1"><path class="cls-2" d="M67.01,222.4c-1.25,0-2.35-.21-3.29-.64-.94-.42-1.67-1.01-2.18-1.76-.51-.75-.76-1.61-.76-2.56s.22-1.74,.65-2.48,1.14-1.34,2.13-1.78,2.32-.67,3.99-.67h5.34v2.19h-5.22c-1.53,0-2.55,.25-3.08,.76s-.79,1.12-.79,1.84c0,.83,.33,1.49,.99,1.99,.66,.5,1.57,.75,2.74,.75s2.15-.25,3-.76,1.48-1.25,1.86-2.23l.6,2.1c-.4,1-1.11,1.79-2.13,2.37s-2.3,.87-3.85,.87Zm5.53-.19v-3.56l-.16-.67v-6.07c0-1.29-.38-2.29-1.13-3.01s-1.88-1.07-3.39-1.07c-1,0-1.97,.16-2.93,.49-.95,.33-1.76,.77-2.42,1.32l-1.27-2.29c.87-.7,1.91-1.23,3.13-1.61,1.22-.37,2.5-.56,3.83-.56,2.31,0,4.09,.56,5.34,1.69,1.25,1.12,1.88,2.84,1.88,5.15v10.18h-2.89Z"/><path class="cls-2" d="M78.68,207.87v-2.51h10.75v2.51h-10.75Zm2.86,14.34v-18.35c0-1.65,.48-2.97,1.45-3.96,.96-.99,2.34-1.48,4.12-1.48,.66,0,1.29,.08,1.89,.24,.6,.16,1.12,.41,1.54,.75l-.92,2.32c-.32-.25-.68-.45-1.08-.59-.4-.14-.83-.21-1.27-.21-.89,0-1.57,.25-2.04,.75-.47,.5-.7,1.24-.7,2.21v2.26l.06,1.4v14.66h-3.05Z"/><path class="cls-2" d="M89.94,207.87v-2.51h10.75v2.51h-10.75Zm2.86,14.34v-18.35c0-1.65,.48-2.97,1.45-3.96,.96-.99,2.34-1.48,4.12-1.48,.66,0,1.29,.08,1.89,.24,.6,.16,1.12,.41,1.54,.75l-.92,2.32c-.32-.25-.68-.45-1.08-.59-.4-.14-.83-.21-1.27-.21-.89,0-1.57,.25-2.04,.75-.47,.5-.7,1.24-.7,2.21v2.26l.06,1.4v14.66h-3.05Z"/><path class="cls-2" d="M110.55,222.4c-1.67,0-3.17-.37-4.5-1.11-1.33-.74-2.37-1.76-3.13-3.07-.76-1.3-1.14-2.78-1.14-4.44s.38-3.15,1.14-4.44c.76-1.28,1.8-2.29,3.12-3.04,1.31-.74,2.82-1.11,4.52-1.11s3.17,.37,4.5,1.1c1.33,.73,2.36,1.74,3.12,3.04,.75,1.29,1.13,2.78,1.13,4.45s-.38,3.16-1.13,4.45c-.75,1.29-1.79,2.31-3.12,3.05-1.33,.74-2.83,1.11-4.5,1.11Zm0-2.67c1.08,0,2.05-.24,2.91-.73s1.53-1.18,2.02-2.08c.49-.9,.73-1.94,.73-3.13s-.24-2.25-.73-3.13c-.49-.88-1.16-1.56-2.02-2.05-.86-.49-1.83-.73-2.91-.73s-2.05,.24-2.89,.73c-.85,.49-1.53,1.17-2.04,2.05s-.76,1.92-.76,3.13,.25,2.23,.76,3.13c.51,.9,1.19,1.6,2.04,2.08,.85,.49,1.81,.73,2.89,.73Z"/><path class="cls-2" d="M123.53,222.21v-16.86h2.93v4.58l-.29-1.14c.47-1.17,1.25-2.06,2.35-2.67,1.1-.62,2.46-.92,4.07-.92v2.96c-.13-.02-.25-.03-.37-.03h-.33c-1.63,0-2.93,.49-3.88,1.46-.96,.98-1.43,2.38-1.43,4.23v8.4h-3.05Z"/><path class="cls-2" d="M143.15,222.4c-1.63,0-3.09-.36-4.37-1.08-1.28-.72-2.3-1.73-3.04-3.02-.74-1.29-1.11-2.8-1.11-4.52s.37-3.22,1.11-4.5c.74-1.28,1.75-2.28,3.04-3,1.28-.72,2.74-1.08,4.37-1.08,1.42,0,2.7,.32,3.85,.95,1.15,.64,2.06,1.59,2.75,2.86,.69,1.27,1.03,2.86,1.03,4.77s-.33,3.5-1,4.77c-.67,1.27-1.57,2.23-2.72,2.88-1.14,.65-2.45,.97-3.91,.97Zm.25-2.67c1.06,0,2.02-.24,2.88-.73,.86-.49,1.54-1.18,2.04-2.08,.5-.9,.75-1.94,.75-3.13s-.25-2.25-.75-3.13c-.5-.88-1.18-1.56-2.04-2.05-.86-.49-1.82-.73-2.88-.73s-2.05,.24-2.89,.73c-.85,.49-1.53,1.17-2.04,2.05s-.76,1.92-.76,3.13,.25,2.23,.76,3.13c.51,.9,1.19,1.6,2.04,2.08,.85,.49,1.81,.73,2.89,.73Zm5.76,2.48v-4.55l.19-3.91-.32-3.91v-11.23h3.05v23.6h-2.93Z"/><path class="cls-2" d="M162.8,222.4c-1.25,0-2.35-.21-3.29-.64-.94-.42-1.67-1.01-2.18-1.76-.51-.75-.76-1.61-.76-2.56s.22-1.74,.65-2.48,1.14-1.34,2.13-1.78,2.32-.67,3.99-.67h5.34v2.19h-5.22c-1.53,0-2.55,.25-3.08,.76s-.79,1.12-.79,1.84c0,.83,.33,1.49,.99,1.99,.66,.5,1.57,.75,2.74,.75s2.15-.25,3-.76,1.48-1.25,1.86-2.23l.6,2.1c-.4,1-1.11,1.79-2.13,2.37s-2.3,.87-3.85,.87Zm5.53-.19v-3.56l-.16-.67v-6.07c0-1.29-.38-2.29-1.13-3.01s-1.88-1.07-3.39-1.07c-1,0-1.97,.16-2.93,.49-.95,.33-1.76,.77-2.42,1.32l-1.27-2.29c.87-.7,1.91-1.23,3.13-1.61,1.22-.37,2.5-.56,3.83-.56,2.31,0,4.09,.56,5.34,1.69,1.25,1.12,1.88,2.84,1.88,5.15v10.18h-2.89Z"/><path class="cls-2" d="M176.89,222.21v-23.6h3.05v11.23l-.32,3.91,.19,3.91v4.55h-2.93Zm8.94,.19c-1.44,0-2.74-.32-3.9-.97-1.16-.65-2.07-1.61-2.73-2.88-.67-1.27-1-2.86-1-4.77s.34-3.5,1.03-4.77c.69-1.27,1.61-2.23,2.77-2.86,1.16-.64,2.43-.95,3.83-.95,1.65,0,3.12,.36,4.39,1.08,1.27,.72,2.28,1.72,3.02,3,.74,1.28,1.11,2.78,1.11,4.5s-.37,3.22-1.11,4.52c-.74,1.29-1.75,2.3-3.02,3.02-1.27,.72-2.74,1.08-4.39,1.08Zm-.25-2.67c1.08,0,2.05-.24,2.91-.73s1.54-1.18,2.04-2.08c.5-.9,.75-1.94,.75-3.13s-.25-2.25-.75-3.13-1.18-1.56-2.04-2.05c-.86-.49-1.83-.73-2.91-.73s-2.02,.24-2.88,.73c-.86,.49-1.54,1.17-2.04,2.05-.5,.88-.75,1.92-.75,3.13s.25,2.23,.75,3.13c.5,.9,1.18,1.6,2.04,2.08s1.82,.73,2.88,.73Z"/><path class="cls-2" d="M198.58,222.21v-23.6h3.05v23.6h-3.05Z"/><path class="cls-2" d="M214.96,222.4c-1.8,0-3.39-.37-4.75-1.11-1.37-.74-2.43-1.76-3.18-3.05-.75-1.29-1.13-2.78-1.13-4.45s.37-3.16,1.1-4.45,1.74-2.31,3.02-3.04c1.28-.73,2.73-1.1,4.34-1.1s3.07,.36,4.33,1.08c1.25,.72,2.23,1.73,2.94,3.04,.71,1.3,1.07,2.83,1.07,4.56,0,.13,0,.28-.02,.45-.01,.17-.03,.33-.05,.48h-14.34v-2.19h12.75l-1.24,.76c.02-1.08-.2-2.05-.67-2.89-.47-.85-1.11-1.51-1.92-1.99-.82-.48-1.76-.71-2.85-.71s-2,.24-2.83,.71c-.83,.48-1.47,1.15-1.94,2-.47,.86-.7,1.84-.7,2.94v.51c0,1.12,.26,2.12,.78,3s1.25,1.56,2.18,2.05c.93,.49,2,.73,3.21,.73,1,0,1.9-.17,2.72-.51,.82-.34,1.53-.85,2.15-1.53l1.69,1.97c-.76,.89-1.71,1.57-2.85,2.04-1.13,.47-2.4,.7-3.8,.7Z"/></g></g></g></svg>