<?xml version="1.0" encoding="UTF-8"?><svg id="Ebene_2" xmlns="http://www.w3.org/2000/svg" viewBox="0 0 283.46 283.46"><defs><style>.cls-1{isolation:isolate;}.cls-2{fill:#e3ddcf;}.cls-3{fill:#643c9f;}</style></defs><g id="Ebene_1-2"><g><path id="Rechteck_18" class="cls-3" d="M85.04,0h113.39c46.94,0,85.04,38.04,85.04,85.04v113.39c0,46.94-38.04,85.04-85.04,85.04H85.04C38.1,283.46,0,245.42,0,198.43V85.04C0,38.1,38.1,0,85.04,0Z"/><g><path class="cls-2" d="M86.05,45.51c1.47,0,2.83,.58,3.88,1.57l20.09,20.09,1.73,1.73,1.73-1.73,13.11-13.11c2.94-2.94,6.77-4.46,10.8-4.46s7.92,1.57,10.8,4.46l37.4,37.4c2.88,2.88,4.51,6.77,4.51,10.8s-1.63,7.92-4.51,10.8l-47.1,47.1c-3.99,3.99-9.39,6.24-15.05,6.24s-11.01-2.2-15.05-6.24l-29-29c-8.29-8.29-8.29-21.77,0-30.05l22.76-22.97,1.73-1.73-1.73-1.73-20.09-19.93c-2.15-2.15-2.15-5.56,0-7.71,1.15-.94,2.52-1.52,3.99-1.52m43.48,54.39c-1.47,0-2.83-.58-3.83-1.63l-12.22-12.17-1.73-1.73-1.73,1.73-22.76,22.76c-1.31,1.31-2.26,2.99-2.73,4.77l-.79,3.09h83.13l.73-.73,10.49-10.44,.05-.05,.05-.05c1.68-1.73,1.68-4.51,0-6.24l-.05-.05-.05-.05-37.4-37.34-.05-.05-.05-.05c-.84-.79-1.94-1.26-3.15-1.26s-2.26,.42-3.15,1.26l-.05,.05-.05,.05-13.11,13.11-1.73,1.73,1.73,1.73,12.17,12.22c2.15,2.15,2.15,5.56,0,7.71-.94,1.05-2.26,1.63-3.72,1.63m67.19,27.69c.26,0,.73,.1,1.1,.63,2.2,3.46,5.4,8.65,7.92,13.58,3.78,7.34,4.3,10.65,4.3,11.91,0,7.34-5.98,13.32-13.32,13.32s-13.32-5.98-13.32-13.32c0-1.31,.58-4.56,4.3-11.91,2.52-4.98,5.72-10.12,7.92-13.58,.37-.52,.89-.63,1.1-.63M86.05,43.04c-2.05,0-4.04,.73-5.61,2.31-3.09,3.09-3.09,8.08,0,11.17l20.09,19.88-22.71,22.97c-9.28,9.28-9.28,24.28,0,33.57l29.06,29.06c4.67,4.67,10.7,6.92,16.78,6.92s12.17-2.31,16.78-6.92l47.1-47.1c6.98-6.92,6.98-18.2,0-25.18l-37.45-37.45c-3.46-3.46-8.02-5.19-12.59-5.19s-9.07,1.73-12.59,5.19l-13.11,13.11-20.09-20.09c-1.63-1.47-3.62-2.26-5.66-2.26h0Zm43.48,59.32c2.05,0,4.04-.73,5.61-2.31,3.09-3.09,3.09-8.08,0-11.17l-12.17-12.22,13.11-13.11c.42-.37,.89-.58,1.42-.58,.47,0,1.05,.21,1.42,.58l37.4,37.4c.73,.79,.73,2.05,0,2.83l-10.49,10.49H86.89c.37-1.31,1.05-2.57,2.1-3.62l22.76-22.76,12.22,12.17c1.52,1.52,3.51,2.31,5.56,2.31h0Zm67.19,22.76c-1.21,0-2.41,.58-3.15,1.73-4.56,7.19-12.64,20.61-12.64,26.85,0,8.71,7.08,15.84,15.84,15.84s15.84-7.08,15.84-15.84c0-6.24-8.02-19.67-12.64-26.85-.84-1.1-1.99-1.73-3.25-1.73h0Z"/><path class="cls-2" d="M196.77,170.08c-9.02,0-16.36-7.34-16.36-16.36,0-5.87,6.92-18,12.72-27.14,.79-1.24,2.13-1.97,3.59-1.97s2.72,.69,3.67,1.94c4.78,7.43,12.75,20.79,12.75,27.17,0,9.02-7.34,16.36-16.36,16.36Zm-.05-44.43c-1.1,0-2.11,.56-2.7,1.49-8.22,12.94-12.56,22.13-12.56,26.57,0,8.44,6.87,15.32,15.32,15.32s15.32-6.87,15.32-15.32c0-6.34-8.78-20.69-12.56-26.57-.72-.95-1.73-1.49-2.81-1.49Zm-73.06,43.8c-6.5,0-12.59-2.51-17.15-7.08l-29.06-29.06c-4.59-4.59-7.12-10.68-7.12-17.15s2.53-12.57,7.12-17.15l22.34-22.6-19.72-19.51c-1.6-1.6-2.48-3.71-2.48-5.96s.88-4.36,2.47-5.96c1.61-1.61,3.68-2.46,5.98-2.46,2.17,0,4.31,.85,6.02,2.39l19.74,19.74,12.74-12.74c3.5-3.45,8.1-5.35,12.96-5.35s9.51,1.9,12.96,5.35l37.45,37.45c3.48,3.48,5.39,8.1,5.39,13.01,0,4.88-1.92,9.47-5.39,12.91l-47.1,47.1c-4.56,4.56-10.66,7.08-17.15,7.08ZM86.05,43.57c-2.02,0-3.83,.75-5.24,2.15s-2.17,3.25-2.17,5.22,.77,3.82,2.17,5.22l20.46,20.25-23.08,23.35c-4.39,4.39-6.81,10.22-6.81,16.42s2.42,12.02,6.81,16.41l29.06,29.06c4.37,4.37,10.19,6.77,16.41,6.77s12.05-2.4,16.41-6.77l47.1-47.1c3.27-3.24,5.07-7.56,5.08-12.16,0-4.63-1.79-8.99-5.08-12.27l-37.45-37.45c-3.25-3.25-7.59-5.04-12.22-5.04s-8.92,1.79-12.22,5.04l-13.48,13.48-20.46-20.46c-1.49-1.35-3.38-2.1-5.29-2.1Zm110.67,123.99c-7.64,0-13.85-6.21-13.85-13.85,0-1.62,.76-5.04,4.36-12.14,2.51-4.98,5.74-10.16,7.94-13.63,.45-.65,1.11-.87,1.54-.87,.28,0,.99,.08,1.53,.85,3.32,5.22,5.99,9.8,7.96,13.65,3.79,7.37,4.36,10.77,4.36,12.14,0,7.64-6.21,13.85-13.85,13.85Zm0-39.44s-.39,0-.67,.41c-2.18,3.43-5.39,8.58-7.88,13.52-3.69,7.28-4.24,10.44-4.24,11.67,0,7.06,5.74,12.8,12.8,12.8s12.8-5.74,12.8-12.8c0-1.03-.41-4.22-4.24-11.67-1.95-3.81-4.6-8.37-7.9-13.54-.24-.35-.54-.39-.66-.39Zm-73.27,38.81c-5.82,0-11.3-2.27-15.42-6.4l-29-29c-8.49-8.49-8.49-22.31,0-30.8l22.76-22.97,1.36-1.36-1.36-1.36-20.09-19.93c-2.37-2.37-2.37-6.08,0-8.45,1.35-1.11,2.84-1.67,4.36-1.67s3.08,.61,4.24,1.72l21.46,21.46,14.47-14.47c2.97-2.97,6.94-4.61,11.18-4.61s8.2,1.64,11.18,4.61l37.4,37.4c3.01,3.01,4.66,6.98,4.66,11.18s-1.66,8.17-4.66,11.18l-47.1,47.1c-4.12,4.12-9.6,6.4-15.42,6.4ZM86.05,46.03c-1.27,0-2.53,.49-3.65,1.4-1.91,1.92-1.91,4.98,.04,6.93l22.19,22.03-2.1,2.1-22.76,22.97c-8.08,8.08-8.08,21.23,0,29.31l29,29c3.93,3.93,9.14,6.09,14.68,6.09s10.76-2.16,14.68-6.09l47.1-47.1c2.81-2.81,4.36-6.51,4.36-10.43s-1.55-7.62-4.36-10.43l-37.4-37.4c-2.78-2.78-6.48-4.3-10.43-4.3s-7.66,1.53-10.43,4.3l-15.21,15.21-22.19-22.19c-.96-.91-2.21-1.42-3.51-1.42Zm81.04,71.23H83.07l.95-3.75c.51-1.92,1.5-3.65,2.86-5.02l24.87-24.87,2.1,2.1,12.22,12.17c.91,.95,2.13,1.47,3.46,1.47s2.49-.52,3.33-1.45c1.97-1.97,1.97-5.03,.02-6.99l-14.27-14.32,15.32-15.32c.98-.93,2.2-1.41,3.52-1.41s2.54,.5,3.51,1.4l.12,.12,37.5,37.45c1.87,1.93,1.87,5.05,0,6.98l-.11,.11-11.38,11.33Zm-82.68-1.05h82.24l.58-.58,10.59-10.54c1.47-1.52,1.47-3.99,0-5.51l-.1-.1-37.5-37.45c-.76-.71-1.75-1.1-2.78-1.1s-2.01,.39-2.79,1.12l-14.57,14.57,1.36,1.36,12.17,12.22c2.37,2.37,2.37,6.08,0,8.45-1.03,1.14-2.49,1.78-4.1,1.78s-3.11-.64-4.21-1.79l-13.57-13.52-24.12,24.12c-1.24,1.24-2.13,2.81-2.59,4.54l-.62,2.44Zm81.63-1.42H86.2l.19-.67c.42-1.49,1.17-2.78,2.23-3.85l23.13-23.13,12.59,12.54c1.39,1.39,3.23,2.16,5.19,2.16s3.83-.74,5.24-2.15,2.17-3.25,2.17-5.22-.77-3.82-2.17-5.21l-12.54-12.59,13.48-13.48c.56-.49,1.15-.73,1.79-.73s1.34,.29,1.79,.73l37.4,37.4c.94,1.01,.94,2.57,.01,3.56l-10.66,10.66Zm-78.43-1.05h78l10.34-10.34c.53-.57,.53-1.52-.01-2.1l-37.38-37.38c-.25-.25-.68-.42-1.05-.42s-.73,.15-1.07,.45l-12.72,12.72,11.8,11.85c1.6,1.6,2.47,3.71,2.47,5.96s-.88,4.36-2.47,5.96-3.68,2.46-5.98,2.46-4.34-.87-5.93-2.46l-11.85-11.8-22.39,22.39c-.77,.77-1.36,1.69-1.75,2.72Z"/></g><g class="cls-1"><path class="cls-2" d="M91.85,222.4c-1.72,0-3.25-.37-4.6-1.11-1.35-.74-2.4-1.76-3.17-3.05-.76-1.29-1.14-2.78-1.14-4.45s.38-3.16,1.14-4.45c.76-1.29,1.82-2.31,3.17-3.04,1.35-.73,2.88-1.1,4.6-1.1,1.53,0,2.89,.3,4.09,.91s2.13,1.5,2.78,2.69l-2.32,1.49c-.55-.83-1.22-1.44-2.02-1.83-.8-.39-1.65-.59-2.56-.59-1.1,0-2.09,.24-2.96,.73-.87,.49-1.56,1.17-2.07,2.05s-.76,1.92-.76,3.13,.25,2.26,.76,3.15,1.2,1.58,2.07,2.07,1.86,.73,2.96,.73c.91,0,1.76-.2,2.56-.59,.79-.39,1.47-1,2.02-1.83l2.32,1.46c-.66,1.17-1.58,2.06-2.78,2.69s-2.56,.94-4.09,.94Z"/><path class="cls-2" d="M109.63,222.4c-1.67,0-3.17-.37-4.5-1.11s-2.37-1.77-3.13-3.07c-.76-1.3-1.14-2.78-1.14-4.44s.38-3.15,1.14-4.44c.76-1.28,1.8-2.29,3.12-3.04,1.31-.74,2.82-1.11,4.52-1.11s3.17,.37,4.5,1.1,2.36,1.74,3.12,3.04c.75,1.29,1.13,2.78,1.13,4.45s-.38,3.16-1.13,4.45c-.75,1.29-1.79,2.31-3.12,3.05s-2.83,1.11-4.5,1.11Zm0-2.67c1.08,0,2.05-.24,2.91-.73s1.53-1.18,2.02-2.08c.49-.9,.73-1.95,.73-3.13s-.24-2.25-.73-3.13c-.49-.88-1.16-1.56-2.02-2.05-.86-.49-1.83-.73-2.91-.73s-2.05,.24-2.89,.73c-.85,.49-1.53,1.17-2.04,2.05s-.76,1.92-.76,3.13,.25,2.23,.76,3.13,1.19,1.6,2.04,2.08c.85,.49,1.81,.73,2.89,.73Z"/><path class="cls-2" d="M122.6,222.21v-23.6h3.05v23.6h-3.05Z"/><path class="cls-2" d="M138.7,222.4c-1.67,0-3.17-.37-4.5-1.11s-2.37-1.77-3.13-3.07c-.76-1.3-1.14-2.78-1.14-4.44s.38-3.15,1.14-4.44c.76-1.28,1.8-2.29,3.12-3.04,1.31-.74,2.82-1.11,4.52-1.11s3.17,.37,4.5,1.1,2.36,1.74,3.12,3.04c.75,1.29,1.13,2.78,1.13,4.45s-.38,3.16-1.13,4.45c-.75,1.29-1.79,2.31-3.12,3.05s-2.83,1.11-4.5,1.11Zm0-2.67c1.08,0,2.05-.24,2.91-.73s1.53-1.18,2.02-2.08c.49-.9,.73-1.95,.73-3.13s-.24-2.25-.73-3.13c-.49-.88-1.16-1.56-2.02-2.05-.86-.49-1.83-.73-2.91-.73s-2.05,.24-2.89,.73c-.85,.49-1.53,1.17-2.04,2.05s-.76,1.92-.76,3.13,.25,2.23,.76,3.13,1.19,1.6,2.04,2.08c.85,.49,1.81,.73,2.89,.73Z"/><path class="cls-2" d="M151.67,222.21v-16.86h2.93v4.58l-.29-1.14c.47-1.17,1.25-2.06,2.35-2.67,1.1-.61,2.46-.92,4.07-.92v2.96c-.13-.02-.25-.03-.37-.03h-.33c-1.63,0-2.93,.49-3.88,1.46-.96,.98-1.43,2.38-1.43,4.23v8.4h-3.05Z"/><path class="cls-2" d="M162.29,207.87v-2.51h10.75v2.51h-10.75Zm2.86,14.34v-18.35c0-1.65,.48-2.97,1.45-3.96,.96-.99,2.34-1.48,4.12-1.48,.66,0,1.29,.08,1.89,.24,.6,.16,1.12,.41,1.54,.75l-.92,2.32c-.32-.25-.68-.45-1.08-.59-.4-.14-.83-.21-1.27-.21-.89,0-1.57,.25-2.04,.75s-.7,1.24-.7,2.21v2.26l.06,1.4v14.66h-3.05Z"/><path class="cls-2" d="M183.03,222.4c-1.44,0-2.71-.26-3.8-.79-1.09-.53-1.94-1.34-2.54-2.43s-.91-2.46-.91-4.12v-9.7h3.05v9.35c0,1.65,.4,2.89,1.19,3.72,.8,.83,1.91,1.24,3.36,1.24,1.06,0,1.98-.22,2.77-.65,.78-.43,1.39-1.07,1.81-1.91,.42-.84,.64-1.85,.64-3.04v-8.71h3.05v16.86h-2.89v-4.55l.48,1.21c-.55,1.12-1.38,1.99-2.48,2.61-1.1,.62-2.34,.92-3.72,.92Z"/><path class="cls-2" d="M197.47,222.21v-23.6h3.05v23.6h-3.05Z"/></g></g></g></svg>