<?xml version="1.0" encoding="UTF-8"?><svg id="Ebene_2" xmlns="http://www.w3.org/2000/svg" viewBox="0 0 283.46 283.46"><defs><style>.cls-1{isolation:isolate;}.cls-2{fill:#e3ddcf;}.cls-3{fill:#643c9f;}</style></defs><g id="Ebene_1-2"><g><path id="Rechteck_18" class="cls-3" d="M85.04,0h113.39c46.94,0,85.04,38.04,85.04,85.04v113.39c0,46.94-38.04,85.04-85.04,85.04H85.04C38.1,283.46,0,245.42,0,198.43V85.04C.06,38.04,38.1,0,85.04,0Z"/><g><path class="cls-2" d="M141.78,45.59c7.55,0,14.4,3.83,18.37,10.17l10.42,16.66,1.36,2.16,2.16-1.36,6.14-3.83c.55-.35,1.21-.55,1.86-.55,1.11,0,2.16,.5,2.82,1.41,.5,.55,.96,1.56,.65,2.97l-5.29,23.11c-.15,.65-.76,1.21-1.46,1.21-.1,0-.25-.05-.35-.05l-23.11-5.34c-1.46-.35-2.47-1.41-2.67-2.87-.25-1.46,.4-2.77,1.61-3.57l6.09-3.83,2.16-1.36-1.36-2.16-10.42-16.71c-1.91-3.12-5.29-4.93-8.96-4.93s-7.05,1.86-8.96,4.98l-1.86,2.97c-1.01,1.61-2.77,2.57-4.73,2.57-1.06,0-2.06-.3-2.97-.86-2.57-1.61-3.37-5.03-1.71-7.65l1.86-2.97c3.93-6.39,10.77-10.17,18.32-10.17m-28.49,32.62v2.52c.6,0,1.36,.4,1.51,1.21l5.34,23.11c.35,1.41-.2,2.37-.65,2.97-.65,.86-1.71,1.41-2.82,1.41-.65,0-1.26-.2-1.86-.55l-6.14-3.83-2.16-1.36-1.36,2.16-12.89,20.54c-2.06,3.32-2.16,7.35-.3,10.77,1.91,3.42,5.39,5.49,9.31,5.49h8.05c3.07,0,5.59,2.52,5.59,5.59s-2.52,5.59-5.59,5.59h-8.05c-8,0-15.1-4.18-18.98-11.18-3.88-7-3.67-15.25,.55-22.05l12.84-20.54,1.36-2.16-2.16-1.36-6.14-3.88c-1.86-1.21-1.71-3.07-1.61-3.62,.25-1.46,1.26-2.52,2.67-2.87l23.06-5.34c.15-.05,.25-.05,.35-.05v-2.57m78.43,32.77c1.96,0,3.67,1.01,4.73,2.62l4.28,6.9c4.23,6.8,4.43,15.05,.55,22.05-3.88,6.95-10.97,11.12-18.93,11.12h-26.83v9.77c0,2.21-1.81,3.57-3.57,3.57-.6,0-1.56-.2-2.47-1.06l-16.76-16.76c-.55-.55-.55-1.56,0-2.16l16.76-16.76c.86-.86,1.81-1.06,2.47-1.06,1.76,0,3.57,1.36,3.57,3.57v9.72h26.78c3.93,0,7.4-2.06,9.31-5.49,1.91-3.42,1.76-7.45-.3-10.77l-4.28-6.85c-1.61-2.62-.81-6.04,1.76-7.7,.86-.4,1.86-.7,2.92-.7h0m-49.84-67.96c-7.9,0-15.81,3.78-20.54,11.38l-1.86,2.97c-2.37,3.78-1.21,8.76,2.57,11.12,1.36,.81,2.82,1.26,4.28,1.26,2.67,0,5.34-1.36,6.85-3.78l1.86-3.02c1.61-2.57,4.23-3.78,6.85-3.78s5.29,1.31,6.85,3.78l10.42,16.71-6.09,3.83c-4.63,2.87-3.42,9.82,1.86,11.07l23.11,5.34c.3,.1,.6,.1,.91,.1,1.86,0,3.52-1.26,3.93-3.12l5.29-23.11c.96-4.08-2.32-7.45-5.94-7.45-1.06,0-2.16,.3-3.17,.96l-6.14,3.83-10.42-16.66c-4.78-7.6-12.74-11.43-20.59-11.43h0Zm-28.49,35.19c-.3,0-.6,.05-.91,.1l-23.11,5.34c-5.24,1.21-6.44,8.15-1.86,11.07l6.14,3.88-12.84,20.59c-10.07,16.16,1.56,37.1,20.59,37.1h8.05c4.48,0,8.05-3.62,8.05-8.05s-3.67-8.05-8.05-8.05h-8.05c-6.34,0-10.22-7-6.85-12.38l12.89-20.54,6.14,3.83c1.06,.65,2.16,.96,3.22,.96,3.62,0,6.85-3.37,5.89-7.45l-5.34-23.11c-.45-2.01-2.11-3.27-3.98-3.27h0Zm78.33,30.25c-1.46,0-2.92,.4-4.28,1.26-3.78,2.37-4.93,7.35-2.57,11.12l4.28,6.85c3.37,5.39-.5,12.38-6.85,12.38h-24.26v-7.25c0-3.67-3.02-6.09-6.09-6.09-1.51,0-3.02,.55-4.23,1.76l-16.81,16.81c-1.56,1.56-1.56,4.13,0,5.74l16.76,16.76c1.26,1.26,2.77,1.76,4.23,1.76,3.12,0,6.09-2.42,6.09-6.09v-7.25h24.36c18.98,0,30.56-20.89,20.49-37.05l-4.28-6.9c-1.56-2.47-4.18-3.83-6.85-3.83h0Z"/><path class="cls-2" d="M151.8,170.08c-1.75,0-3.34-.66-4.58-1.91l-16.76-16.76c-1.75-1.81-1.75-4.7,0-6.45l16.81-16.81c1.23-1.23,2.86-1.91,4.58-1.91,3.17,0,6.59,2.52,6.59,6.59v6.75h23.76c2.79,0,5.27-1.46,6.62-3.91,1.36-2.45,1.28-5.33-.21-7.7l-4.28-6.85c-2.51-4-1.28-9.3,2.73-11.82,1.41-.89,2.94-1.34,4.55-1.34,2.94,0,5.66,1.52,7.27,4.06l4.28,6.9c4.83,7.75,5.07,17.15,.64,25.12-4.41,7.95-12.47,12.7-21.56,12.7h-23.86v6.75c0,4.13-3.35,6.59-6.59,6.59Zm.05-42.84c-1.48,0-2.82,.56-3.87,1.61l-16.81,16.81c-1.36,1.36-1.36,3.62,0,5.03l16.76,16.76c1.33,1.33,2.84,1.61,3.87,1.61,2.75,0,5.59-2.09,5.59-5.59v-7.75h24.87c8.72,0,16.45-4.55,20.68-12.18,4.25-7.65,4.02-16.66-.62-24.1l-4.28-6.9c-1.42-2.25-3.82-3.59-6.42-3.59-1.42,0-2.77,.4-4.01,1.18-3.54,2.22-4.62,6.9-2.41,10.43l4.28,6.85c1.68,2.69,1.77,5.95,.23,8.72-1.54,2.77-4.34,4.43-7.51,4.43h-24.77v-7.75c0-3.45-2.9-5.59-5.59-5.59Zm0,40.27c-.58,0-1.71-.16-2.81-1.19l-16.77-16.77c-.75-.75-.75-2.06-.02-2.86l16.78-16.78c1.05-1.05,2.22-1.2,2.82-1.2,2,0,4.08,1.52,4.08,4.08v9.21h26.28c3.73,0,7.04-1.96,8.87-5.23,1.8-3.23,1.7-7.06-.29-10.26l-4.28-6.84c-1.74-2.82-.88-6.58,1.92-8.39l.06-.03c1.06-.5,2.12-.75,3.13-.75,2.09,0,3.97,1.04,5.15,2.84l4.29,6.91c4.33,6.95,4.54,15.39,.57,22.56-3.98,7.13-11.22,11.38-19.37,11.38h-26.33v9.26c0,2.55-2.07,4.08-4.08,4.08Zm0-37.8c-.45,0-1.32,.12-2.11,.91l-16.76,16.76c-.36,.39-.36,1.09,0,1.45l16.76,16.76c.84,.79,1.68,.91,2.11,.91,1.51,0,3.07-1.15,3.07-3.07v-10.27h27.33c7.78,0,14.69-4.06,18.49-10.87,3.79-6.85,3.59-14.9-.54-21.54l-4.28-6.9c-.99-1.51-2.56-2.38-4.3-2.38-.86,0-1.76,.22-2.67,.64-2.31,1.52-3.02,4.65-1.58,7l4.28,6.84c2.18,3.51,2.3,7.73,.31,11.29-2.01,3.6-5.66,5.74-9.75,5.74h-27.28v-10.22c0-1.92-1.56-3.07-3.07-3.07Zm-42.49,27.08h-8.05c-9.12,0-17.21-4.77-21.64-12.75-4.43-7.98-4.2-17.38,.63-25.12l12.57-20.16-5.72-3.61c-2.3-1.46-3.43-4.03-2.98-6.7,.46-2.66,2.37-4.69,4.99-5.29l23.11-5.34c.33-.06,.67-.11,1.02-.11,2.18,0,3.97,1.47,4.47,3.66l5.34,23.1c.47,2,.04,3.97-1.21,5.54-1.25,1.58-3.19,2.53-5.17,2.53-1.19,0-2.4-.36-3.49-1.03l-5.72-3.56-12.62,20.11c-1.49,2.37-1.56,5.25-.2,7.7,1.36,2.45,3.83,3.91,6.62,3.91h8.05c4.72,0,8.56,3.84,8.56,8.56s-3.84,8.56-8.56,8.56Zm3.32-78.02c-.07,.01-.15,.02-.22,.04l-23.08,5.33c-2.22,.51-3.84,2.23-4.23,4.48-.39,2.26,.58,4.44,2.52,5.68l6.56,4.14-13.1,21.01c-4.63,7.43-4.86,16.44-.6,24.1,4.25,7.66,12.01,12.23,20.76,12.23h8.05c4.16,0,7.55-3.39,7.55-7.55s-3.46-7.55-7.55-7.55h-8.05c-3.16,0-5.97-1.66-7.51-4.43-1.54-2.78-1.45-6.04,.23-8.72l13.15-20.96,6.57,4.09c.93,.58,1.95,.88,2.96,.88,1.68,0,3.32-.8,4.38-2.14,1.05-1.33,1.41-2.99,1.02-4.69l-5.34-23.11c-.35-1.55-1.52-2.64-2.98-2.85v1.54c.68,.18,1.34,.71,1.5,1.55l5.33,23.09c.45,1.8-.45,2.99-.74,3.39-.77,1.01-1.98,1.61-3.22,1.61-.71,0-1.4-.2-2.12-.62l-7.89-4.93-13.98,22.28c-1.96,3.15-2.07,6.99-.29,10.26,1.83,3.27,5.14,5.22,8.87,5.22h8.05c3.36,0,6.09,2.73,6.09,6.09s-2.73,6.09-6.09,6.09h-8.05c-8.19,0-15.45-4.27-19.42-11.43-3.97-7.17-3.76-15.6,.57-22.56l13.93-22.28-7.88-4.97c-1.71-1.11-2.07-2.86-1.84-4.14,.28-1.64,1.42-2.86,3.04-3.27l23.03-5.33v-1.57Zm.5,2.51c-.08,0-.12,0-.19,.02l-23.1,5.35c-1.21,.3-2.07,1.23-2.29,2.46-.09,.47-.23,2.06,1.39,3.12l8.73,5.5-1.63,2.59-12.84,20.54c-4.13,6.64-4.33,14.69-.54,21.54,3.79,6.84,10.72,10.92,18.54,10.92h8.05c2.8,0,5.08-2.28,5.08-5.08s-2.28-5.08-5.08-5.08h-8.05c-4.1,0-7.74-2.15-9.75-5.74-1.96-3.6-1.84-7.82,.31-11.28l14.51-23.13,2.59,1.63,6.14,3.82c.56,.32,1.07,.48,1.6,.48,.92,0,1.85-.46,2.42-1.21,.42-.56,.86-1.35,.57-2.54l-5.34-23.11c-.08-.44-.41-.67-.71-.77h-.41Zm65.64,19.23c-.32,0-.69,0-1.07-.13l-23.06-5.32c-2.68-.64-4.61-2.7-5.04-5.39-.43-2.65,.73-5.18,3.03-6.6l5.66-3.56-10.15-16.29c-1.38-2.18-3.84-3.54-6.42-3.54s-5.01,1.29-6.42,3.54l-1.86,3.02c-1.55,2.48-4.34,4.01-7.27,4.01-1.5,0-3.07-.46-4.54-1.33-1.95-1.22-3.3-3.12-3.82-5.35-.52-2.23-.13-4.53,1.08-6.47l1.86-2.97c4.53-7.27,12.36-11.61,20.96-11.61s16.42,4.36,21.01,11.66l10.15,16.24,5.71-3.56c1.04-.67,2.23-1.03,3.44-1.03,2,0,3.95,.95,5.22,2.55,1.25,1.57,1.68,3.53,1.21,5.52l-5.29,23.1c-.45,2.07-2.26,3.51-4.42,3.51Zm-37.05-41.83c2.92,0,5.71,1.54,7.27,4.01l10.69,17.14-6.52,4.09c-1.95,1.21-2.93,3.35-2.57,5.58,.37,2.28,2.01,4.03,4.28,4.57l23.1,5.33c.27,.09,.51,.09,.79,.09,1.68,0,3.09-1.12,3.43-2.72l5.29-23.11c.39-1.68,.03-3.34-1.02-4.66-1.08-1.36-2.73-2.17-4.43-2.17-1.01,0-2.02,.3-2.9,.88l-6.58,4.1-10.69-17.09c-4.41-7.01-11.95-11.19-20.16-11.19s-15.77,4.16-20.11,11.14l-1.86,2.97c-2.21,3.53-1.13,8.21,2.41,10.43,1.3,.77,2.69,1.18,4.01,1.18,2.6,0,5.06-1.36,6.42-3.54l1.86-3.02c1.6-2.55,4.25-4.01,7.27-4.01Zm37.05,39.36c-.08,0-.18-.02-.27-.03-.03,0-.06-.01-.09-.02h-.1l-23.11-5.35c-1.69-.41-2.82-1.64-3.05-3.29-.27-1.59,.41-3.11,1.83-4.06l7.84-4.92-1.09-1.74-10.42-16.71c-1.8-2.94-4.99-4.7-8.53-4.7s-6.71,1.77-8.53,4.74l-1.87,2.97c-1.1,1.76-3.03,2.8-5.16,2.8-1.14,0-2.22-.31-3.23-.93-1.37-.86-2.31-2.2-2.67-3.77-.36-1.58-.07-3.21,.8-4.58l1.86-2.97c4-6.51,11.01-10.4,18.75-10.4s14.72,3.89,18.8,10.4l11.51,18.4,7.88-4.92c.64-.41,1.39-.63,2.13-.63,1.28,0,2.48,.6,3.21,1.6,.37,.42,1.15,1.55,.75,3.39l-5.29,23.11c-.21,.91-1.05,1.6-1.95,1.6Zm-.28-1.05c.06,0,.13,.02,.2,.03,.03,0,.06,.01,.09,.02,.43,0,.85-.36,.96-.82l5.29-23.1c.3-1.41-.27-2.23-.54-2.52l-.04-.04c-.54-.75-1.44-1.2-2.41-1.2-.55,0-1.11,.17-1.59,.48l-8.73,5.45-1.63-2.59-10.42-16.66c-3.9-6.22-10.61-9.93-17.95-9.93s-14.08,3.71-17.89,9.93l-1.87,2.97c-.73,1.15-.96,2.5-.67,3.82,.3,1.31,1.08,2.43,2.22,3.14,.84,.52,1.76,.78,2.7,.78,1.78,0,3.39-.87,4.3-2.33l1.86-2.97c2-3.27,5.51-5.22,9.39-5.22s7.4,1.93,9.39,5.17l12.04,19.3-8.68,5.45c-1.08,.72-1.59,1.84-1.38,3.06,.17,1.26,1.01,2.16,2.29,2.47l23.06,5.32Z"/></g><g class="cls-1"><path class="cls-2" d="M57.17,225.54c-1.4,0-2.73-.19-3.99-.57-1.26-.38-2.25-.85-2.97-1.4l1.27-2.42c.72,.49,1.61,.9,2.67,1.24,1.06,.34,2.14,.51,3.24,.51,1.42,0,2.44-.2,3.07-.6,.62-.4,.94-.96,.94-1.69,0-.53-.19-.94-.57-1.24-.38-.3-.89-.52-1.51-.67-.63-.15-1.32-.28-2.08-.4-.76-.12-1.53-.26-2.29-.44-.76-.18-1.46-.43-2.1-.76-.64-.33-1.15-.78-1.53-1.37-.38-.58-.57-1.36-.57-2.34s.29-1.91,.86-2.67c.57-.76,1.38-1.35,2.43-1.76,1.05-.41,2.29-.62,3.74-.62,1.1,0,2.22,.13,3.36,.4,1.13,.27,2.06,.64,2.78,1.13l-1.3,2.42c-.76-.51-1.56-.86-2.39-1.05-.83-.19-1.65-.29-2.48-.29-1.34,0-2.33,.22-2.99,.65s-.99,.99-.99,1.67c0,.57,.2,1.01,.59,1.32,.39,.31,.9,.55,1.53,.72,.62,.17,1.32,.31,2.08,.43,.76,.12,1.53,.26,2.29,.44,.76,.18,1.46,.43,2.08,.75,.62,.32,1.13,.76,1.53,1.34,.39,.57,.59,1.33,.59,2.29,0,1.02-.3,1.9-.89,2.64-.59,.74-1.43,1.32-2.51,1.73-1.08,.41-2.38,.62-3.88,.62Z"/><path class="cls-2" d="M75.36,225.54c-1.44,0-2.71-.26-3.8-.79-1.09-.53-1.94-1.34-2.54-2.43-.6-1.09-.91-2.46-.91-4.12v-9.7h3.05v9.35c0,1.65,.4,2.89,1.19,3.72,.79,.83,1.91,1.24,3.35,1.24,1.06,0,1.98-.22,2.77-.65,.78-.43,1.39-1.07,1.81-1.91,.42-.84,.64-1.85,.64-3.04v-8.71h3.05v16.86h-2.89v-4.55l.48,1.21c-.55,1.12-1.38,1.99-2.48,2.61-1.1,.62-2.34,.92-3.72,.92Z"/><path class="cls-2" d="M94.63,225.54c-1.4,0-2.73-.19-3.99-.57-1.26-.38-2.25-.85-2.97-1.4l1.27-2.42c.72,.49,1.61,.9,2.67,1.24,1.06,.34,2.14,.51,3.24,.51,1.42,0,2.44-.2,3.07-.6,.62-.4,.94-.96,.94-1.69,0-.53-.19-.94-.57-1.24-.38-.3-.89-.52-1.51-.67-.63-.15-1.32-.28-2.08-.4-.76-.12-1.53-.26-2.29-.44-.76-.18-1.46-.43-2.1-.76-.64-.33-1.15-.78-1.53-1.37-.38-.58-.57-1.36-.57-2.34s.29-1.91,.86-2.67c.57-.76,1.38-1.35,2.43-1.76,1.05-.41,2.29-.62,3.74-.62,1.1,0,2.22,.13,3.36,.4,1.13,.27,2.06,.64,2.78,1.13l-1.3,2.42c-.76-.51-1.56-.86-2.39-1.05-.83-.19-1.65-.29-2.48-.29-1.34,0-2.33,.22-2.99,.65s-.99,.99-.99,1.67c0,.57,.2,1.01,.59,1.32,.39,.31,.9,.55,1.53,.72,.62,.17,1.32,.31,2.08,.43,.76,.12,1.53,.26,2.29,.44,.76,.18,1.46,.43,2.08,.75,.62,.32,1.13,.76,1.53,1.34,.39,.57,.59,1.33,.59,2.29,0,1.02-.3,1.9-.89,2.64-.59,.74-1.43,1.32-2.51,1.73-1.08,.41-2.38,.62-3.88,.62Z"/><path class="cls-2" d="M103.31,211v-2.51h10.75v2.51h-10.75Zm8.21,14.53c-1.7,0-3.01-.46-3.94-1.37-.93-.91-1.4-2.21-1.4-3.91v-15.46h3.05v15.33c0,.91,.23,1.61,.68,2.1,.46,.49,1.11,.73,1.96,.73,.95,0,1.75-.26,2.39-.79l.95,2.19c-.47,.4-1.02,.7-1.67,.89-.65,.19-1.32,.29-2.02,.29Z"/><path class="cls-2" d="M123.83,225.54c-1.25,0-2.35-.21-3.29-.64-.94-.42-1.67-1.01-2.18-1.76s-.76-1.61-.76-2.56,.22-1.74,.65-2.48c.43-.74,1.15-1.34,2.13-1.78s2.32-.67,3.99-.67h5.34v2.19h-5.22c-1.53,0-2.56,.25-3.08,.76-.53,.51-.8,1.12-.8,1.84,0,.83,.33,1.49,.99,1.99,.66,.5,1.57,.75,2.73,.75s2.15-.25,3.01-.76c.86-.51,1.48-1.25,1.86-2.23l.6,2.1c-.4,1-1.11,1.79-2.13,2.37s-2.3,.87-3.85,.87Zm5.53-.19v-3.56l-.16-.67v-6.08c0-1.29-.38-2.29-1.13-3-.75-.71-1.88-1.07-3.39-1.07-1,0-1.97,.16-2.93,.49-.95,.33-1.76,.77-2.42,1.32l-1.27-2.29c.87-.7,1.91-1.23,3.13-1.61s2.5-.56,3.83-.56c2.31,0,4.09,.56,5.34,1.69s1.88,2.84,1.88,5.15v10.18h-2.89Z"/><path class="cls-2" d="M139.44,205.25c-.59,0-1.09-.19-1.48-.57-.39-.38-.59-.85-.59-1.4s.2-1.05,.59-1.43c.39-.38,.88-.57,1.48-.57s1.09,.19,1.48,.56c.39,.37,.59,.83,.59,1.38s-.19,1.06-.57,1.45c-.38,.39-.88,.59-1.49,.59Zm-1.53,20.1v-16.86h3.05v16.86h-3.05Z"/><path class="cls-2" d="M155.79,208.33c1.38,0,2.59,.26,3.64,.79,1.05,.53,1.87,1.34,2.46,2.42,.59,1.08,.89,2.45,.89,4.1v9.7h-3.05v-9.35c0-1.63-.4-2.86-1.19-3.69-.79-.83-1.91-1.24-3.36-1.24-1.08,0-2.02,.21-2.83,.64-.81,.42-1.43,1.05-1.86,1.88-.43,.83-.65,1.86-.65,3.08v8.68h-3.05v-16.86h2.93v4.55l-.48-1.21c.55-1.1,1.4-1.96,2.54-2.58,1.15-.61,2.48-.92,4.01-.92Z"/><path class="cls-2" d="M173.38,225.54c-1.25,0-2.35-.21-3.29-.64-.94-.42-1.67-1.01-2.18-1.76s-.76-1.61-.76-2.56,.22-1.74,.65-2.48c.43-.74,1.15-1.34,2.13-1.78s2.32-.67,3.99-.67h5.34v2.19h-5.22c-1.53,0-2.56,.25-3.08,.76-.53,.51-.8,1.12-.8,1.84,0,.83,.33,1.49,.99,1.99,.66,.5,1.57,.75,2.73,.75s2.15-.25,3.01-.76c.86-.51,1.48-1.25,1.86-2.23l.6,2.1c-.4,1-1.11,1.79-2.13,2.37s-2.3,.87-3.85,.87Zm5.53-.19v-3.56l-.16-.67v-6.08c0-1.29-.38-2.29-1.13-3-.75-.71-1.88-1.07-3.39-1.07-1,0-1.97,.16-2.93,.49-.95,.33-1.76,.77-2.42,1.32l-1.27-2.29c.87-.7,1.91-1.23,3.13-1.61s2.5-.56,3.83-.56c2.31,0,4.09,.56,5.34,1.69s1.88,2.84,1.88,5.15v10.18h-2.89Z"/><path class="cls-2" d="M187.46,225.35v-23.6h3.05v11.23l-.32,3.91,.19,3.91v4.55h-2.93Zm8.94,.19c-1.44,0-2.74-.32-3.9-.97-1.16-.65-2.07-1.61-2.74-2.88-.67-1.27-1-2.86-1-4.77s.34-3.5,1.03-4.77c.69-1.27,1.61-2.23,2.77-2.86,1.16-.64,2.43-.95,3.83-.95,1.65,0,3.12,.36,4.39,1.08,1.27,.72,2.28,1.72,3.02,3.01,.74,1.28,1.11,2.78,1.11,4.5s-.37,3.22-1.11,4.52c-.74,1.29-1.75,2.3-3.02,3.02-1.27,.72-2.73,1.08-4.39,1.08Zm-.25-2.67c1.08,0,2.05-.24,2.91-.73,.86-.49,1.54-1.18,2.04-2.08,.5-.9,.75-1.95,.75-3.13s-.25-2.25-.75-3.13c-.5-.88-1.18-1.56-2.04-2.05-.86-.49-1.83-.73-2.91-.73s-2.02,.24-2.88,.73c-.86,.49-1.54,1.17-2.04,2.05s-.75,1.92-.75,3.13,.25,2.23,.75,3.13,1.18,1.6,2.04,2.08,1.82,.73,2.88,.73Z"/><path class="cls-2" d="M209.15,225.35v-23.6h3.05v23.6h-3.05Z"/><path class="cls-2" d="M225.53,225.54c-1.8,0-3.39-.37-4.75-1.11s-2.43-1.76-3.18-3.05c-.75-1.29-1.13-2.78-1.13-4.45s.37-3.16,1.1-4.45c.73-1.29,1.74-2.31,3.02-3.04s2.73-1.1,4.34-1.1,3.07,.36,4.33,1.08,2.23,1.73,2.94,3.04,1.07,2.83,1.07,4.56c0,.13,0,.28-.02,.45-.01,.17-.03,.33-.05,.48h-14.34v-2.19h12.75l-1.24,.76c.02-1.08-.2-2.05-.67-2.89s-1.11-1.51-1.92-1.99c-.82-.48-1.77-.71-2.85-.71s-2,.24-2.83,.71c-.83,.48-1.47,1.15-1.94,2-.47,.86-.7,1.84-.7,2.94v.51c0,1.12,.26,2.13,.78,3,.52,.88,1.25,1.56,2.18,2.05,.93,.49,2,.73,3.21,.73,1,0,1.9-.17,2.72-.51,.82-.34,1.53-.85,2.15-1.53l1.69,1.97c-.76,.89-1.71,1.57-2.85,2.04-1.13,.47-2.4,.7-3.8,.7Z"/></g></g></g></svg>