<?xml version="1.0" encoding="UTF-8"?><svg id="Ebene_2" xmlns="http://www.w3.org/2000/svg" viewBox="0 0 283.46 283.46"><defs><style>.cls-1{isolation:isolate;}.cls-2{fill:#e3ddcf;}.cls-3{fill:#643c9f;}</style></defs><g id="Ebene_1-2"><g><path id="Rechteck_18" class="cls-3" d="M85.04,0h113.39c46.94,0,85.04,38.04,85.04,85.04v113.39c0,46.94-38.04,85.04-85.04,85.04H85.04C38.1,283.46,0,245.37,0,198.43V85.04C0,38.1,38.1,0,85.04,0Z"/><g class="cls-1"><path class="cls-2" d="M94.39,207.68v-2.51h10.75v2.51h-10.75Zm8.21,14.53c-1.7,0-3.01-.46-3.94-1.37-.93-.91-1.4-2.21-1.4-3.91v-15.46h3.05v15.33c0,.91,.23,1.61,.68,2.1,.46,.49,1.11,.73,1.96,.73,.95,0,1.75-.26,2.39-.79l.95,2.19c-.47,.4-1.02,.7-1.67,.89-.65,.19-1.32,.29-2.02,.29Z"/><path class="cls-2" d="M116.62,222.21c-1.67,0-3.18-.37-4.5-1.11-1.33-.74-2.37-1.77-3.13-3.07-.76-1.3-1.14-2.78-1.14-4.44s.38-3.15,1.14-4.44c.76-1.28,1.8-2.29,3.12-3.04,1.31-.74,2.82-1.11,4.52-1.11s3.18,.37,4.5,1.1c1.32,.73,2.36,1.74,3.12,3.04,.75,1.29,1.13,2.78,1.13,4.45s-.38,3.16-1.13,4.45c-.75,1.29-1.79,2.31-3.12,3.05-1.33,.74-2.83,1.11-4.5,1.11Zm0-2.67c1.08,0,2.05-.24,2.91-.73,.86-.49,1.53-1.18,2.02-2.08s.73-1.95,.73-3.13-.24-2.25-.73-3.13c-.49-.88-1.16-1.56-2.02-2.05-.86-.49-1.83-.73-2.91-.73s-2.05,.24-2.89,.73c-.85,.49-1.53,1.17-2.04,2.05-.51,.88-.76,1.92-.76,3.13s.25,2.23,.76,3.13,1.19,1.6,2.04,2.08c.85,.49,1.81,.73,2.89,.73Z"/><path class="cls-2" d="M136.69,222.21c-1.44,0-2.71-.27-3.8-.8-1.09-.53-1.94-1.34-2.54-2.43-.6-1.09-.91-2.46-.91-4.12v-9.7h3.05v9.35c0,1.65,.4,2.89,1.19,3.72,.79,.83,1.91,1.24,3.35,1.24,1.06,0,1.98-.22,2.77-.65,.78-.43,1.39-1.07,1.81-1.91,.42-.84,.64-1.85,.64-3.04v-8.71h3.05v16.86h-2.89v-4.55l.48,1.21c-.55,1.12-1.38,1.99-2.48,2.61-1.1,.62-2.34,.92-3.72,.92Z"/><path class="cls-2" d="M158.13,221.32c-1.63,0-3.09-.34-4.37-1.03-1.28-.69-2.3-1.65-3.05-2.88-.75-1.23-1.13-2.65-1.13-4.26s.38-3.06,1.13-4.28c.75-1.22,1.77-2.17,3.05-2.85,1.28-.68,2.74-1.02,4.37-1.02,1.44,0,2.76,.29,3.94,.88,1.19,.58,2.14,1.48,2.85,2.69,.71,1.21,1.07,2.74,1.07,4.58s-.36,3.34-1.07,4.55c-.71,1.21-1.66,2.12-2.85,2.72-1.19,.6-2.5,.91-3.94,.91Zm.38,7.06c-1.55,0-3.05-.22-4.5-.65-1.45-.43-2.63-1.05-3.55-1.86l1.46-2.35c.78,.68,1.75,1.21,2.89,1.61,1.14,.39,2.34,.59,3.59,.59,1.99,0,3.46-.47,4.39-1.4,.93-.93,1.4-2.35,1.4-4.26v-3.56l.32-3.34-.16-3.37v-4.61h2.89v14.57c0,2.97-.74,5.15-2.23,6.55-1.48,1.4-3.66,2.1-6.52,2.1Zm-.03-9.73c1.12,0,2.12-.23,2.99-.7,.87-.47,1.55-1.11,2.05-1.94,.5-.83,.75-1.78,.75-2.86s-.25-2.04-.75-2.86c-.5-.83-1.18-1.47-2.05-1.92-.87-.46-1.87-.68-2.99-.68s-2.13,.23-3.01,.68c-.88,.46-1.57,1.1-2.07,1.92-.5,.83-.75,1.78-.75,2.86s.25,2.04,.75,2.86c.5,.83,1.19,1.47,2.07,1.94,.88,.47,1.88,.7,3.01,.7Z"/><path class="cls-2" d="M182.07,205.01c1.38,0,2.59,.27,3.64,.79,1.05,.53,1.87,1.34,2.46,2.42,.59,1.08,.89,2.45,.89,4.1v9.7h-3.05v-9.35c0-1.63-.4-2.86-1.19-3.69s-1.91-1.24-3.36-1.24c-1.08,0-2.02,.21-2.83,.64-.81,.42-1.43,1.05-1.86,1.88-.43,.83-.65,1.86-.65,3.08v8.68h-3.05v-23.6h3.05v11.29l-.6-1.21c.55-1.1,1.4-1.96,2.54-2.58,1.15-.61,2.48-.92,4.01-.92Z"/></g><g><g><path class="cls-2" d="M145.67,46.76c7.52,0,14.72,2.26,21.11,6.66,2.04,1.4,3.97,3.17,5.53,4.73,3.44,3.38,6.93,6.82,10.26,10.2,2.09,2.09,3.38,4.24,4.08,6.66,.48,1.77,.64,3.76,.38,5.85-.27,2.31,.75,3.87,1.66,4.73,1.4,1.34,2.74,2.74,4.19,4.19l.05,.05,2.47,2.52,2.63-2.31c.21-.21,.43-.38,.7-.59,.32-.32,.7-.59,1.07-.97,.38-.32,.86-.54,1.29-.54s.97,.21,1.34,.59c1.83,1.72,3.71,3.49,5.48,5.21,.48,.48,1.07,1.18,1.13,1.99,0,.75-.59,1.5-1.07,2.04l-21.59,21.59c-.7,.7-1.29,1.02-1.72,1.02-.38,0-.97-.32-1.56-.81-1.93-1.72-3.81-3.54-5.48-5.48-.38-.43-.81-1.07-.81-1.77,.05-.7,.54-1.34,.97-1.77,.32-.21,.59-.43,.81-.64l.16-.11,3.01-2.63-2.85-2.79c-.54-.54-1.07-1.07-1.61-1.56-1.07-1.07-2.2-2.2-3.38-3.22l-.05-.05-.05-.05c-1.13-.97-2.47-1.07-3.12-1.07-.32,0-.64,.05-.97,.05-.86,.16-1.66,.21-2.47,.21-3.17,0-5.96-1.07-8.27-3.22-4.24-3.87-8.43-8.16-12.41-12.25l-1.45-1.5c-2.26-2.31-3.38-5.32-3.49-9.56v-.11c0-.16,0-.38,.05-.7,.05-1.13,.21-2.85-.86-4.4-.97-1.56-2.58-2.15-3.6-2.58-.21-.05-.48-.21-.59-.27-5.32-2.63-10.74-5.32-16.11-8.06,.21-.16,.38-.32,.54-.48h0c5.91-4.83,12.3-7.68,19.6-8.49,1.72-.21,3.38-.32,4.99-.32m0-3.71c-1.77,0-3.54,.11-5.42,.32-8.11,.97-15.25,4.14-21.54,9.35-1.56,1.29-3.01,2.79-4.62,4.24,.48,.27,.81,.38,1.02,.54,6.61,3.33,13.21,6.61,19.76,9.94,.97,.48,2.26,.7,2.74,1.5s.21,2.15,.21,3.22c.11,4.57,1.29,8.75,4.57,12.03,4.62,4.73,9.18,9.51,14.07,13.91,3.06,2.79,6.77,4.14,10.8,4.14,1.02,0,2.09-.05,3.12-.27,.05-.05,.16-.05,.27-.05,.27,0,.59,.05,.75,.21,1.61,1.56,3.22,3.17,4.89,4.78-.32,.27-.48,.43-.7,.54-3.12,2.69-3.28,6.23-.81,9.02,1.83,2.04,3.76,3.97,5.8,5.8,1.29,1.18,2.69,1.72,3.97,1.72,1.5,0,2.95-.7,4.4-2.15,7.2-7.2,14.39-14.39,21.59-21.59,2.9-2.9,2.9-6.39-.05-9.24-1.83-1.72-3.65-3.49-5.53-5.26-1.13-1.07-2.47-1.56-3.87-1.56s-2.63,.48-3.81,1.5c-.54,.54-1.13,.97-1.77,1.56-1.45-1.5-2.85-2.9-4.35-4.35-.48-.43-.59-.97-.54-1.56,.32-2.47,.21-4.89-.48-7.25-.91-3.22-2.69-5.96-4.99-8.27-3.44-3.44-6.82-6.93-10.37-10.31-1.88-1.83-3.87-3.6-6.02-5.1-6.98-4.94-14.72-7.36-23.09-7.36h0Z"/><path class="cls-2" d="M184.55,124.53c-1.51,0-3.01-.64-4.34-1.86-2.04-1.83-4.01-3.79-5.84-5.84-1.31-1.49-1.95-3.18-1.83-4.9,.12-1.79,1.05-3.48,2.69-4.89l.11-.07s.09-.05,.14-.09c-.68-.66-1.35-1.32-2.02-1.98-.82-.8-1.63-1.6-2.44-2.39-.03-.02-.16-.06-.37-.06h0l-.16,.04c-.91,.19-1.93,.28-3.23,.28-4.23,0-8.09-1.48-11.16-4.28-4.25-3.83-8.31-8-12.25-12.04l-1.85-1.9c-3.05-3.05-4.59-7.1-4.72-12.39,0-.3,.02-.61,.04-.92,.05-.78,.1-1.58-.18-2.04-.24-.4-.87-.64-1.53-.89-.33-.12-.67-.25-.99-.41-3.93-2-7.94-4.01-11.82-5.95-2.65-1.32-5.29-2.65-7.94-3.99l-.08-.05c-.08-.06-.21-.12-.38-.2-.16-.08-.36-.17-.58-.3l-.66-.37,.56-.5c.63-.57,1.24-1.15,1.84-1.72,.95-.9,1.84-1.75,2.8-2.54,6.42-5.32,13.76-8.5,21.82-9.46,1.92-.22,3.72-.33,5.49-.33,8.54,0,16.41,2.51,23.41,7.46,1.89,1.32,3.82,2.96,6.08,5.16,2.53,2.42,5.03,4.93,7.44,7.37,.98,.99,1.95,1.97,2.93,2.95,2.52,2.52,4.25,5.38,5.13,8.5,.69,2.33,.85,4.77,.5,7.47-.04,.49,.06,.82,.36,1.09,1.41,1.35,2.69,2.63,4.02,4.01,.15-.13,.29-.25,.43-.37,.33-.28,.64-.54,.93-.83,1.28-1.11,2.69-1.66,4.19-1.66,1.6,0,3.07,.59,4.24,1.71,.92,.87,1.82,1.73,2.73,2.59,.94,.9,1.87,1.79,2.8,2.67,1.55,1.49,2.37,3.21,2.39,4.96,.02,1.77-.79,3.51-2.33,5.05l-21.59,21.59c-1.55,1.55-3.12,2.31-4.78,2.31Zm-8.66-16.63c-1.39,1.21-2.17,2.63-2.27,4.11-.1,1.43,.44,2.85,1.56,4.11,1.8,2.01,3.74,3.95,5.76,5.76,1.13,1.04,2.38,1.58,3.62,1.58,1.37,0,2.68-.65,4.02-1.99l21.59-21.59c1.33-1.33,2.02-2.81,2.01-4.28-.01-1.46-.73-2.91-2.06-4.19-.93-.88-1.86-1.77-2.81-2.67-.9-.86-1.8-1.72-2.72-2.59-.98-.94-2.16-1.41-3.5-1.41-1.24,0-2.41,.46-3.46,1.37-.29,.3-.62,.57-.97,.87-.25,.21-.52,.43-.79,.68l-.39,.35-.36-.38c-1.45-1.51-2.83-2.89-4.34-4.34-.54-.48-.78-1.14-.7-1.99,.33-2.57,.18-4.86-.46-7.05-.84-2.95-2.47-5.65-4.86-8.04-.98-.98-1.96-1.97-2.94-2.96-2.4-2.43-4.89-4.94-7.42-7.35-2.22-2.16-4.11-3.76-5.95-5.05-6.81-4.82-14.47-7.26-22.79-7.26-1.73,0-3.49,.1-5.36,.32-7.85,.94-15,4.04-21.26,9.23-.93,.77-1.81,1.61-2.74,2.49-.42,.4-.85,.81-1.28,1.21,.13,.06,.25,.13,.36,.21,2.64,1.33,5.27,2.65,7.9,3.97,3.88,1.95,7.9,3.96,11.83,5.95,.27,.13,.57,.25,.88,.37,.81,.3,1.64,.62,2.07,1.34,.44,.74,.38,1.71,.33,2.65-.02,.29-.04,.58-.04,.84,.12,4.99,1.56,8.8,4.41,11.65l1.85,1.9c3.92,4.02,7.98,8.19,12.2,11.99,2.91,2.65,6.42,4,10.44,4,1.17,0,2.1-.08,2.91-.24,.17-.08,.35-.08,.47-.08,.28,0,.81,.05,1.13,.37,.81,.78,1.62,1.58,2.44,2.39,.8,.79,1.62,1.59,2.44,2.39l.43,.42-.66,.55c-.19,.16-.35,.3-.54,.4Zm8.77,13.03c-.67,0-1.47-.58-1.9-.93-2.22-1.97-4.03-3.78-5.55-5.54-.43-.49-.94-1.25-.94-2.12,.07-.93,.65-1.68,1.12-2.15l.08-.07c.29-.19,.54-.39,.72-.58l.08-.07,.13-.09,2.55-2.23-2.43-2.39c-.53-.53-1.07-1.07-1.59-1.54-1.1-1.1-2.21-2.21-3.38-3.22l-.14-.13c-.88-.75-1.98-.92-2.74-.92-.15,0-.29,.01-.44,.02-.16,.01-.32,.03-.48,.03-.8,.15-1.6,.22-2.52,.22-3.33,0-6.24-1.13-8.64-3.37-4.3-3.92-8.62-8.35-12.43-12.26l-1.45-1.51c-2.37-2.43-3.53-5.58-3.64-9.92v-.12c0-.16,0-.41,.06-.76v-.18c.06-1.08,.14-2.55-.77-3.87-.83-1.33-2.18-1.89-3.16-2.3l-.17-.07c-.22-.06-.44-.18-.59-.26l-.07-.04c-5.27-2.61-10.72-5.31-16.12-8.06l-.77-.39,.69-.52c.18-.14,.33-.28,.48-.43,6.13-5.02,12.64-7.84,19.92-8.64,1.73-.22,3.43-.33,5.05-.33,7.7,0,14.91,2.27,21.41,6.75,1.74,1.19,3.58,2.76,5.61,4.79,3.39,3.34,6.9,6.79,10.26,10.21,2.13,2.13,3.47,4.32,4.22,6.89,.53,1.94,.66,3.98,.39,6.07-.26,2.24,.83,3.63,1.5,4.27,.94,.9,1.83,1.8,2.77,2.76,.47,.47,.94,.95,1.43,1.44l.05,.05,2.12,2.16,2.25-1.97c.17-.18,.37-.33,.59-.5l.11-.09c.16-.16,.33-.3,.51-.45s.36-.31,.55-.49c.52-.45,1.13-.69,1.67-.69,.6,0,1.26,.29,1.72,.75,1.88,1.77,3.72,3.51,5.47,5.2,.52,.52,1.22,1.33,1.29,2.34,0,.97-.65,1.81-1.21,2.44l-21.61,21.61c-.78,.78-1.49,1.18-2.1,1.18Zm-6.53-9.95c-.29,.29-.73,.83-.78,1.4,0,.5,.37,1.03,.67,1.38,1.49,1.73,3.27,3.51,5.43,5.43,.6,.49,1.05,.67,1.2,.67,.23,0,.7-.23,1.34-.86l21.59-21.59c.21-.24,.92-1.02,.92-1.66-.03-.45-.35-.99-.97-1.61-1.74-1.69-3.58-3.42-5.47-5.2-.31-.31-.72-.44-.97-.44-.29,0-.65,.16-.94,.41-.18,.18-.38,.35-.58,.52-.16,.14-.32,.27-.47,.42l-.18,.15c-.2,.16-.36,.29-.52,.44l-3.04,2.67-2.88-2.94c-.49-.49-.96-.97-1.43-1.45-.94-.95-1.83-1.85-2.75-2.74-.81-.77-2.14-2.46-1.83-5.18,.25-1.96,.13-3.86-.36-5.65-.69-2.38-1.94-4.42-3.94-6.42-3.36-3.41-6.86-6.86-10.26-10.2-1.96-1.96-3.79-3.53-5.46-4.67-6.32-4.36-13.32-6.57-20.8-6.57-1.58,0-3.24,.11-4.93,.32-7.06,.78-13.35,3.5-19.26,8.31,5.16,2.62,10.36,5.2,15.41,7.7l.1,.05c.1,.05,.27,.15,.38,.17l.08,.03,.2,.08c1.06,.44,2.65,1.1,3.65,2.71,1.1,1.59,1.01,3.35,.95,4.51l-.02,.27c-.05,.28-.05,.46-.05,.61v.11c.1,4.03,1.16,6.96,3.34,9.18l1.45,1.51c3.8,3.9,8.1,8.32,12.38,12.22,2.2,2.05,4.86,3.08,7.91,3.08,.87,0,1.62-.07,2.37-.21h.1c.15,0,.29-.02,.44-.03,.18-.01,.35-.03,.53-.03,.94,0,2.3,.21,3.46,1.2l.14,.13c1.17,1.01,2.29,2.13,3.38,3.22,.53,.47,1.08,1.02,1.61,1.56l3.26,3.2-3.62,3.13c-.22,.22-.49,.43-.8,.64Z"/></g><g><path class="cls-2" d="M134.66,92.68c1.24,1.29,2.47,2.58,3.65,3.87,2.79,3.01,5.75,6.07,8.81,9.02-.81,.91-1.56,1.83-2.36,2.74-3.49,4.08-7.09,8.11-10.63,12.19-6.55,7.47-13.32,15.25-19.93,22.88-1.56,1.77-3.06,3.54-4.62,5.32-3.54,4.14-7.25,8.49-11.06,12.57-2.79,2.95-6.45,4.62-10.26,4.62-3.06,0-5.96-1.02-8.54-3.06-5.42-4.3-6.93-11.82-3.54-17.89h0c.7-1.29,1.66-2.52,2.63-3.44,7.68-6.82,15.63-13.64,23.26-20.36,2.63-2.26,5.21-4.51,7.84-6.77,4.4-3.87,8.97-7.84,13.37-11.6,3.71-3.33,7.52-6.71,11.39-10.1m.27-5.1c-.16,.16-.48,.38-.81,.7-8.86,7.79-17.83,15.47-26.64,23.26-10.37,9.02-20.79,17.99-31.04,27.12-1.4,1.24-2.58,2.79-3.44,4.4-4.24,7.68-2.31,17.24,4.57,22.61,3.33,2.63,7.09,3.87,10.85,3.87,4.78,0,9.51-2.04,12.94-5.8,5.42-5.85,10.53-11.98,15.74-17.99,10.2-11.71,20.41-23.36,30.56-35.02,1.56-1.88,3.22-3.65,4.73-5.42-6.28-5.59-11.65-11.82-17.46-17.72h0Z"/><path class="cls-2" d="M88.41,170.08c-4.02,0-7.89-1.38-11.18-3.98-7.11-5.56-9.09-15.35-4.7-23.29,.93-1.74,2.16-3.31,3.55-4.55,7.7-6.85,15.61-13.72,23.27-20.37,2.59-2.25,5.19-4.5,7.77-6.76,4.86-4.3,9.86-8.64,14.69-12.83,3.92-3.41,7.98-6.93,11.95-10.42,.18-.19,.39-.35,.55-.48,.09-.07,.17-.14,.23-.19l.38-.38,.38,.39c1.89,1.93,3.77,3.92,5.58,5.85,3.75,3.98,7.63,8.1,11.85,11.85l.39,.35-.34,.4c-.67,.79-1.39,1.6-2.08,2.37-.88,.99-1.78,2.01-2.64,3.05-5.43,6.23-10.86,12.45-16.3,18.68-4.75,5.44-9.51,10.89-14.27,16.35-1.38,1.6-2.76,3.2-4.13,4.8-3.75,4.37-7.62,8.89-11.61,13.2-3.47,3.79-8.33,5.97-13.34,5.97Zm46.48-81.77c-.12,.1-.26,.21-.39,.35-4,3.51-8.06,7.04-11.98,10.45-4.83,4.19-9.82,8.53-14.68,12.83-2.59,2.26-5.19,4.51-7.78,6.76-7.65,6.64-15.57,13.52-23.26,20.36-1.3,1.15-2.45,2.62-3.32,4.26-4.13,7.48-2.27,16.71,4.42,21.94,3.11,2.46,6.74,3.75,10.52,3.75,4.71,0,9.28-2.05,12.55-5.63,3.98-4.29,7.85-8.81,11.59-13.17,1.38-1.61,2.75-3.21,4.14-4.81,4.76-5.46,9.52-10.91,14.27-16.35,5.44-6.23,10.87-12.45,16.29-18.67,.86-1.04,1.78-2.07,2.66-3.06,.6-.67,1.17-1.31,1.72-1.96-4.1-3.69-7.87-7.69-11.52-11.57-1.7-1.8-3.45-3.67-5.22-5.47Zm-46.64,78.11c-3.22,0-6.21-1.07-8.87-3.18-5.64-4.47-7.19-12.28-3.68-18.57,.69-1.28,1.69-2.58,2.73-3.57,4.43-3.93,8.99-7.91,13.41-11.75,3.32-2.89,6.62-5.76,9.86-8.62,1.32-1.14,2.63-2.27,3.93-3.4,1.3-1.13,2.6-2.25,3.91-3.38,5.1-4.48,9.47-8.27,13.37-11.6,3.76-3.38,7.6-6.78,11.38-10.09l.39-.34,.36,.37c1.21,1.26,2.46,2.57,3.66,3.88,3.14,3.38,6.01,6.32,8.79,9l.37,.36-.34,.39c-.4,.45-.79,.91-1.18,1.36-.39,.46-.78,.92-1.19,1.38-2.11,2.47-4.3,4.96-6.42,7.37-1.41,1.6-2.81,3.2-4.21,4.81-7.34,8.36-14.89,17.06-19.93,22.88-.78,.89-1.54,1.77-2.31,2.66-.77,.89-1.53,1.77-2.31,2.66l-.68,.8c-3.35,3.91-6.82,7.96-10.39,11.78-2.92,3.09-6.7,4.79-10.65,4.79Zm46.37-73c-3.66,3.2-7.35,6.48-10.99,9.75-3.91,3.34-8.28,7.13-13.38,11.61-1.32,1.13-2.61,2.25-3.91,3.38-1.31,1.13-2.61,2.26-3.93,3.39-3.24,2.85-6.55,5.73-9.86,8.62-4.41,3.84-8.98,7.81-13.39,11.73-.95,.9-1.87,2.1-2.52,3.29-3.25,5.83-1.82,13.07,3.41,17.21,2.47,1.95,5.23,2.95,8.21,2.95,3.65,0,7.15-1.58,9.87-4.45,3.56-3.81,7.02-7.84,10.36-11.75l.69-.8c.78-.89,1.55-1.78,2.31-2.66,.77-.89,1.53-1.77,2.31-2.66,5.04-5.82,12.59-14.52,19.93-22.88,1.4-1.61,2.81-3.21,4.21-4.82,2.12-2.41,4.31-4.9,6.42-7.37,.41-.46,.79-.91,1.18-1.37,.28-.33,.56-.66,.85-.99-2.67-2.6-5.45-5.44-8.46-8.69-1.07-1.17-2.2-2.35-3.29-3.49Z"/></g></g></g></g></svg>