<?xml version="1.0" encoding="UTF-8"?><svg id="Ebene_2" xmlns="http://www.w3.org/2000/svg" viewBox="0 0 283.46 283.46"><defs><style>.cls-1{isolation:isolate;}.cls-2{fill:#e3ddcf;}.cls-3{fill:#643c9f;}</style></defs><g id="Ebene_1-2"><g><path id="Rechteck_18" class="cls-3" d="M85.04,0h113.39c46.94,0,85.04,38.04,85.04,85.04v113.39c0,46.94-38.04,85.04-85.04,85.04H85.04c-46.94-.06-85.04-38.1-85.04-85.1V84.98C0,38.04,38.1,0,85.04,0Z"/><g><path class="cls-2" d="M182.39,45.85c5.93,0,10.73,4.8,10.73,10.73v99.33c0,5.93-4.8,10.73-10.73,10.73H101.08c-5.93,0-10.73-4.8-10.73-10.73V56.64c0-5.93,4.8-10.73,10.73-10.73h75.04l6.27-.06m-68.33,45.17c5.25,0,9.6-4.29,9.6-9.6s-4.29-9.6-9.6-9.6-9.6,4.29-9.6,9.6,4.35,9.6,9.6,9.6m22.59-2.26h36.08c4.07,0,7.34-3.33,7.34-7.34s-3.33-7.34-7.34-7.34h-36.08c-4.07,0-7.34,3.33-7.34,7.34s3.33,7.34,7.34,7.34m-22.59,27.1c5.25,0,9.6-4.29,9.6-9.6s-4.29-9.6-9.6-9.6-9.6,4.29-9.6,9.6,4.35,9.6,9.6,9.6m22.59-2.26h36.08c4.07,0,7.34-3.33,7.34-7.34s-3.33-7.34-7.34-7.34h-36.08c-4.07,0-7.34,3.33-7.34,7.34s3.33,7.34,7.34,7.34m-23.72,27.1c5.25,0,9.6-4.29,9.6-9.6s-4.29-9.6-9.6-9.6-9.6,4.29-9.6,9.6,4.35,9.6,9.6,9.6m22.59-2.26h36.14c4.07,0,7.34-3.33,7.34-7.34s-3.33-7.34-7.34-7.34h-36.14c-4.07,0-7.34,3.33-7.34,7.34s3.33,7.34,7.34,7.34m46.87-95.37H101.08c-7.45,0-13.55,6.1-13.55,13.55v99.33c0,7.45,6.1,13.55,13.55,13.55h81.31c7.45,0,13.55-6.1,13.55-13.55V56.64c0-7.51-6.1-13.55-13.55-13.55h0Zm-68.33,45.12c-3.73,0-6.78-3.05-6.78-6.78s3.05-6.78,6.78-6.78,6.78,3.05,6.78,6.78-2.99,6.78-6.78,6.78h0Zm22.59-2.26c-2.48,0-4.52-2.03-4.52-4.52s2.03-4.52,4.52-4.52h36.08c2.48,0,4.52,2.03,4.52,4.52s-2.03,4.52-4.52,4.52h-36.08Zm-22.59,27.1c-3.73,0-6.78-3.05-6.78-6.78s3.05-6.78,6.78-6.78,6.78,3.05,6.78,6.78-2.99,6.78-6.78,6.78h0Zm22.59-2.26c-2.48,0-4.52-2.03-4.52-4.52s2.03-4.52,4.52-4.52h36.08c2.48,0,4.52,2.03,4.52,4.52s-2.03,4.52-4.52,4.52h-36.08Zm-23.72,27.1c-3.73,0-6.78-3.05-6.78-6.78s3.05-6.78,6.78-6.78,6.78,3.05,6.78,6.78-2.99,6.78-6.78,6.78h0Zm22.59-2.26c-2.48,0-4.52-2.03-4.52-4.52s2.03-4.52,4.52-4.52h36.14c2.48,0,4.52,2.03,4.52,4.52s-2.03,4.52-4.52,4.52h-36.14Z"/><path class="cls-2" d="M182.39,170.08H101.08c-7.78,0-14.12-6.33-14.12-14.12V56.64c0-7.78,6.33-14.12,14.12-14.12h81.31c7.78,0,14.12,6.33,14.12,14.12v99.33c0,7.78-6.33,14.12-14.12,14.12ZM101.08,43.65c-7.16,0-12.99,5.83-12.99,12.99v99.33c0,7.16,5.83,12.99,12.99,12.99h81.31c7.16,0,12.99-5.83,12.99-12.99V56.64c0-7.16-5.83-12.99-12.99-12.99H101.08Zm81.31,123.55H101.08c-6.23,0-11.29-5.07-11.29-11.29V56.64c0-6.23,5.07-11.29,11.29-11.29h75.04l6.27-.06c6.23,0,11.29,5.07,11.29,11.29v99.33c0,6.23-5.07,11.29-11.29,11.29ZM101.08,46.47c-5.6,0-10.16,4.56-10.16,10.16v99.27c0,5.6,4.56,10.16,10.16,10.16h81.31c5.6,0,10.16-4.56,10.16-10.16V56.58c0-5.6-4.56-10.16-10.16-10.16l-7.74,.06H101.08Zm11.86,94.81c-5.6,0-10.16-4.56-10.16-10.16s4.56-10.16,10.16-10.16,10.16,4.56,10.16,10.16-4.56,10.16-10.16,10.16Zm0-19.2c-4.98,0-9.03,4.05-9.03,9.03s4.14,9.03,9.03,9.03,9.03-4.05,9.03-9.03-4.05-9.03-9.03-9.03Zm58.73,16.94h-36.14c-4.36,0-7.91-3.55-7.91-7.91s3.55-7.91,7.91-7.91h36.14c4.36,0,7.91,3.55,7.91,7.91s-3.55,7.91-7.91,7.91Zm-36.14-14.68c-3.74,0-6.78,3.04-6.78,6.78s3.04,6.78,6.78,6.78h36.14c3.74,0,6.78-3.04,6.78-6.78s-3.04-6.78-6.78-6.78h-36.14Zm-22.59,14.12c-4.05,0-7.34-3.29-7.34-7.34s3.29-7.34,7.34-7.34,7.34,3.29,7.34,7.34-3.29,7.34-7.34,7.34Zm0-13.55c-3.42,0-6.21,2.79-6.21,6.21s2.79,6.21,6.21,6.21,6.21-2.79,6.21-6.21-2.79-6.21-6.21-6.21Zm58.73,11.29h-36.14c-2.8,0-5.08-2.28-5.08-5.08s2.28-5.08,5.08-5.08h36.14c2.8,0,5.08,2.28,5.08,5.08s-2.28,5.08-5.08,5.08Zm-36.14-9.03c-2.18,0-3.95,1.77-3.95,3.95s1.77,3.95,3.95,3.95h36.14c2.18,0,3.95-1.77,3.95-3.95s-1.77-3.95-3.95-3.95h-36.14Zm-21.46-10.73c-5.6,0-10.16-4.56-10.16-10.16s4.56-10.16,10.16-10.16,10.16,4.56,10.16,10.16-4.56,10.16-10.16,10.16Zm0-19.2c-4.98,0-9.03,4.05-9.03,9.03s4.05,9.03,9.03,9.03,9.03-4.05,9.03-9.03-4.05-9.03-9.03-9.03Zm58.67,16.94h-36.08c-4.29,0-7.91-3.62-7.91-7.91s3.55-7.91,7.91-7.91h36.08c4.29,0,7.91,3.62,7.91,7.91s-3.55,7.91-7.91,7.91Zm-36.08-14.68c-3.74,0-6.78,3.04-6.78,6.78s3.1,6.78,6.78,6.78h36.08c3.74,0,6.78-3.04,6.78-6.78s-3.1-6.78-6.78-6.78h-36.08Zm-22.59,14.12c-4.05,0-7.34-3.29-7.34-7.34s3.29-7.34,7.34-7.34,7.34,3.29,7.34,7.34-3.29,7.34-7.34,7.34Zm0-13.55c-3.42,0-6.21,2.79-6.21,6.21s2.79,6.21,6.21,6.21,6.21-2.79,6.21-6.21-2.79-6.21-6.21-6.21Zm58.67,11.29h-36.08c-2.8,0-5.08-2.28-5.08-5.08s2.28-5.08,5.08-5.08h36.08c2.8,0,5.08,2.28,5.08,5.08s-2.28,5.08-5.08,5.08Zm-36.08-9.03c-2.18,0-3.95,1.77-3.95,3.95s1.77,3.95,3.95,3.95h36.08c2.18,0,3.95-1.77,3.95-3.95s-1.77-3.95-3.95-3.95h-36.08Zm-22.59-10.73c-5.6,0-10.16-4.56-10.16-10.16s4.56-10.16,10.16-10.16,10.16,4.56,10.16,10.16-4.56,10.16-10.16,10.16Zm0-19.2c-4.98,0-9.03,4.05-9.03,9.03s4.05,9.03,9.03,9.03,9.03-4.05,9.03-9.03-4.05-9.03-9.03-9.03Zm58.67,16.94h-36.08c-4.29,0-7.91-3.62-7.91-7.91s3.55-7.91,7.91-7.91h36.08c4.36,0,7.91,3.55,7.91,7.91s-3.55,7.91-7.91,7.91Zm-36.08-14.68c-3.74,0-6.78,3.04-6.78,6.78s3.1,6.78,6.78,6.78h36.08c3.74,0,6.78-3.04,6.78-6.78s-3.04-6.78-6.78-6.78h-36.08Zm-22.59,14.12c-4.05,0-7.34-3.29-7.34-7.34s3.29-7.34,7.34-7.34,7.34,3.29,7.34,7.34-3.29,7.34-7.34,7.34Zm0-13.55c-3.42,0-6.21,2.79-6.21,6.21s2.79,6.21,6.21,6.21,6.21-2.79,6.21-6.21-2.79-6.21-6.21-6.21Zm58.67,11.29h-36.08c-2.8,0-5.08-2.28-5.08-5.08s2.28-5.08,5.08-5.08h36.08c2.8,0,5.08,2.28,5.08,5.08s-2.28,5.08-5.08,5.08Zm-36.08-9.03c-2.18,0-3.95,1.77-3.95,3.95s1.77,3.95,3.95,3.95h36.08c2.18,0,3.95-1.77,3.95-3.95s-1.77-3.95-3.95-3.95h-36.08Z"/></g><g class="cls-1"><path class="cls-2" d="M82.2,222.5l-7.38-16.86h3.18l6.55,15.27h-1.53l6.68-15.27h2.99l-7.38,16.86h-3.12Z"/><path class="cls-2" d="M102.58,222.69c-1.8,0-3.39-.37-4.75-1.11-1.37-.74-2.43-1.76-3.18-3.05-.75-1.29-1.13-2.78-1.13-4.45s.37-3.16,1.1-4.45c.73-1.29,1.74-2.31,3.02-3.04,1.28-.73,2.73-1.1,4.34-1.1s3.07,.36,4.33,1.08c1.25,.72,2.23,1.73,2.94,3.04,.71,1.3,1.07,2.83,1.07,4.56,0,.13,0,.28-.02,.45-.01,.17-.03,.33-.05,.48h-14.34v-2.19h12.75l-1.24,.76c.02-1.08-.2-2.05-.67-2.89-.47-.85-1.11-1.51-1.92-1.99-.82-.48-1.77-.72-2.85-.72s-2,.24-2.83,.72c-.83,.48-1.47,1.14-1.94,2-.47,.86-.7,1.84-.7,2.94v.51c0,1.12,.26,2.13,.78,3.01,.52,.88,1.25,1.56,2.18,2.05,.93,.49,2,.73,3.21,.73,1,0,1.9-.17,2.72-.51,.82-.34,1.53-.85,2.15-1.53l1.69,1.97c-.76,.89-1.71,1.57-2.85,2.04-1.13,.47-2.4,.7-3.8,.7Z"/><path class="cls-2" d="M114.54,222.5v-16.86h2.93v4.58l-.29-1.14c.47-1.17,1.25-2.06,2.35-2.67,1.1-.61,2.46-.92,4.07-.92v2.96c-.13-.02-.25-.03-.37-.03h-.33c-1.63,0-2.93,.49-3.88,1.46-.95,.98-1.43,2.39-1.43,4.23v8.4h-3.05Z"/><path class="cls-2" d="M132.38,222.69c-1.4,0-2.73-.19-3.99-.57-1.26-.38-2.25-.85-2.97-1.4l1.27-2.42c.72,.49,1.61,.9,2.67,1.24,1.06,.34,2.14,.51,3.24,.51,1.42,0,2.44-.2,3.07-.6,.63-.4,.94-.96,.94-1.69,0-.53-.19-.94-.57-1.24-.38-.3-.89-.52-1.51-.67-.63-.15-1.32-.28-2.08-.4-.76-.12-1.53-.26-2.29-.45-.76-.18-1.46-.43-2.1-.76-.64-.33-1.14-.78-1.53-1.37-.38-.58-.57-1.36-.57-2.34s.29-1.91,.86-2.67c.57-.76,1.38-1.35,2.43-1.77,1.05-.41,2.29-.62,3.74-.62,1.1,0,2.22,.13,3.36,.4,1.13,.27,2.06,.64,2.78,1.13l-1.3,2.42c-.76-.51-1.56-.86-2.39-1.05-.83-.19-1.65-.29-2.48-.29-1.34,0-2.33,.22-2.99,.65-.66,.44-.99,.99-.99,1.67,0,.57,.2,1.01,.59,1.32,.39,.31,.9,.55,1.53,.72,.63,.17,1.32,.31,2.08,.43,.76,.12,1.53,.27,2.29,.45,.76,.18,1.46,.43,2.08,.75,.63,.32,1.13,.76,1.53,1.34,.39,.57,.59,1.34,.59,2.29,0,1.02-.3,1.9-.89,2.64-.59,.74-1.43,1.32-2.51,1.73-1.08,.41-2.37,.62-3.88,.62Z"/><path class="cls-2" d="M148.41,222.69c-1.25,0-2.35-.21-3.29-.64s-1.67-1.01-2.18-1.77-.76-1.61-.76-2.56,.22-1.74,.65-2.48c.43-.74,1.14-1.34,2.13-1.78s2.32-.67,3.99-.67h5.34v2.19h-5.22c-1.53,0-2.56,.25-3.08,.76-.53,.51-.8,1.12-.8,1.84,0,.83,.33,1.49,.99,1.99s1.57,.75,2.74,.75,2.15-.25,3.01-.76,1.48-1.25,1.86-2.23l.6,2.1c-.4,1-1.11,1.79-2.13,2.37-1.02,.58-2.3,.87-3.85,.87Zm5.53-.19v-3.56l-.16-.67v-6.07c0-1.29-.38-2.29-1.13-3.01s-1.88-1.07-3.39-1.07c-1,0-1.97,.16-2.93,.49-.95,.33-1.76,.77-2.42,1.32l-1.27-2.29c.87-.7,1.91-1.24,3.13-1.61s2.5-.56,3.83-.56c2.31,0,4.09,.56,5.34,1.69,1.25,1.12,1.88,2.84,1.88,5.15v10.18h-2.89Z"/><path class="cls-2" d="M160.08,208.16v-2.51h10.75v2.51h-10.75Zm8.21,14.53c-1.7,0-3.01-.46-3.94-1.37-.93-.91-1.4-2.22-1.4-3.91v-15.46h3.05v15.33c0,.91,.23,1.61,.68,2.1,.46,.49,1.11,.73,1.96,.73,.95,0,1.75-.27,2.39-.8l.95,2.19c-.47,.4-1.02,.7-1.67,.89-.65,.19-1.32,.29-2.02,.29Z"/><path class="cls-2" d="M177.19,202.4c-.59,0-1.09-.19-1.48-.57-.39-.38-.59-.85-.59-1.4s.2-1.05,.59-1.43c.39-.38,.89-.57,1.48-.57s1.09,.19,1.48,.56c.39,.37,.59,.83,.59,1.38s-.19,1.05-.57,1.45c-.38,.39-.88,.59-1.49,.59Zm-1.53,20.1v-16.86h3.05v16.86h-3.05Z"/><path class="cls-2" d="M184.54,222.5v-23.6h3.05v23.6h-3.05Z"/><path class="cls-2" d="M200.92,222.69c-1.8,0-3.39-.37-4.75-1.11-1.37-.74-2.43-1.76-3.18-3.05-.75-1.29-1.13-2.78-1.13-4.45s.37-3.16,1.1-4.45c.73-1.29,1.74-2.31,3.02-3.04s2.73-1.1,4.34-1.1,3.07,.36,4.33,1.08c1.25,.72,2.23,1.73,2.94,3.04,.71,1.3,1.07,2.83,1.07,4.56,0,.13,0,.28-.02,.45-.01,.17-.03,.33-.05,.48h-14.34v-2.19h12.75l-1.24,.76c.02-1.08-.2-2.05-.67-2.89-.47-.85-1.11-1.51-1.92-1.99-.82-.48-1.77-.72-2.85-.72s-2,.24-2.83,.72c-.83,.48-1.47,1.14-1.94,2-.47,.86-.7,1.84-.7,2.94v.51c0,1.12,.26,2.13,.78,3.01,.52,.88,1.25,1.56,2.18,2.05,.93,.49,2,.73,3.21,.73,1,0,1.9-.17,2.72-.51,.82-.34,1.53-.85,2.15-1.53l1.69,1.97c-.76,.89-1.71,1.57-2.85,2.04-1.13,.47-2.4,.7-3.8,.7Z"/></g></g></g></svg>