<?xml version="1.0" encoding="UTF-8"?><svg id="Ebene_2" xmlns="http://www.w3.org/2000/svg" viewBox="0 0 283.46 283.46"><defs><style>.cls-1{isolation:isolate;}.cls-2{fill:#e3ddcf;}.cls-3{fill:#643c9f;}</style></defs><g id="Ebene_1-2"><g><g><path id="Rechteck_18" class="cls-3" d="M85.04,0h113.39c46.94,0,85.04,38.04,85.04,85.04v113.39c0,46.94-38.04,85.04-85.04,85.04H85.04C38.1,283.46,0,245.37,0,198.43V85.04C0,38.1,38.1,0,85.04,0Z"/><g class="cls-1"><path class="cls-2" d="M57.77,222.21l-6.26-16.86h2.89l5.57,15.27h-1.37l5.79-15.27h2.58l5.66,15.27h-1.34l5.69-15.27h2.73l-6.3,16.86h-2.93l-5.31-13.93h.89l-5.38,13.93h-2.93Z"/><path class="cls-2" d="M87.19,222.4c-1.25,0-2.35-.21-3.29-.64-.94-.42-1.67-1.01-2.18-1.77-.51-.75-.76-1.61-.76-2.56s.22-1.74,.65-2.48c.43-.74,1.14-1.34,2.13-1.78,.99-.45,2.32-.67,3.99-.67h5.34v2.19h-5.22c-1.53,0-2.55,.25-3.08,.76s-.79,1.12-.79,1.84c0,.83,.33,1.49,.99,1.99,.66,.5,1.57,.75,2.73,.75s2.15-.25,3.01-.76,1.48-1.25,1.86-2.23l.6,2.1c-.4,1-1.11,1.79-2.13,2.37s-2.3,.87-3.85,.87Zm5.53-.19v-3.56l-.16-.67v-6.07c0-1.29-.38-2.29-1.13-3-.75-.71-1.88-1.07-3.39-1.07-1,0-1.97,.16-2.93,.49-.95,.33-1.76,.77-2.42,1.32l-1.27-2.29c.87-.7,1.91-1.23,3.13-1.61,1.22-.37,2.5-.56,3.83-.56,2.31,0,4.09,.56,5.34,1.69s1.88,2.84,1.88,5.15v10.18h-2.89Z"/><path class="cls-2" d="M98.86,207.87v-2.51h10.75v2.51h-10.75Zm8.21,14.53c-1.7,0-3.01-.46-3.94-1.37-.93-.91-1.4-2.22-1.4-3.91v-15.46h3.05v15.33c0,.91,.23,1.61,.68,2.1,.46,.49,1.11,.73,1.96,.73,.95,0,1.75-.26,2.38-.79l.95,2.19c-.47,.4-1.02,.7-1.67,.89-.65,.19-1.32,.29-2.02,.29Z"/><path class="cls-2" d="M121.38,222.4c-1.8,0-3.39-.37-4.75-1.11-1.37-.74-2.43-1.76-3.18-3.05-.75-1.29-1.13-2.78-1.13-4.45s.37-3.16,1.1-4.45c.73-1.29,1.74-2.31,3.02-3.04,1.28-.73,2.73-1.1,4.34-1.1s3.07,.36,4.33,1.08,2.23,1.73,2.94,3.04c.71,1.3,1.07,2.83,1.07,4.56,0,.13,0,.28-.02,.45-.01,.17-.03,.33-.05,.48h-14.34v-2.19h12.75l-1.24,.76c.02-1.08-.2-2.05-.67-2.89-.47-.85-1.11-1.51-1.92-1.99-.82-.48-1.76-.72-2.85-.72s-2,.24-2.83,.72c-.83,.48-1.47,1.15-1.94,2s-.7,1.84-.7,2.94v.51c0,1.12,.26,2.13,.78,3.01,.52,.88,1.25,1.56,2.18,2.05,.93,.49,2,.73,3.21,.73,1,0,1.9-.17,2.72-.51,.82-.34,1.53-.85,2.15-1.53l1.69,1.97c-.76,.89-1.71,1.57-2.85,2.04-1.13,.47-2.4,.7-3.8,.7Z"/><path class="cls-2" d="M133.34,222.21v-16.86h2.93v4.58l-.29-1.14c.47-1.17,1.25-2.06,2.35-2.67,1.1-.62,2.46-.92,4.07-.92v2.96c-.13-.02-.25-.03-.37-.03h-.33c-1.63,0-2.93,.49-3.88,1.46-.95,.98-1.43,2.38-1.43,4.23v8.4h-3.05Z"/><path class="cls-2" d="M146.15,228.38v-23.03h2.93v4.55l-.19,3.91,.32,3.91v10.65h-3.05Zm8.94-5.98c-1.4,0-2.68-.32-3.83-.97-1.16-.65-2.08-1.61-2.77-2.88-.69-1.27-1.03-2.86-1.03-4.77s.33-3.5,1-4.77c.67-1.27,1.58-2.23,2.73-2.86,1.16-.64,2.45-.95,3.9-.95,1.65,0,3.12,.36,4.39,1.08s2.28,1.72,3.02,3c.74,1.28,1.11,2.78,1.11,4.5s-.37,3.22-1.11,4.52c-.74,1.29-1.75,2.3-3.02,3.02s-2.74,1.08-4.39,1.08Zm-.25-2.67c1.08,0,2.05-.24,2.91-.73,.86-.49,1.54-1.18,2.04-2.08,.5-.9,.75-1.94,.75-3.13s-.25-2.25-.75-3.13-1.18-1.56-2.04-2.05c-.86-.49-1.83-.73-2.91-.73s-2.02,.24-2.88,.73c-.86,.49-1.54,1.17-2.04,2.05-.5,.88-.75,1.92-.75,3.13s.25,2.23,.75,3.13c.5,.9,1.18,1.6,2.04,2.08,.86,.49,1.82,.73,2.88,.73Z"/><path class="cls-2" d="M167.84,222.21v-16.86h2.93v4.58l-.29-1.14c.47-1.17,1.25-2.06,2.35-2.67,1.1-.62,2.46-.92,4.07-.92v2.96c-.13-.02-.25-.03-.37-.03h-.33c-1.63,0-2.93,.49-3.88,1.46-.96,.98-1.43,2.38-1.43,4.23v8.4h-3.05Z"/><path class="cls-2" d="M187.72,222.4c-1.67,0-3.17-.37-4.5-1.11-1.33-.74-2.37-1.76-3.13-3.07-.76-1.3-1.14-2.78-1.14-4.44s.38-3.15,1.14-4.44c.76-1.28,1.8-2.29,3.12-3.04,1.31-.74,2.82-1.11,4.52-1.11s3.17,.37,4.5,1.1,2.36,1.74,3.12,3.04c.75,1.29,1.13,2.78,1.13,4.45s-.38,3.16-1.13,4.45c-.75,1.29-1.79,2.31-3.12,3.05-1.33,.74-2.83,1.11-4.5,1.11Zm0-2.67c1.08,0,2.05-.24,2.91-.73,.86-.49,1.53-1.18,2.02-2.08,.49-.9,.73-1.94,.73-3.13s-.24-2.25-.73-3.13c-.49-.88-1.16-1.56-2.02-2.05-.86-.49-1.83-.73-2.91-.73s-2.05,.24-2.89,.73c-.85,.49-1.53,1.17-2.04,2.05s-.76,1.92-.76,3.13,.25,2.23,.76,3.13c.51,.9,1.19,1.6,2.04,2.08,.85,.49,1.81,.73,2.89,.73Z"/><path class="cls-2" d="M207.92,222.4c-1.67,0-3.17-.37-4.5-1.11-1.33-.74-2.37-1.76-3.13-3.07-.76-1.3-1.14-2.78-1.14-4.44s.38-3.15,1.14-4.44c.76-1.28,1.8-2.29,3.12-3.04,1.31-.74,2.82-1.11,4.52-1.11s3.17,.37,4.5,1.1,2.36,1.74,3.12,3.04c.75,1.29,1.13,2.78,1.13,4.45s-.38,3.16-1.13,4.45c-.75,1.29-1.79,2.31-3.12,3.05-1.33,.74-2.83,1.11-4.5,1.11Zm0-2.67c1.08,0,2.05-.24,2.91-.73,.86-.49,1.53-1.18,2.02-2.08,.49-.9,.73-1.94,.73-3.13s-.24-2.25-.73-3.13c-.49-.88-1.16-1.56-2.02-2.05-.86-.49-1.83-.73-2.91-.73s-2.05,.24-2.89,.73c-.85,.49-1.53,1.17-2.04,2.05s-.76,1.92-.76,3.13,.25,2.23,.76,3.13c.51,.9,1.19,1.6,2.04,2.08,.85,.49,1.81,.73,2.89,.73Z"/><path class="cls-2" d="M218.48,207.87v-2.51h10.75v2.51h-10.75Zm2.86,14.34v-18.35c0-1.65,.48-2.97,1.45-3.96,.96-.99,2.34-1.48,4.12-1.48,.66,0,1.29,.08,1.89,.24,.6,.16,1.12,.41,1.54,.75l-.92,2.32c-.32-.25-.68-.45-1.08-.59-.4-.14-.83-.21-1.27-.21-.89,0-1.57,.25-2.04,.75s-.7,1.24-.7,2.21v2.26l.06,1.4v14.66h-3.05Z"/></g></g><g><path class="cls-2" d="M141.73,45.6c1.75,0,3.32,.85,4.36,2.32,6.54,9.44,16.08,23.71,24.04,38.22,9.44,17.07,14.46,30.11,14.46,37.75,0,11.57-4.46,22.43-12.57,30.54-8.06,8.11-18.87,12.57-30.35,12.57s-22.24-4.46-30.35-12.57c-8.11-8.16-12.57-18.97-12.57-30.54,0-7.68,5.03-20.72,14.46-37.75,8.01-14.46,17.5-28.78,24.04-38.22,1.14-1.47,2.7-2.32,4.46-2.32m0,110.06c3.7,0,6.69-3.03,6.69-6.69s-3.03-6.69-6.69-6.69c-4.84,0-9.39-1.9-12.8-5.31-3.41-3.46-5.31-8.06-5.31-12.99,0-3.6-3.13-6.69-6.69-6.69s-6.69,3.13-6.69,6.69c-.05,17.4,14.08,31.68,31.49,31.68m0-112.67c-2.47,0-4.88,1.14-6.5,3.46-12.57,18.11-38.98,58.52-38.98,77.44,0,25.37,20.34,45.71,45.48,45.71s45.48-20.34,45.48-45.71c0-18.92-26.41-59.32-38.98-77.48-1.61-2.28-4.03-3.41-6.5-3.41h0Zm0,110.06c-15.98,0-28.93-12.95-28.93-29.16,0-2.04,1.85-4.13,4.13-4.13s4.13,2.09,4.13,4.13c0,11.67,9.25,20.91,20.68,20.91,2.28,0,4.13,1.85,4.13,4.13s-1.85,4.13-4.13,4.13h0Z"/><path class="cls-2" d="M141.73,170.08c-12.29,0-23.84-4.79-32.5-13.48-8.67-8.71-13.45-20.32-13.45-32.7,0-19.31,27.32-60.78,39.06-77.71,1.62-2.33,4.13-3.67,6.89-3.67s5.26,1.32,6.88,3.61c11.75,16.98,39.07,58.54,39.07,77.76,0,12.38-4.78,24-13.45,32.7-8.66,8.69-20.2,13.48-32.5,13.48Zm0-126.61c-2.44,0-4.67,1.19-6.11,3.26-11.69,16.86-38.89,58.12-38.89,77.17,0,24.94,20.19,45.24,45,45.24s45-20.29,45-45.24c0-18.95-27.2-60.31-38.89-77.21-1.44-2.04-3.67-3.21-6.11-3.21Zm-.05,124c-11.59,0-22.49-4.51-30.68-12.71-8.19-8.24-12.71-19.21-12.71-30.87,0-7.7,5.02-20.84,14.52-37.98,8.1-14.62,17.56-28.88,24.07-38.26,1.27-1.64,2.98-2.53,4.85-2.53s3.61,.92,4.75,2.52c9.75,14.06,17.85,26.94,24.07,38.27,9.5,17.19,14.52,30.32,14.52,37.97,0,11.72-4.51,22.68-12.71,30.87-8.14,8.19-19.04,12.71-30.68,12.71Zm.05-121.39c-1.56,0-3.01,.76-4.08,2.14-6.48,9.35-15.92,23.57-24,38.16-9.42,17-14.4,29.97-14.4,37.52,0,11.42,4.41,22.14,12.43,30.2,8.01,8.01,18.67,12.43,30.01,12.43s22.05-4.41,30.01-12.43c8.01-8.01,12.43-18.74,12.43-30.2,0-7.5-4.98-20.47-14.4-37.52-6.2-11.3-14.28-24.15-24.02-38.18-.97-1.37-2.38-2.12-3.97-2.12Zm0,110.06c-8.51,0-16.53-3.34-22.57-9.4-6.08-6.09-9.41-14.17-9.39-22.75,0-3.81,3.35-7.16,7.16-7.16s7.16,3.35,7.16,7.16c0,4.78,1.84,9.28,5.17,12.66,3.33,3.33,7.76,5.17,12.47,5.17,3.95,0,7.16,3.21,7.16,7.16s-3.21,7.16-7.16,7.16Zm-24.8-38.36c-3.31,0-6.21,2.9-6.21,6.21-.02,8.32,3.21,16.17,9.11,22.08,5.87,5.88,13.64,9.12,21.9,9.12,3.42,0,6.21-2.79,6.21-6.21s-2.79-6.21-6.21-6.21c-4.96,0-9.62-1.94-13.14-5.45-3.52-3.56-5.45-8.3-5.45-13.33,0-3.31-2.9-6.21-6.21-6.21Zm24.8,35.75c-16.21,0-29.4-13.3-29.4-29.64,0-2.17,1.97-4.6,4.6-4.6s4.6,2.43,4.6,4.6c0,11.27,9.06,20.44,20.2,20.44,2.54,0,4.6,2.06,4.6,4.6s-2.06,4.6-4.6,4.6Zm-24.8-33.29c-2.09,0-3.65,1.93-3.65,3.65,0,15.82,12.76,28.69,28.45,28.69,2.01,0,3.65-1.64,3.65-3.65s-1.64-3.65-3.65-3.65c-11.66,0-21.15-9.59-21.15-21.39,0-1.72-1.56-3.65-3.65-3.65Z"/></g></g></g></svg>