<?xml version="1.0" encoding="utf-8"?>
<!-- Generator: Adobe Illustrator 26.2.1, SVG Export Plug-In . SVG Version: 6.00 Build 0)  -->
<svg version="1.1" id="Ebene_1" xmlns="http://www.w3.org/2000/svg" xmlns:xlink="http://www.w3.org/1999/xlink" x="0px" y="0px"
	 viewBox="0 0 200 200" style="enable-background:new 0 0 200 200;" xml:space="preserve">
<style type="text/css">
	.st0{fill:#EEA501;}
</style>
<path class="st0" d="M136.9,42.6c12,0.4,23.4,8.2,32.8,19c9.3,10.8,16.6,24.6,14.5,37.2c-2.1,12.6-13.5,24-23,34.6
	c-9.4,10.7-16.9,20.5-26.8,31.5c-9.8,10.9-22.1,23-31.6,18.1c-9.4-4.9-16-26.8-29.3-35.8c-13.2-9-33.2-5.1-39.8-10.8
	c-6.6-5.7,0.2-21.1,0.7-36.1C34.8,85.2,29,70.4,32.3,59C35.6,47.6,48,39.6,60.9,39.7c12.8,0.2,25.9,8.4,38.8,9
	C112.5,49.3,125,42.2,136.9,42.6z"/>
</svg>
