<?xml version="1.0" encoding="utf-8"?>
<!-- Generator: Adobe Illustrator 26.2.1, SVG Export Plug-In . SVG Version: 6.00 Build 0)  -->
<svg version="1.1" id="Ebene_1" xmlns="http://www.w3.org/2000/svg" xmlns:xlink="http://www.w3.org/1999/xlink" x="0px" y="0px"
	 viewBox="0 0 200 200" style="enable-background:new 0 0 200 200;" xml:space="preserve">
<style type="text/css">
	.st0{fill:#36A76F;}
</style>
<path class="st0" d="M136.6,35.7c6.8,4.8,5.4,22.8,9.5,35.7c4.2,13,13.8,20.8,15.6,29.6c1.8,8.9-4.2,18.8-11.7,25.8
	c-7.6,6.9-16.8,10.9-25.4,17c-8.6,6-16.6,14.2-24,13.1c-7.4-1-14.3-11.2-27.4-14.6c-13.1-3.5-32.4-0.2-41.6-6.1
	c-9.2-5.9-8.3-21.1-1.1-32.1c7.1-11,20.4-17.9,27.7-27.1c7.3-9.3,8.5-20.9,14.5-26.2c5.9-5.3,16.6-4.3,29.4-7.9
	C114.9,39.2,129.8,30.8,136.6,35.7z"/>
</svg>
