<?xml version="1.0" encoding="utf-8"?>
<!-- Generator: Adobe Illustrator 26.3.1, SVG Export Plug-In . SVG Version: 6.00 Build 0)  -->
<svg version="1.1" id="Ebene_1" xmlns="http://www.w3.org/2000/svg" xmlns:xlink="http://www.w3.org/1999/xlink" x="0px" y="0px"
	 viewBox="0 0 1091.7 1018.9" style="enable-background:new 0 0 1091.7 1018.9;" xml:space="preserve">
<style type="text/css">
	.st0{fill:#EEA501;}
</style>
<path id="blob-gelb" class="st0" d="M534.3,979.3c-72.4,47.2-171.8,48.3-271.8,23.5c-99.4-25.2-199.4-76.4-239.1-159.3
	S3.8,646.3,16,544.6C27.3,442.7,31,354,43.9,248.2C56.6,143.5,79.1,21.4,155.3,11.1c75.6-9.9,205,91.9,320.5,90
	C590.8,99.5,692.6-6.1,755,0.3s86,125.2,145,215.6c60,90.6,155.3,153.9,183,234.7s-12.4,179.2-88.8,231.9
	c-76.3,51.7-187.3,57.5-265.8,107.2C650.4,839,606.1,932.5,534.3,979.3z"/>
</svg>
