<svg xmlns="http://www.w3.org/2000/svg" width="1466.095" height="2101.715" viewBox="0 0 1466.095 2101.715">
  <path id="blob-orange" d="M968.447,531.4c169.178,172.226,393.225,221,445.045,335.308s-67.062,295.681-150.889,470.955c-82.3,173.75-128.027,341.4-237.764,435.9-108.213,92.972-281.964,114.31-493.817,166.13-211.854,53.344-461.811,138.7-528.872,30.483s50.3-408.466,109.737-602.03,60.965-280.439-3.048-481.624C44.826,683.817-87.773,365.274-22.235,159.517,44.826-46.24,306.976-139.212,495.968-38.62,683.435,63.5,799.269,359.177,968.447,531.4Z" transform="translate(39.963 79.374)" fill="#e97220"/>
</svg>
