<?xml version="1.0" encoding="utf-8"?>
<!-- Generator: Adobe Illustrator 26.3.1, SVG Export Plug-In . SVG Version: 6.00 Build 0)  -->
<svg version="1.1" id="Ebene_1" xmlns="http://www.w3.org/2000/svg" xmlns:xlink="http://www.w3.org/1999/xlink" x="0px" y="0px"
	 viewBox="0 0 2434.9 1682.3" style="enable-background:new 0 0 2434.9 1682.3;" xml:space="preserve">
<style type="text/css">
	.st0{fill:#E893BD;}
</style>
<path id="blob-pink" class="st0" d="M-39,372.9c-138.3-108.5,78.9-285.3,305.7-345c227-61.2,558.3-6.5,777.1,22.4
	c216.6,28.7,319.8,30.7,497.6,4.3c176.5-25.8,427.5-79.9,621-40.5s443.7,271.4,362.6,370.8c-82.3,100.1,169.1,1421.9,32,1548
	c-137.1,126.1-642.7-61.4-752,28c-108.2,90.2-519.1,209.8-656,124c-135.7-86.5-1229.8-789.3-1444-892
	C-506.9,1090.2,100.5,480.8-39,372.9z"/>
</svg>
