<?xml version="1.0" encoding="utf-8"?>
<!-- Generator: Adobe Illustrator 26.3.1, SVG Export Plug-In . SVG Version: 6.00 Build 0)  -->
<svg version="1.1" id="Ebene_1" xmlns="http://www.w3.org/2000/svg" xmlns:xlink="http://www.w3.org/1999/xlink" x="0px" y="0px"
	 viewBox="0 0 2019.8 1557.2" style="enable-background:new 0 0 2019.8 1557.2;" xml:space="preserve">
<style type="text/css">
	.st0{fill:#E893BD;}
</style>
<path id="blob-pink" class="st0" d="M1918.1,579.5c156,111.9,124.7,375.6-40.3,509.1c-164.6,135.4-460,141.1-652.3,154.6
	c-190.4,13.1-276.7,34.9-413.8,112.3c-136.4,76.2-323.6,208.1-499,201.4S-25.8,1406.9,3.4,1255C33.3,1102,255.6,940.4,321,739.7
	s-28.3-442.1,28.1-587.3C404.2,6.4,608.6-42.3,754.9,39.7c145.5,83.1,230.9,297.3,447.5,383.5
	C1417.2,509.7,1761.3,468.7,1918.1,579.5z"/>
</svg>
