<?xml version="1.0" encoding="utf-8"?>
<!-- Generator: Adobe Illustrator 26.3.1, SVG Export Plug-In . SVG Version: 6.00 Build 0)  -->
<svg version="1.1" id="Ebene_1" xmlns="http://www.w3.org/2000/svg" xmlns:xlink="http://www.w3.org/1999/xlink" x="0px" y="0px"
	 viewBox="0 0 1412.3 1911.1" style="enable-background:new 0 0 1412.3 1911.1;" xml:space="preserve">
<style type="text/css">
	.st0{fill:#36A76F;}
</style>
<path id="blob-grün" class="st0" d="M360.6,4.1c104.6-31.5,279.3,128.4,445.7,190.3c168.3,61.6,326.5,25.4,432,77.9
	c106.5,53.3,160.4,195.3,172.1,329.4c9.9,134.3-23.1,261.7-29.5,399.9c-7.5,137.4,12.6,286.3-58.5,353.9
	c-70.1,68.4-231.3,57.3-372.3,165.2c-142,107.1-263.8,333.3-399.2,380.7s-285.1-84.7-340.7-248c-56.3-162.3-20.2-355.5-56.3-505.3
	C116.9,997.5,6.7,891.4,0.4,786.5C-6.7,682.7,90,580.2,156.3,418.8C221.4,256.6,255,34.8,360.6,4.1z"/>
</svg>
