<?xml version="1.0" encoding="utf-8"?>
<!-- Generator: Adobe Illustrator 26.3.1, SVG Export Plug-In . SVG Version: 6.00 Build 0)  -->
<svg version="1.1" id="Ebene_1" xmlns="http://www.w3.org/2000/svg" xmlns:xlink="http://www.w3.org/1999/xlink" x="0px" y="0px"
	 viewBox="0 0 1890.7 1441.6" style="enable-background:new 0 0 1890.7 1441.6;" xml:space="preserve">
<style type="text/css">
	.st0{fill:#36A76F;}
</style>
<path id="blob-grün" class="st0" d="M1880.3,239.3c47.9,99.1-83.7,298.4-119,473.9c-34.8,177.3,26.3,329.1-9.3,442.5
	c-36.2,114.5-169.1,190.6-300.8,223.5c-132.2,31.1-264.3,18.4-402.9,33.8c-138,14.3-283.1,57.8-361.7-2.3
	c-79.2-59-93.6-221.3-223.4-344.6C334.1,941.5,89.7,855.9,21.1,728.7s39.3-297.3,193.1-378.4C366.9,268.5,565,274,708.5,214.4
	C852.5,153.6,940.8,27.1,1044.2,4.2c102.2-23.5,219.6,56.7,390.8,97.1C1606.8,140.6,1833.1,139,1880.3,239.3z"/>
</svg>
