<?xml version="1.0" encoding="utf-8"?>
<!-- Generator: Adobe Illustrator 26.3.1, SVG Export Plug-In . SVG Version: 6.00 Build 0)  -->
<svg version="1.1" id="Ebene_1" xmlns="http://www.w3.org/2000/svg" xmlns:xlink="http://www.w3.org/1999/xlink" x="0px" y="0px"
	 viewBox="0 0 1634.7 1613.1" style="enable-background:new 0 0 1634.7 1613.1;" xml:space="preserve">
<style type="text/css">
	.st0{fill:#EEA501;}
</style>
<path id="blob-gelb" class="st0" d="M1431.1,483.3c105.2,68.1,165.3,199.1,191.3,346.3c25.1,146.6,16.3,309.3-70.2,410.7
	c-86.5,101.4-249.8,142.1-391.7,185.9c-141.6,45.2-261.4,92.6-409.1,137.7c-146.3,44.8-321.3,87-380-7.9
	c-57.8-94.4,0.9-325.8-69.7-477.8C231.9,926.8,32.1,854.2,3.7,767.7S118.9,580,204,448.5C288.7,315.6,316.4,152,407.2,67.7
	s244.7-89.2,359.6-18.9c113.4,70.6,186.5,214.4,298.7,289.1C1176.8,412.1,1326.8,415.7,1431.1,483.3z"/>
</svg>
